<?xml version="1.0" encoding="UTF-8" standalone="no"?>
<!-- Created with Inkscape (http://www.inkscape.org/) -->

<svg
   width="53.369366mm"
   height="46.325584mm"
   viewBox="0 0 53.369366 46.325584"
   version="1.1"
   id="svg5"
   sodipodi:docname="covariant_derivative.svg"
   inkscape:version="1.2 (dc2aeda, 2022-05-15)"
   xmlns:inkscape="http://www.inkscape.org/namespaces/inkscape"
   xmlns:sodipodi="http://sodipodi.sourceforge.net/DTD/sodipodi-0.dtd"
   xmlns="http://www.w3.org/2000/svg"
   xmlns:svg="http://www.w3.org/2000/svg">
  <sodipodi:namedview
     id="namedview7"
     pagecolor="#ffffff"
     bordercolor="#666666"
     borderopacity="1.0"
     inkscape:showpageshadow="2"
     inkscape:pageopacity="0.0"
     inkscape:pagecheckerboard="0"
     inkscape:deskcolor="#d1d1d1"
     inkscape:document-units="mm"
     showgrid="true"
     inkscape:zoom="2.8593018"
     inkscape:cx="86.909329"
     inkscape:cy="66.624656"
     inkscape:window-width="1463"
     inkscape:window-height="869"
     inkscape:window-x="0"
     inkscape:window-y="25"
     inkscape:window-maximized="0"
     inkscape:current-layer="layer1">
    <inkscape:grid
       type="xygrid"
       id="grid132"
       originx="-56.806066"
       originy="-66.100975" />
  </sodipodi:namedview>
  <defs
     id="defs2">
    <marker
       style="overflow:visible"
       id="TriangleStart"
       refX="0"
       refY="0"
       orient="auto-start-reverse"
       inkscape:stockid="TriangleStart"
       markerWidth="3"
       markerHeight="3"
       viewBox="0 0 5.3244081 6.1553851"
       inkscape:isstock="true"
       inkscape:collect="always"
       preserveAspectRatio="xMidYMid">
      <path
         transform="scale(0.5)"
         style="fill:context-stroke;fill-rule:evenodd;stroke:context-stroke;stroke-width:1pt"
         d="M 5.77,0 -2.88,5 V -5 Z"
         id="path135" />
    </marker>
    <marker
       style="overflow:visible"
       id="marker1125"
       refX="0"
       refY="0"
       orient="auto-start-reverse"
       inkscape:stockid="Arrow2"
       markerWidth="7.6999998"
       markerHeight="5.5999999"
       viewBox="0 0 7.7 5.6"
       inkscape:isstock="true"
       inkscape:collect="always"
       preserveAspectRatio="xMidYMid">
      <path
         transform="scale(0.7)"
         d="M -2,-4 9,0 -2,4 c 2,-2.33 2,-5.66 0,-8 z"
         style="fill:context-stroke;fill-rule:evenodd;stroke:none"
         id="path1123" />
    </marker>
    <marker
       style="overflow:visible"
       id="Arrow2"
       refX="0"
       refY="0"
       orient="auto-start-reverse"
       inkscape:stockid="Arrow2"
       markerWidth="7.6999998"
       markerHeight="5.5999999"
       viewBox="0 0 7.7 5.6"
       inkscape:isstock="true"
       inkscape:collect="always"
       preserveAspectRatio="xMidYMid">
      <path
         transform="scale(0.7)"
         d="M -2,-4 9,0 -2,4 c 2,-2.33 2,-5.66 0,-8 z"
         style="fill:context-stroke;fill-rule:evenodd;stroke:none"
         id="arrow2L" />
    </marker>
    <clipPath
       id="clip-0">
      <path
         clip-rule="nonzero"
         d="m 0,3 h 9 v 7.945312 H 0 Z m 0,0"
         id="path12" />
    </clipPath>
    <clipPath
       id="clipPath6845">
      <path
         clip-rule="nonzero"
         d="m 0,3 h 9 v 7.945312 H 0 Z m 0,0"
         id="path6843" />
    </clipPath>
    <clipPath
       id="clipPath6974">
      <path
         clip-rule="nonzero"
         d="M 0,0 H 13 V 11.765625 H 0 Z m 0,0"
         id="path6972" />
    </clipPath>
    <clipPath
       id="clipPath7123">
      <path
         clip-rule="nonzero"
         d="m 8,5 h 6.882812 v 7.117188 H 8 Z m 0,0"
         id="path7121" />
    </clipPath>
    <clipPath
       id="clipPath7290">
      <path
         clip-rule="nonzero"
         d="m 8,5 h 6 V 9.996094 H 8 Z m 0,0"
         id="path7288" />
    </clipPath>
    <clipPath
       id="clipPath8295">
      <path
         clip-rule="nonzero"
         d="m 8,5 h 6 V 9.996094 H 8 Z m 0,0"
         id="path8293" />
    </clipPath>
    <clipPath
       id="clipPath8502">
      <path
         clip-rule="nonzero"
         d="m 8,5 h 6 V 9.996094 H 8 Z m 0,0"
         id="path8500" />
    </clipPath>
    <clipPath
       id="clipPath8947">
      <path
         clip-rule="nonzero"
         d="M 0,0 H 13 V 11.765625 H 0 Z m 0,0"
         id="path8945" />
    </clipPath>
    <clipPath
       id="clipPath9202">
      <path
         clip-rule="nonzero"
         d="m 8,5 h 6.882812 v 7.117188 H 8 Z m 0,0"
         id="path9200" />
    </clipPath>
    <clipPath
       id="clipPath9477">
      <path
         clip-rule="nonzero"
         d="m 8,5 h 6 V 9.996094 H 8 Z m 0,0"
         id="path9475" />
    </clipPath>
  </defs>
  <g
     inkscape:label="Calque 1"
     inkscape:groupmode="layer"
     id="layer1"
     transform="translate(-56.8061, -66.101)">
    <path
       style="fill:none;stroke:#0000bc;stroke-width:0.265;stroke-linecap:butt;stroke-linejoin:miter;stroke-dasharray:none;stroke-opacity:1;marker-end:url(#Arrow2)"
       d="m 62.227496,112.40192 c 0,0 1.659064,-8.76588 1.055983,-13.13954 -0.652467,-4.731818 -3.780799,-11.51414 -3.69594,-17.318117 0.0713,-4.876522 3.69594,-14.285392 3.69594,-14.285392"
       id="path188"
       sodipodi:nodetypes="cssc" />
    <path
       style="fill:none;stroke:#d10000;stroke-width:0.264583px;stroke-linecap:butt;stroke-linejoin:miter;stroke-opacity:1;marker-end:url(#marker1125)"
       d="m 57.742632,107.07614 c 0,0 7.369763,1.68957 11.001846,1.68957 5.772706,0 12.179001,-2.00636 17.951707,-2.63995 6.904816,-0.75785 20.099655,0.95038 20.099655,0.95038"
       id="path190"
       sodipodi:nodetypes="cssc" />
    <path
       style="fill:none;stroke:#b8b8b8;stroke-width:0.264583px;stroke-linecap:butt;stroke-linejoin:miter;stroke-opacity:1"
       d="m 77.969291,112.40192 c 0,0 1.217905,-6.72191 0.63359,-11.44996 -0.584316,-4.728059 -1.795171,-11.998074 -1.795171,-17.529322 0,-5.531248 3.273547,-15.446972 3.273547,-15.446972"
       id="path1171"
       sodipodi:nodetypes="czzc" />
    <path
       style="fill:none;stroke:#b8b8b8;stroke-width:0.264583px;stroke-linecap:butt;stroke-linejoin:miter;stroke-opacity:1"
       d="m 93.852291,112.40192 c 0,0 -1.380669,-8.77973 -1.161581,-13.878728 0.219088,-5.099002 2.534359,-11.646072 2.534359,-16.684528 0,-5.038455 -3.379145,-13.651801 -3.379145,-13.651801"
       id="path1179"
       sodipodi:nodetypes="czzc" />
    <path
       style="fill:none;stroke:#b8b8b8;stroke-width:0.264583px;stroke-linecap:butt;stroke-linejoin:miter;stroke-opacity:1"
       d="m 105.58976,88.431736 c 0,0 -14.407068,0.633589 -19.738361,1.689572 -5.331294,1.055983 -10.518876,2.678415 -15.94534,2.745555 -3.211204,0.03973 -9.798556,-1.689572 -9.798556,-1.689572"
       id="path1931"
       sodipodi:nodetypes="czsc" />
    <path
       style="fill:none;stroke:#b8b8b8;stroke-width:0.264583px;stroke-linecap:butt;stroke-linejoin:miter;stroke-opacity:1"
       d="m 104.95617,73.190315 c 0,0 -12.893688,2.781498 -19.210369,3.590342 -5.772706,0.739188 -11.771068,-0.963601 -15.94534,-1.478376 -4.174273,-0.514775 -9.692958,0 -9.692958,0"
       id="path1933"
       sodipodi:nodetypes="cszc" />
    <path
       style="fill:none;stroke:#000000;stroke-width:0.365;stroke-linecap:butt;stroke-linejoin:miter;stroke-opacity:1;stroke-dasharray:none"
       d="m 94.135112,89.147321 c -3.208521,0.262085 -6.345745,0.590129 -8.283713,0.973987 -2.833894,0.561317 -5.627182,1.282686 -8.437327,1.845435"
       id="path17730"
       sodipodi:nodetypes="csc" />
    <path
       style="fill:none;stroke:#d10000;stroke-width:0.265;stroke-linecap:butt;stroke-linejoin:miter;stroke-dasharray:none;stroke-opacity:1;marker-end:url(#Arrow2)"
       d="m 77.327048,91.946998 5.250809,-1.238073"
       id="path4311"
       sodipodi:nodetypes="cc" />
    <path
       style="fill:none;stroke:#0000bc;stroke-width:0.265;stroke-linecap:butt;stroke-linejoin:miter;stroke-dasharray:none;stroke-opacity:1;marker-end:url(#Arrow2)"
       d="m 77.478396,91.946831 -0.4888,-5.372606"
       id="path4993"
       sodipodi:nodetypes="cc"
       inkscape:transform-center-x="0.1686298"
       inkscape:transform-center-y="-2.5992277" />
    <path
       style="fill:none;stroke:#00a7bc;stroke-width:1;stroke-linecap:round;stroke-linejoin:miter;stroke-dasharray:none;stroke-opacity:1;marker-end:url(#TriangleStart)"
       d="M 77.431729,91.971453 83.023064,80.946986"
       id="path5143"
       sodipodi:nodetypes="cc"
       inkscape:transform-center-x="-1.0056982"
       inkscape:transform-center-y="-2.4027047" />
    <path
       style="fill:none;stroke:#d10000;stroke-width:0.265;stroke-linecap:butt;stroke-linejoin:miter;stroke-dasharray:none;stroke-opacity:1;marker-end:url(#Arrow2)"
       d="m 94.260391,89.111877 5.326526,-0.699676"
       id="path5547"
       sodipodi:nodetypes="cc" />
    <path
       style="fill:none;stroke:#0000bc;stroke-width:0.265;stroke-linecap:butt;stroke-linejoin:miter;stroke-dasharray:none;stroke-opacity:1;marker-end:url(#Arrow2)"
       d="M 94.222453,89.338853 95.355179,83.92839"
       id="path5549"
       sodipodi:nodetypes="cc"
       inkscape:transform-center-x="0.1686298"
       inkscape:transform-center-y="-2.5992277" />
    <path
       style="fill:none;stroke:#00a7bc;stroke-width:1;stroke-linecap:round;stroke-linejoin:miter;stroke-dasharray:none;stroke-opacity:1;marker-end:url(#TriangleStart)"
       d="m 94.313952,89.224643 6.477418,-4.658045"
       id="path5551"
       sodipodi:nodetypes="cc"
       inkscape:transform-center-x="-1.4871367"
       inkscape:transform-center-y="-2.1384197" />
    <g
       id="g16962">
      <g
         clip-path="url(#clip-0)"
         id="g21"
         transform="matrix(0.29227656,0,0,0.29227656,105.55355,108.58032)"
         style="fill:#d40000">
        <g
           fill="#000000"
           fill-opacity="1"
           id="g19"
           style="fill:#d40000">
          <g
             id="use17"
             transform="translate(0,10.944)"
             style="fill:#d40000">
            <path
               d="m 8.15625,-7.03125 c -0.546875,0.109375 -0.75,0.515625 -0.75,0.84375 0,0.421875 0.328125,0.5625 0.5625,0.5625 0.515625,0 0.875,-0.453125 0.875,-0.921875 0,-0.71875 -0.8125,-1.046875 -1.546875,-1.046875 -1.046875,0 -1.625,1.03125 -1.78125,1.359375 -0.40625,-1.296875 -1.46875,-1.359375 -1.78125,-1.359375 -1.75,0 -2.6875,2.25 -2.6875,2.640625 0,0.0625 0.078125,0.15625 0.1875,0.15625 0.140625,0 0.171875,-0.109375 0.21875,-0.171875 C 2.03125,-6.890625 3.1875,-7.25 3.6875,-7.25 c 0.765625,0 0.921875,0.71875 0.921875,1.140625 0,0.375 -0.09375,0.765625 -0.296875,1.59375 L 3.71875,-2.15625 c -0.25,1.03125 -0.75,1.984375 -1.671875,1.984375 -0.078125,0 -0.515625,0 -0.875,-0.21875 0.625,-0.125 0.75,-0.640625 0.75,-0.84375 0,-0.34375 -0.25,-0.5625 -0.578125,-0.5625 -0.40625,0 -0.859375,0.375 -0.859375,0.921875 0,0.71875 0.8125,1.046875 1.546875,1.046875 0.828125,0 1.40625,-0.65625 1.78125,-1.359375 0.265625,1.015625 1.125,1.359375 1.765625,1.359375 1.75,0 2.6875,-2.25 2.6875,-2.640625 0,-0.078125 -0.0625,-0.15625 -0.171875,-0.15625 -0.15625,0 -0.171875,0.09375 -0.21875,0.234375 -0.46875,1.515625 -1.46875,2.21875 -2.25,2.21875 -0.59375,0 -0.921875,-0.453125 -0.921875,-1.15625 0,-0.375 0.0625,-0.65625 0.34375,-1.78125 l 0.59375,-2.34375 C 5.90625,-6.484375 6.484375,-7.25 7.28125,-7.25 c 0.03125,0 0.515625,0 0.875,0.21875 z m 0,0"
               id="path31"
               style="fill:#d40000" />
          </g>
        </g>
      </g>
      <g
         fill="#000000"
         fill-opacity="1"
         id="g25"
         transform="matrix(0.29227656,0,0,0.29227656,105.55355,108.58032)"
         style="fill:#d40000">
        <g
           id="use23"
           transform="translate(9.5790005,4.697)"
           style="fill:#d40000">
          <path
             d="M 2.515625,-3.828125 C 2.578125,-4.0625 2.6875,-4.46875 2.6875,-4.53125 c 0,-0.1875 -0.140625,-0.296875 -0.328125,-0.296875 -0.03125,0 -0.328125,0.015625 -0.421875,0.40625 l -1.578125,6.3125 c -0.03125,0.125 -0.03125,0.15625 -0.03125,0.171875 0,0.15625 0.125,0.296875 0.296875,0.296875 C 0.859375,2.359375 1,2.15625 1.015625,2.125 1.0625,2.03125 1.203125,1.46875 1.609375,-0.21875 1.96875,0.078125 2.453125,0.125 2.671875,0.125 3.4375,0.125 3.859375,-0.375 4.125,-0.671875 4.21875,-0.1875 4.625,0.125 5.109375,0.125 c 0.375,0 0.625,-0.25 0.796875,-0.609375 C 6.09375,-0.875 6.234375,-1.53125 6.234375,-1.5625 c 0,-0.109375 -0.09375,-0.109375 -0.125,-0.109375 -0.109375,0 -0.125,0.046875 -0.15625,0.203125 -0.1875,0.703125 -0.375,1.34375 -0.828125,1.34375 -0.296875,0 -0.328125,-0.28125 -0.328125,-0.5 0,-0.234375 0.125,-0.75 0.21875,-1.125 l 0.3125,-1.1875 C 5.359375,-3.09375 5.46875,-3.515625 5.5,-3.671875 c 0.0625,-0.25 0.171875,-0.671875 0.171875,-0.734375 0,-0.203125 -0.15625,-0.296875 -0.3125,-0.296875 -0.0625,0 -0.34375,0.015625 -0.4375,0.390625 l -0.5,2.03125 c -0.140625,0.546875 -0.25,1 -0.28125,1.109375 C 4.125,-1.109375 3.59375,-0.125 2.71875,-0.125 c -0.546875,0 -0.8125,-0.359375 -0.8125,-0.9375 0,-0.328125 0.078125,-0.625 0.15625,-0.9375 z m 0,0"
             id="path35"
             style="fill:#d40000" />
        </g>
      </g>
    </g>
    <g
       inkscape:label=""
       transform="matrix(0.82849997,0,0,0.82849997,56.806064,66.180753)"
       id="g6882"
       style="fill:#0000bc;fill-opacity:1">
      <g
         clip-path="url(#clip-0)"
         id="g6874"
         transform="matrix(0.352778,0,0,0.352778,-0.170877,0.046258)"
         style="fill:#0000bc;fill-opacity:1">
        <g
           fill="#000000"
           fill-opacity="1"
           id="g6872"
           style="fill:#0000bc;fill-opacity:1">
          <g
             id="g6870"
             transform="translate(0,10.944)"
             style="fill:#0000bc;fill-opacity:1">
            <path
               d="m 8.15625,-7.03125 c -0.546875,0.109375 -0.75,0.515625 -0.75,0.84375 0,0.421875 0.328125,0.5625 0.5625,0.5625 0.515625,0 0.875,-0.453125 0.875,-0.921875 0,-0.71875 -0.8125,-1.046875 -1.546875,-1.046875 -1.046875,0 -1.625,1.03125 -1.78125,1.359375 -0.40625,-1.296875 -1.46875,-1.359375 -1.78125,-1.359375 -1.75,0 -2.6875,2.25 -2.6875,2.640625 0,0.0625 0.078125,0.15625 0.1875,0.15625 0.140625,0 0.171875,-0.109375 0.21875,-0.171875 C 2.03125,-6.890625 3.1875,-7.25 3.6875,-7.25 c 0.765625,0 0.921875,0.71875 0.921875,1.140625 0,0.375 -0.09375,0.765625 -0.296875,1.59375 L 3.71875,-2.15625 c -0.25,1.03125 -0.75,1.984375 -1.671875,1.984375 -0.078125,0 -0.515625,0 -0.875,-0.21875 0.625,-0.125 0.75,-0.640625 0.75,-0.84375 0,-0.34375 -0.25,-0.5625 -0.578125,-0.5625 -0.40625,0 -0.859375,0.375 -0.859375,0.921875 0,0.71875 0.8125,1.046875 1.546875,1.046875 0.828125,0 1.40625,-0.65625 1.78125,-1.359375 0.265625,1.015625 1.125,1.359375 1.765625,1.359375 1.75,0 2.6875,-2.25 2.6875,-2.640625 0,-0.078125 -0.0625,-0.15625 -0.171875,-0.15625 -0.15625,0 -0.171875,0.09375 -0.21875,0.234375 -0.46875,1.515625 -1.46875,2.21875 -2.25,2.21875 -0.59375,0 -0.921875,-0.453125 -0.921875,-1.15625 0,-0.375 0.0625,-0.65625 0.34375,-1.78125 l 0.59375,-2.34375 C 5.90625,-6.484375 6.484375,-7.25 7.28125,-7.25 c 0.03125,0 0.515625,0 0.875,0.21875 z m 0,0"
               id="path6868"
               style="fill:#0000bc;fill-opacity:1" />
          </g>
        </g>
      </g>
      <g
         fill="#000000"
         fill-opacity="1"
         id="g6880"
         transform="matrix(0.352778,0,0,0.352778,-0.170877,0.046258)"
         style="fill:#0000bc;fill-opacity:1">
        <g
           id="g6878"
           transform="translate(9.5790005,4.697)"
           style="fill:#0000bc;fill-opacity:1">
          <path
             d="m 2.4375,-4.703125 c 0,-0.015625 0,-0.125 -0.140625,-0.125 -0.25,0 -1.046875,0.09375 -1.328125,0.109375 C 0.890625,-4.703125 0.765625,-4.6875 0.765625,-4.5 c 0,0.140625 0.09375,0.140625 0.265625,0.140625 0.515625,0 0.546875,0.078125 0.546875,0.1875 0,0.078125 -0.140625,0.578125 -0.21875,0.875 L 0.703125,-0.625 c -0.046875,0.171875 -0.125,0.46875 -0.125,0.5 C 0.578125,-0.015625 0.6875,0 0.75,0 h 0.15625 c 0.765625,-0.125 1.953125,-0.5625 3.078125,-1.609375 1.4375,-1.328125 1.734375,-2.8125 1.734375,-2.921875 0,-0.1875 -0.140625,-0.296875 -0.3125,-0.296875 -0.09375,0 -0.34375,0.046875 -0.4375,0.375 -0.6875,2.46875 -2.34375,3.6875 -3.59375,4.09375 z m 0,0"
             id="path6876"
             style="fill:#0000bc;fill-opacity:1" />
        </g>
      </g>
    </g>
    <g
       id="g10461"
       style="fill:#00a7bc;fill-opacity:1"
       transform="translate(-34.765902,-23.465324)">
      <g
         inkscape:label=""
         transform="translate(114.02848,98.125303)"
         id="g8799"
         style="fill:#00a7bc;fill-opacity:1" />
      <g
         fill="#000000"
         fill-opacity="1"
         id="g9034"
         transform="matrix(0.352778,0,0,0.352778,113.79353,96.982933)"
         style="fill:#00a7bc;fill-opacity:1">
        <g
           id="g9032"
           transform="translate(12.636,5.5170002)"
           style="fill:#00a7bc;fill-opacity:1">
          <path
             d="M 2.515625,-3.828125 C 2.578125,-4.0625 2.6875,-4.46875 2.6875,-4.53125 c 0,-0.1875 -0.140625,-0.296875 -0.328125,-0.296875 -0.03125,0 -0.328125,0.015625 -0.421875,0.40625 l -1.578125,6.3125 c -0.03125,0.125 -0.03125,0.15625 -0.03125,0.171875 0,0.15625 0.125,0.296875 0.296875,0.296875 C 0.859375,2.359375 1,2.15625 1.015625,2.125 1.0625,2.03125 1.203125,1.46875 1.609375,-0.21875 1.96875,0.078125 2.453125,0.125 2.671875,0.125 3.4375,0.125 3.859375,-0.375 4.125,-0.671875 4.21875,-0.1875 4.625,0.125 5.109375,0.125 c 0.375,0 0.625,-0.25 0.796875,-0.609375 C 6.09375,-0.875 6.234375,-1.53125 6.234375,-1.5625 c 0,-0.109375 -0.09375,-0.109375 -0.125,-0.109375 -0.109375,0 -0.125,0.046875 -0.15625,0.203125 -0.1875,0.703125 -0.375,1.34375 -0.828125,1.34375 -0.296875,0 -0.328125,-0.28125 -0.328125,-0.5 0,-0.234375 0.125,-0.75 0.21875,-1.125 l 0.3125,-1.1875 C 5.359375,-3.09375 5.46875,-3.515625 5.5,-3.671875 c 0.0625,-0.25 0.171875,-0.671875 0.171875,-0.734375 0,-0.203125 -0.15625,-0.296875 -0.3125,-0.296875 -0.0625,0 -0.34375,0.015625 -0.4375,0.390625 l -0.5,2.03125 c -0.140625,0.546875 -0.25,1 -0.28125,1.109375 C 4.125,-1.109375 3.59375,-0.125 2.71875,-0.125 c -0.546875,0 -0.8125,-0.359375 -0.8125,-0.9375 0,-0.328125 0.078125,-0.625 0.15625,-0.9375 z m 0,0"
             id="path9030"
             style="fill:#00a7bc;fill-opacity:1" />
        </g>
      </g>
    </g>
    <g
       id="g27646"
       transform="translate(-0.90611718,2.0840695)">
      <g
         id="g10417">
        <g
           id="g10339"
           transform="translate(-7.4260684,-8.4675292)">
          <g
             id="g10288"
             transform="matrix(0.29227656,0,0,0.29227656,81.547086,95.394375)"
             style="fill:#0000bc;fill-opacity:1">
            <path
               d="m 2.4375,-4.703125 c 0,-0.015625 0,-0.125 -0.140625,-0.125 -0.25,0 -1.046875,0.09375 -1.328125,0.109375 C 0.890625,-4.703125 0.765625,-4.6875 0.765625,-4.5 c 0,0.140625 0.09375,0.140625 0.265625,0.140625 0.515625,0 0.546875,0.078125 0.546875,0.1875 0,0.078125 -0.140625,0.578125 -0.21875,0.875 L 0.703125,-0.625 c -0.046875,0.171875 -0.125,0.46875 -0.125,0.5 C 0.578125,-0.015625 0.6875,0 0.75,0 h 0.15625 c 0.765625,-0.125 1.953125,-0.5625 3.078125,-1.609375 1.4375,-1.328125 1.734375,-2.8125 1.734375,-2.921875 0,-0.1875 -0.140625,-0.296875 -0.3125,-0.296875 -0.09375,0 -0.34375,0.046875 -0.4375,0.375 -0.6875,2.46875 -2.34375,3.6875 -3.59375,4.09375 z m 0,0"
               id="path10286"
               style="fill:#0000bc;fill-opacity:1" />
          </g>
          <g
             inkscape:label=""
             transform="matrix(0.82849997,0,0,0.82849997,107.40761,84.653036)"
             id="g10284"
             style="fill:#0000bc;fill-opacity:1;stroke:none;stroke-opacity:1">
            <g
               fill="#000000"
               fill-opacity="1"
               id="g10282"
               transform="matrix(0.352778,0,0,0.352778,-34.138793,9.116652)"
               style="fill:#0000bc;fill-opacity:1;stroke:none;stroke-opacity:1">
              <g
                 id="g10280"
                 transform="translate(0,7.4120002)"
                 style="fill:#0000bc;fill-opacity:1;stroke:none;stroke-opacity:1">
                <path
                   d="m 3.078125,-4 c 0.46875,0 1.640625,-0.03125 2.46875,-0.34375 1.3125,-0.5 1.421875,-1.5 1.421875,-1.796875 0,-0.765625 -0.65625,-1.453125 -1.78125,-1.453125 -1.8125,0 -4.40625,1.640625 -4.40625,4.703125 0,1.8125 1.03125,3.0625 2.59375,3.0625 2.34375,0 3.828125,-1.828125 3.828125,-2.046875 0,-0.109375 -0.109375,-0.1875 -0.171875,-0.1875 -0.0625,0 -0.078125,0.015625 -0.234375,0.171875 -1.09375,1.453125 -2.734375,1.71875 -3.390625,1.71875 -0.984375,0 -1.5,-0.78125 -1.5,-2.046875 0,-0.25 0,-0.671875 0.265625,-1.78125 z M 2.25,-4.34375 C 3,-6.984375 4.625,-7.25 5.1875,-7.25 c 0.75,0 1.265625,0.453125 1.265625,1.109375 0,1.796875 -2.75,1.796875 -3.46875,1.796875 z m 0,0"
                   id="path10278"
                   style="fill:#0000bc;fill-opacity:1;stroke:none;stroke-opacity:1" />
              </g>
            </g>
          </g>
        </g>
      </g>
      <g
         fill="#000000"
         fill-opacity="1"
         id="g25112"
         transform="matrix(0.352778,0,0,0.352778,71.168491,82.205408)"
         style="fill:#0000bc;fill-opacity:1">
        <g
           id="g25110"
           transform="translate(-0.69499999,12.271)"
           style="fill:#0000bc;fill-opacity:1">
          <path
             d="M 9.21875,-10.28125 C 9,-10.09375 8.375,-9.484375 8.375,-9.25 c 0,0.171875 0.140625,0.328125 0.328125,0.328125 0.140625,0 0.21875,-0.09375 0.34375,-0.265625 0.40625,-0.53125 0.875,-0.84375 1.265625,-1.078125 0.171875,-0.09375 0.296875,-0.15625 0.296875,-0.34375 0,-0.15625 -0.140625,-0.234375 -0.25,-0.328125 -0.46875,-0.328125 -0.59375,-0.78125 -0.640625,-1 -0.0625,-0.140625 -0.109375,-0.34375 -0.359375,-0.34375 -0.09375,0 -0.296875,0.07813 -0.296875,0.328125 0,0.15625 0.09375,0.578125 0.421875,1.03125 h -5.78125 c -0.296875,0 -0.59375,0 -0.59375,0.328125 0,0.3125 0.3125,0.3125 0.59375,0.3125 z m 0,0"
             id="path25108"
             style="fill:#0000bc;fill-opacity:1" />
        </g>
      </g>
    </g>
    <g
       id="g27633"
       transform="translate(-2.75963,2.4053366)">
      <g
         id="g10427"
         transform="translate(-2.1166667,-1.0583333)">
        <g
           id="g10327">
          <g
             fill="#000000"
             fill-opacity="1"
             id="g10276"
             transform="matrix(0.29227656,0,0,0.29227656,85.44521,93.763656)"
             style="fill:#d40000">
            <g
               id="g10274"
               transform="translate(9.5790005,4.697)"
               style="fill:#d40000">
              <path
                 d="M 2.515625,-3.828125 C 2.578125,-4.0625 2.6875,-4.46875 2.6875,-4.53125 c 0,-0.1875 -0.140625,-0.296875 -0.328125,-0.296875 -0.03125,0 -0.328125,0.015625 -0.421875,0.40625 l -1.578125,6.3125 c -0.03125,0.125 -0.03125,0.15625 -0.03125,0.171875 0,0.15625 0.125,0.296875 0.296875,0.296875 C 0.859375,2.359375 1,2.15625 1.015625,2.125 1.0625,2.03125 1.203125,1.46875 1.609375,-0.21875 1.96875,0.078125 2.453125,0.125 2.671875,0.125 3.4375,0.125 3.859375,-0.375 4.125,-0.671875 4.21875,-0.1875 4.625,0.125 5.109375,0.125 c 0.375,0 0.625,-0.25 0.796875,-0.609375 C 6.09375,-0.875 6.234375,-1.53125 6.234375,-1.5625 c 0,-0.109375 -0.09375,-0.109375 -0.125,-0.109375 -0.109375,0 -0.125,0.046875 -0.15625,0.203125 -0.1875,0.703125 -0.375,1.34375 -0.828125,1.34375 -0.296875,0 -0.328125,-0.28125 -0.328125,-0.5 0,-0.234375 0.125,-0.75 0.21875,-1.125 l 0.3125,-1.1875 C 5.359375,-3.09375 5.46875,-3.515625 5.5,-3.671875 c 0.0625,-0.25 0.171875,-0.671875 0.171875,-0.734375 0,-0.203125 -0.15625,-0.296875 -0.3125,-0.296875 -0.0625,0 -0.34375,0.015625 -0.4375,0.390625 l -0.5,2.03125 c -0.140625,0.546875 -0.25,1 -0.28125,1.109375 C 4.125,-1.109375 3.59375,-0.125 2.71875,-0.125 c -0.546875,0 -0.8125,-0.359375 -0.8125,-0.9375 0,-0.328125 0.078125,-0.625 0.15625,-0.9375 z m 0,0"
                 id="path10272"
                 style="fill:#d40000" />
            </g>
          </g>
          <g
             inkscape:label=""
             transform="matrix(0.82849997,0,0,0.82849997,114.28682,84.653036)"
             id="g7174"
             style="fill:#d10000;fill-opacity:1">
            <g
               fill="#000000"
               fill-opacity="1"
               id="g7166"
               transform="matrix(0.352778,0,0,0.352778,-34.138793,9.116652)"
               style="fill:#d10000;fill-opacity:1">
              <g
                 id="g7164"
                 transform="translate(0,7.4120002)"
                 style="fill:#d10000;fill-opacity:1">
                <path
                   d="m 3.078125,-4 c 0.46875,0 1.640625,-0.03125 2.46875,-0.34375 1.3125,-0.5 1.421875,-1.5 1.421875,-1.796875 0,-0.765625 -0.65625,-1.453125 -1.78125,-1.453125 -1.8125,0 -4.40625,1.640625 -4.40625,4.703125 0,1.8125 1.03125,3.0625 2.59375,3.0625 2.34375,0 3.828125,-1.828125 3.828125,-2.046875 0,-0.109375 -0.109375,-0.1875 -0.171875,-0.1875 -0.0625,0 -0.078125,0.015625 -0.234375,0.171875 -1.09375,1.453125 -2.734375,1.71875 -3.390625,1.71875 -0.984375,0 -1.5,-0.78125 -1.5,-2.046875 0,-0.25 0,-0.671875 0.265625,-1.78125 z M 2.25,-4.34375 C 3,-6.984375 4.625,-7.25 5.1875,-7.25 c 0.75,0 1.265625,0.453125 1.265625,1.109375 0,1.796875 -2.75,1.796875 -3.46875,1.796875 z m 0,0"
                   id="path7162"
                   style="fill:#d10000;fill-opacity:1" />
              </g>
            </g>
          </g>
        </g>
      </g>
      <g
         fill="#000000"
         fill-opacity="1"
         id="g27550"
         transform="matrix(0.352778,0,0,0.352778,83.577134,89.784339)"
         style="fill:#d10000;fill-opacity:1">
        <g
           id="g27548"
           transform="translate(-0.69499999,12.271)"
           style="fill:#d10000;fill-opacity:1">
          <path
             d="M 9.21875,-10.28125 C 9,-10.09375 8.375,-9.484375 8.375,-9.25 c 0,0.171875 0.140625,0.328125 0.328125,0.328125 0.140625,0 0.21875,-0.09375 0.34375,-0.265625 0.40625,-0.53125 0.875,-0.84375 1.265625,-1.078125 0.171875,-0.09375 0.296875,-0.15625 0.296875,-0.34375 0,-0.15625 -0.140625,-0.234375 -0.25,-0.328125 -0.46875,-0.328125 -0.59375,-0.78125 -0.640625,-1 -0.0625,-0.140625 -0.109375,-0.34375 -0.359375,-0.34375 -0.09375,0 -0.296875,0.07813 -0.296875,0.328125 0,0.15625 0.09375,0.578125 0.421875,1.03125 h -5.78125 c -0.296875,0 -0.59375,0 -0.59375,0.328125 0,0.3125 0.3125,0.3125 0.59375,0.3125 z m 0,0"
             id="path27546"
             style="fill:#d10000;fill-opacity:1" />
        </g>
      </g>
    </g>
    <g
       id="g17710"
       transform="translate(1.0583333)">
      <g
         id="g16996"
         transform="matrix(0.73448688,0,0,0.73448688,8.5097135,7.1094807)"
         style="fill:#000000;fill-opacity:1">
        <g
           clip-path="url(#clip-0)"
           id="g16988"
           transform="matrix(0.29227656,0,0,0.29227656,105.55355,108.58032)"
           style="fill:#000000;fill-opacity:1">
          <g
             fill="#000000"
             fill-opacity="1"
             id="g16986"
             style="fill:#000000;fill-opacity:1">
            <g
               id="g16984"
               transform="translate(0,10.944)"
               style="fill:#000000;fill-opacity:1">
              <path
                 d="m 8.15625,-7.03125 c -0.546875,0.109375 -0.75,0.515625 -0.75,0.84375 0,0.421875 0.328125,0.5625 0.5625,0.5625 0.515625,0 0.875,-0.453125 0.875,-0.921875 0,-0.71875 -0.8125,-1.046875 -1.546875,-1.046875 -1.046875,0 -1.625,1.03125 -1.78125,1.359375 -0.40625,-1.296875 -1.46875,-1.359375 -1.78125,-1.359375 -1.75,0 -2.6875,2.25 -2.6875,2.640625 0,0.0625 0.078125,0.15625 0.1875,0.15625 0.140625,0 0.171875,-0.109375 0.21875,-0.171875 C 2.03125,-6.890625 3.1875,-7.25 3.6875,-7.25 c 0.765625,0 0.921875,0.71875 0.921875,1.140625 0,0.375 -0.09375,0.765625 -0.296875,1.59375 L 3.71875,-2.15625 c -0.25,1.03125 -0.75,1.984375 -1.671875,1.984375 -0.078125,0 -0.515625,0 -0.875,-0.21875 0.625,-0.125 0.75,-0.640625 0.75,-0.84375 0,-0.34375 -0.25,-0.5625 -0.578125,-0.5625 -0.40625,0 -0.859375,0.375 -0.859375,0.921875 0,0.71875 0.8125,1.046875 1.546875,1.046875 0.828125,0 1.40625,-0.65625 1.78125,-1.359375 0.265625,1.015625 1.125,1.359375 1.765625,1.359375 1.75,0 2.6875,-2.25 2.6875,-2.640625 0,-0.078125 -0.0625,-0.15625 -0.171875,-0.15625 -0.15625,0 -0.171875,0.09375 -0.21875,0.234375 -0.46875,1.515625 -1.46875,2.21875 -2.25,2.21875 -0.59375,0 -0.921875,-0.453125 -0.921875,-1.15625 0,-0.375 0.0625,-0.65625 0.34375,-1.78125 l 0.59375,-2.34375 C 5.90625,-6.484375 6.484375,-7.25 7.28125,-7.25 c 0.03125,0 0.515625,0 0.875,0.21875 z m 0,0"
                 id="path16982"
                 style="fill:#000000;fill-opacity:1" />
            </g>
          </g>
        </g>
        <g
           fill="#000000"
           fill-opacity="1"
           id="g16994"
           transform="matrix(0.29227656,0,0,0.29227656,105.55355,108.58032)"
           style="fill:#000000;fill-opacity:1">
          <g
             id="g16992"
             transform="translate(9.5790005,4.697)"
             style="fill:#000000;fill-opacity:1">
            <path
               d="M 2.515625,-3.828125 C 2.578125,-4.0625 2.6875,-4.46875 2.6875,-4.53125 c 0,-0.1875 -0.140625,-0.296875 -0.328125,-0.296875 -0.03125,0 -0.328125,0.015625 -0.421875,0.40625 l -1.578125,6.3125 c -0.03125,0.125 -0.03125,0.15625 -0.03125,0.171875 0,0.15625 0.125,0.296875 0.296875,0.296875 C 0.859375,2.359375 1,2.15625 1.015625,2.125 1.0625,2.03125 1.203125,1.46875 1.609375,-0.21875 1.96875,0.078125 2.453125,0.125 2.671875,0.125 3.4375,0.125 3.859375,-0.375 4.125,-0.671875 4.21875,-0.1875 4.625,0.125 5.109375,0.125 c 0.375,0 0.625,-0.25 0.796875,-0.609375 C 6.09375,-0.875 6.234375,-1.53125 6.234375,-1.5625 c 0,-0.109375 -0.09375,-0.109375 -0.125,-0.109375 -0.109375,0 -0.125,0.046875 -0.15625,0.203125 -0.1875,0.703125 -0.375,1.34375 -0.828125,1.34375 -0.296875,0 -0.328125,-0.28125 -0.328125,-0.5 0,-0.234375 0.125,-0.75 0.21875,-1.125 l 0.3125,-1.1875 C 5.359375,-3.09375 5.46875,-3.515625 5.5,-3.671875 c 0.0625,-0.25 0.171875,-0.671875 0.171875,-0.734375 0,-0.203125 -0.15625,-0.296875 -0.3125,-0.296875 -0.0625,0 -0.34375,0.015625 -0.4375,0.390625 l -0.5,2.03125 c -0.140625,0.546875 -0.25,1 -0.28125,1.109375 C 4.125,-1.109375 3.59375,-0.125 2.71875,-0.125 c -0.546875,0 -0.8125,-0.359375 -0.8125,-0.9375 0,-0.328125 0.078125,-0.625 0.15625,-0.9375 z m 0,0"
               id="path16990"
               style="fill:#000000;fill-opacity:1" />
          </g>
        </g>
      </g>
      <g
         inkscape:label=""
         transform="translate(84.129239,86.584113)"
         id="g17220">
        <g
           fill="#000000"
           fill-opacity="1"
           id="g17218"
           transform="matrix(0.352778,0,0,0.352778,-0.15434,-0.00476257)">
          <g
             id="g17216"
             transform="translate(0,7.5760002)">
            <path
               d="m 5.625,-7.453125 c 0,0 0,-0.109375 -0.140625,-0.109375 -0.15625,0 -1.203125,0.09375 -1.390625,0.109375 -0.078125,0.015625 -0.140625,0.0625 -0.140625,0.21875 0,0.125 0.09375,0.125 0.25,0.125 0.53125,0 0.546875,0.078125 0.546875,0.1875 L 4.71875,-6.703125 4.0625,-4.125 c -0.1875,-0.40625 -0.5,-0.703125 -1,-0.703125 -1.28125,0 -2.625,1.609375 -2.625,3.203125 0,1.03125 0.59375,1.75 1.453125,1.75 0.21875,0 0.765625,-0.046875 1.40625,-0.828125 0.09375,0.46875 0.484375,0.828125 1,0.828125 0.375,0 0.625,-0.25 0.8125,-0.609375 C 5.296875,-0.875 5.4375,-1.53125 5.4375,-1.5625 5.4375,-1.671875 5.328125,-1.671875 5.296875,-1.671875 5.1875,-1.671875 5.1875,-1.625 5.140625,-1.46875 4.96875,-0.765625 4.765625,-0.125 4.3125,-0.125 c -0.28125,0 -0.328125,-0.28125 -0.328125,-0.5 0,-0.265625 0.03125,-0.328125 0.078125,-0.515625 z m -2.265625,6.15625 c -0.0625,0.203125 -0.0625,0.21875 -0.21875,0.40625 C 2.65625,-0.296875 2.21875,-0.125 1.90625,-0.125 c -0.546875,0 -0.703125,-0.59375 -0.703125,-1.015625 0,-0.546875 0.359375,-1.890625 0.609375,-2.390625 0.34375,-0.640625 0.828125,-1.046875 1.265625,-1.046875 0.703125,0 0.859375,0.890625 0.859375,0.953125 0,0.0625 -0.015625,0.140625 -0.03125,0.1875 z m 0,0"
               id="path17214" />
          </g>
        </g>
      </g>
    </g>
    <g
       inkscape:label=""
       transform="matrix(1.4402783,0,0,1.4402783,79.338228,75.493253)"
       id="g605"
       style="fill:#00a7bc;fill-opacity:1">
      <g
         fill="#000000"
         fill-opacity="1"
         id="g603"
         transform="matrix(0.352778,0,0,0.352778,-0.214974,-6.6143e-4)"
         style="fill:#00a7bc;fill-opacity:1">
        <g
           id="g601"
           transform="translate(0,7.4549999)"
           style="fill:#00a7bc;fill-opacity:1">
          <path
             d="M 6.84375,-6.203125 C 7.390625,-7.0625 7.84375,-7.09375 8.25,-7.109375 8.375,-7.125 8.390625,-7.3125 8.390625,-7.3125 c 0,-0.09375 -0.0625,-0.140625 -0.140625,-0.140625 -0.28125,0 -0.609375,0.03125 -0.90625,0.03125 -0.359375,0 -0.71875,-0.03125 -1.078125,-0.03125 -0.0625,0 -0.203125,0 -0.203125,0.21875 0,0.109375 0.09375,0.125 0.171875,0.125 0.296875,0.015625 0.5,0.125 0.5,0.359375 0,0.15625 -0.15625,0.40625 -0.15625,0.40625 l -3.34375,5.328125 -0.75,-5.765625 c 0,-0.1875 0.25,-0.328125 0.75,-0.328125 0.15625,0 0.28125,0 0.28125,-0.21875 0,-0.09375 -0.09375,-0.125 -0.15625,-0.125 -0.4375,0 -0.90625,0.03125 -1.359375,0.03125 -0.1875,0 -0.390625,0 -0.59375,0 -0.203125,0 -0.40625,-0.03125 -0.59375,-0.03125 -0.078125,0 -0.203125,0 -0.203125,0.21875 0,0.125 0.09375,0.125 0.28125,0.125 0.609375,0 0.609375,0.09375 0.640625,0.375 l 0.875,6.71875 c 0.03125,0.21875 0.0625,0.25 0.21875,0.25 0.171875,0 0.203125,-0.046875 0.296875,-0.1875 z m 0,0"
             id="path599"
             style="fill:#00a7bc;fill-opacity:1" />
        </g>
      </g>
    </g>
  </g>
</svg>
