<?xml version="1.0" encoding="UTF-8" standalone="no"?>
<!-- Created with Inkscape (http://www.inkscape.org/) -->

<svg
   width="65.550781mm"
   height="76.491905mm"
   viewBox="0 0 65.550781 76.491893"
   version="1.1"
   id="svg13967"
   sodipodi:docname="foliation.svg"
   inkscape:version="1.2 (dc2aeda, 2022-05-15)"
   xmlns:inkscape="http://www.inkscape.org/namespaces/inkscape"
   xmlns:sodipodi="http://sodipodi.sourceforge.net/DTD/sodipodi-0.dtd"
   xmlns:xlink="http://www.w3.org/1999/xlink"
   xmlns="http://www.w3.org/2000/svg"
   xmlns:svg="http://www.w3.org/2000/svg">
  <sodipodi:namedview
     id="namedview13969"
     pagecolor="#ffffff"
     bordercolor="#666666"
     borderopacity="1.0"
     inkscape:showpageshadow="2"
     inkscape:pageopacity="0.0"
     inkscape:pagecheckerboard="0"
     inkscape:deskcolor="#d1d1d1"
     inkscape:document-units="mm"
     showgrid="true"
     inkscape:zoom="2.7092576"
     inkscape:cx="110.36234"
     inkscape:cy="166.09716"
     inkscape:window-width="1512"
     inkscape:window-height="868"
     inkscape:window-x="0"
     inkscape:window-y="38"
     inkscape:window-maximized="0"
     inkscape:current-layer="g8284">
    <inkscape:grid
       type="xygrid"
       id="grid14471"
       originx="-60.258854"
       originy="-102.79083" />
  </sodipodi:namedview>
  <defs
     id="defs13964">
    <inkscape:path-effect
       effect="bend_path"
       id="path-effect19828"
       is_visible="true"
       lpeversion="1"
       bendpath="m 66.145833,174.625 c 10.583334,0 10.583334,0 10.583334,0"
       prop_scale="0.98986304"
       scale_y_rel="false"
       vertical="false"
       hide_knot="false" />
    <inkscape:path-effect
       effect="bend_path"
       id="path-effect19794"
       is_visible="true"
       lpeversion="1"
       bendpath="m 66.145833,174.625 c 10.583334,0 10.583334,0 10.583334,0"
       prop_scale="0.98986304"
       scale_y_rel="false"
       vertical="false"
       hide_knot="false" />
    <marker
       style="overflow:visible"
       id="Arrow2"
       refX="0"
       refY="0"
       orient="auto-start-reverse"
       inkscape:stockid="Arrow2"
       markerWidth="7.6999998"
       markerHeight="5.5999999"
       viewBox="0 0 7.7 5.6"
       inkscape:isstock="true"
       inkscape:collect="always"
       preserveAspectRatio="xMidYMid">
      <path
         transform="scale(0.7)"
         d="M -2,-4 9,0 -2,4 c 2,-2.33 2,-5.66 0,-8 z"
         style="fill:context-stroke;fill-rule:evenodd;stroke:none"
         id="arrow2L" />
    </marker>
    <inkscape:path-effect
       effect="bend_path"
       id="path-effect19610"
       is_visible="true"
       lpeversion="1"
       bendpath="m 17.501085,46.202865 c 2.800174,0 2.800174,0 2.800174,0"
       prop_scale="1"
       scale_y_rel="false"
       vertical="false"
       hide_knot="false" />
    <inkscape:path-effect
       effect="bend_path"
       id="path-effect19604"
       is_visible="true"
       lpeversion="1"
       bendpath="m 66.145833,174.625 c 10.583334,0 10.583334,0 10.583334,0"
       prop_scale="0.98986304"
       scale_y_rel="false"
       vertical="false"
       hide_knot="false" />
    <inkscape:path-effect
       effect="bend_path"
       id="path-effect19526"
       is_visible="true"
       lpeversion="1"
       bendpath="m 17.501085,46.202865 c 3.500217,0 3.500217,0 3.500217,0"
       prop_scale="1"
       scale_y_rel="false"
       vertical="false"
       hide_knot="false" />
    <inkscape:path-effect
       effect="bend_path"
       id="path-effect19520"
       is_visible="true"
       lpeversion="1"
       bendpath="m 66.145833,174.625 c 13.229167,0 13.229167,0 13.229167,0"
       prop_scale="1"
       scale_y_rel="false"
       vertical="false"
       hide_knot="false" />
    <inkscape:perspective
       sodipodi:type="inkscape:persp3d"
       inkscape:vp_x="0 : -72.008079 : 1"
       inkscape:vp_y="0 : 999.99976 : 0"
       inkscape:vp_z="210 : -72.008079 : 1"
       inkscape:persp3d-origin="105 : -121.50808 : 1"
       id="perspective14587" />
    <clipPath
       id="clip-0">
      <path
         clip-rule="nonzero"
         d="m 8,2 h 5 V 9.996094 H 8 Z m 0,0"
         id="path12" />
    </clipPath>
    <clipPath
       id="clipPath20446">
      <path
         clip-rule="nonzero"
         d="m 8,2 h 5 V 9.996094 H 8 Z m 0,0"
         id="path20444" />
    </clipPath>
    <clipPath
       id="clipPath20615">
      <path
         clip-rule="nonzero"
         d="m 8,2 h 5 V 9.996094 H 8 Z m 0,0"
         id="path20613" />
    </clipPath>
    <clipPath
       id="clipPath20804">
      <path
         clip-rule="nonzero"
         d="M 0,3 H 9 V 14.292969 H 0 Z m 0,0"
         id="path20802" />
    </clipPath>
    <clipPath
       id="clipPath21011">
      <path
         clip-rule="nonzero"
         d="M 0,3 H 9 V 14.292969 H 0 Z m 0,0"
         id="path21009" />
    </clipPath>
    <clipPath
       id="clipPath21459">
      <path
         clip-rule="nonzero"
         d="m 8,7 h 5 v 7.851562 H 8 Z m 0,0"
         id="path15" />
    </clipPath>
    <clipPath
       id="clipPath22493">
      <path
         clip-rule="nonzero"
         d="M 0,0 H 6.804688 V 7.410156 H 0 Z m 0,0"
         id="path8" />
    </clipPath>
    <clipPath
       id="clipPath23532">
      <path
         clip-rule="nonzero"
         d="M 0,0 H 6.804688 V 7.410156 H 0 Z m 0,0"
         id="path23530" />
    </clipPath>
    <clipPath
       id="clipPath24589">
      <path
         clip-rule="nonzero"
         d="M 0,0 H 6.804688 V 7.410156 H 0 Z m 0,0"
         id="path24587" />
    </clipPath>
    <clipPath
       id="clipPath30118">
      <path
         clip-rule="nonzero"
         d="M 0,0 H 6.804688 V 7.410156 H 0 Z m 0,0"
         id="path30116" />
    </clipPath>
    <clipPath
       id="clipPath34577">
      <path
         clip-rule="nonzero"
         d="M 0,0 H 6.804688 V 7.410156 H 0 Z m 0,0"
         id="path34575" />
    </clipPath>
    <clipPath
       id="clipPath34989">
      <path
         clip-rule="nonzero"
         d="m 0,3 h 7 v 7.945312 H 0 Z m 0,0"
         id="path34987" />
    </clipPath>
    <clipPath
       id="clip-1">
      <path
         clip-rule="nonzero"
         d="m 7,0 h 6.878906 V 8 H 7 Z m 0,0"
         id="path34991" />
    </clipPath>
    <clipPath
       id="clipPath35349">
      <path
         clip-rule="nonzero"
         d="m 0,3 h 7 v 7.945312 H 0 Z m 0,0"
         id="path35347" />
    </clipPath>
    <clipPath
       id="clipPath35353">
      <path
         clip-rule="nonzero"
         d="m 14,3 h 6.683594 v 7.945312 H 14 Z m 0,0"
         id="path35351" />
    </clipPath>
    <clipPath
       id="clipPath35750">
      <path
         clip-rule="nonzero"
         d="M 0,0 H 13.613281 V 7.410156 H 0 Z m 0,0"
         id="path35748" />
    </clipPath>
    <clipPath
       id="clipPath36154">
      <path
         clip-rule="nonzero"
         d="M 0,0 H 13.613281 V 7.410156 H 0 Z m 0,0"
         id="path36152" />
    </clipPath>
    <clipPath
       id="clipPath36579">
      <path
         clip-rule="nonzero"
         d="m 0,3 h 7 v 7.945312 H 0 Z m 0,0"
         id="path36577" />
    </clipPath>
    <clipPath
       id="clipPath44907">
      <path
         clip-rule="nonzero"
         d="m 8,8 h 4 v 6.851562 H 8 Z m 0,0"
         id="path44905" />
    </clipPath>
    <clipPath
       id="clipPath45262">
      <path
         clip-rule="nonzero"
         d="M 0,0 H 6 V 10.589844 H 0 Z m 0,0"
         id="path45260" />
    </clipPath>
    <clipPath
       id="clipPath45625">
      <path
         clip-rule="nonzero"
         d="M 0,0 H 4 V 6.710938 H 0 Z m 0,0"
         id="path45623" />
    </clipPath>
    <clipPath
       id="clipPath46379">
      <path
         clip-rule="nonzero"
         d="M 0,0 H 7.894531 V 11.097656 H 0 Z m 0,0"
         id="path46377" />
    </clipPath>
    <clipPath
       id="clipPath46778">
      <path
         clip-rule="nonzero"
         d="M 0,0 H 5.953125 V 8 H 0 Z m 0,0"
         id="path46776" />
    </clipPath>
    <clipPath
       id="clipPath47191">
      <path
         clip-rule="nonzero"
         d="M 0,0 H 5.953125 V 8 H 0 Z m 0,0"
         id="path47189" />
    </clipPath>
    <clipPath
       id="clipPath1765">
      <path
         clip-rule="nonzero"
         d="m 6,5 h 6 v 8.171875 H 6 Z m 0,0"
         id="path1763" />
    </clipPath>
    <clipPath
       id="clipPath2202">
      <path
         clip-rule="nonzero"
         d="m 7,5 h 4 v 8.171875 H 7 Z m 0,0"
         id="path2200" />
    </clipPath>
    <clipPath
       id="clipPath2659">
      <path
         clip-rule="nonzero"
         d="M 4,2 H 7 V 7.621094 H 4 Z m 0,0"
         id="path2657" />
    </clipPath>
    <clipPath
       id="clipPath3136">
      <path
         clip-rule="nonzero"
         d="M 0,0 H 5 V 7.03125 H 0 Z m 0,0"
         id="path3134" />
    </clipPath>
    <clipPath
       id="clipPath4106">
      <path
         clip-rule="nonzero"
         d="M 0,0 H 5.953125 V 8 H 0 Z m 0,0"
         id="path4104" />
    </clipPath>
    <clipPath
       id="clipPath6385">
      <path
         clip-rule="nonzero"
         d="M 0,0 H 5.953125 V 8 H 0 Z m 0,0"
         id="path6383" />
    </clipPath>
    <clipPath
       id="clipPath7672">
      <path
         clip-rule="nonzero"
         d="M 0,0 H 5.953125 V 8 H 0 Z m 0,0"
         id="path7670" />
    </clipPath>
  </defs>
  <g
     inkscape:label="Calque 1"
     inkscape:groupmode="layer"
     id="layer1"
     transform="translate(-60.2588,-102.79041)">
    <g
       id="g41026">
      <rect
         style="fill:none;stroke:#000000;stroke-width:0.264999;stroke-opacity:1"
         id="rect14527"
         width="39.6875"
         height="39.687496"
         x="66.145836"
         y="134.9375" />
      <use
         x="0"
         y="0"
         xlink:href="#rect14527"
         id="use14966"
         transform="translate(19.843747,-11.90625)" />
      <path
         style="fill:none;stroke:#000000;stroke-width:0.264583px;stroke-linecap:butt;stroke-linejoin:miter;stroke-opacity:1"
         d="m 66.145832,134.9375 c 19.84375,-11.90625 19.84375,-11.90625 19.84375,-11.90625"
         id="path15694" />
      <path
         style="fill:none;stroke:#000000;stroke-width:0.264583px;stroke-linecap:butt;stroke-linejoin:miter;stroke-opacity:1"
         d="m 105.83333,134.9375 c 19.84375,-11.90625 19.84375,-11.90625 19.84375,-11.90625"
         id="path15696" />
      <path
         style="fill:none;stroke:#000000;stroke-width:0.264583px;stroke-linecap:butt;stroke-linejoin:miter;stroke-opacity:1"
         d="m 105.83333,174.625 c 19.84375,-11.90625 19.84375,-11.90625 19.84375,-11.90625"
         id="path15698" />
      <path
         style="fill:none;stroke:#000000;stroke-width:0.264583px;stroke-linecap:butt;stroke-linejoin:miter;stroke-opacity:1"
         d="m 66.145832,174.625 c 19.84375,-11.90625 19.84375,-11.90625 19.84375,-11.90625"
         id="path15700" />
    </g>
    <path
       style="fill:none;stroke:#0000dd;stroke-width:0.4;stroke-linecap:round;stroke-linejoin:miter;stroke-dasharray:none;stroke-opacity:1;marker-end:url(#Arrow2)"
       d="m 65.956466,180.08136 c 3.071439,-3.16559 6.142879,-6.33118 9.214319,-9.49676 l 0,0 c 0.431547,-0.44478 0.863094,-0.88955 1.294641,-1.33433 l 0,0 c 0.0264,-0.0272 0.0528,-0.0544 0.0792,-0.0816"
       id="path19584"
       sodipodi:nodetypes="cc"
       inkscape:transform-center-x="0.023703572"
       inkscape:transform-center-y="-0.069342901"
       inkscape:path-effect="#path-effect19604"
       inkscape:original-d="M 20.625665,25.870478 26.217,14.846011"
       class="UnoptimicedTransforms"
       transform="matrix(0.41619144,0.71673676,-0.4277656,0.69734383,115.91356,1.7339814)" />
    <path
       style="fill:none;stroke:#0000dd;stroke-width:0.4;stroke-linecap:round;stroke-linejoin:miter;stroke-dasharray:none;stroke-opacity:1;marker-end:url(#Arrow2)"
       d="m 65.956466,180.08136 c 3.071439,-3.16559 6.142879,-6.33118 9.214319,-9.49676 l 0,0 c 0.431547,-0.44478 0.863094,-0.88955 1.294641,-1.33433 l 0,0 c 0.0264,-0.0272 0.0528,-0.0544 0.0792,-0.0816"
       id="path19790"
       sodipodi:nodetypes="cc"
       inkscape:transform-center-x="-3.9910053"
       inkscape:transform-center-y="-2.3977264"
       inkscape:path-effect="#path-effect19794"
       inkscape:original-d="M 20.625665,25.870478 26.217,14.846011"
       class="UnoptimicedTransforms"
       transform="matrix(0.72666755,0.39859901,-0.00592002,0.81806893,19.462318,0.91281758)" />
    <path
       style="fill:#ff0000;fill-opacity:1;stroke:#ff0000;stroke-width:0.4;stroke-linecap:round;stroke-linejoin:miter;stroke-dasharray:none;stroke-opacity:1;marker-end:url(#Arrow2)"
       d="m 65.956466,180.08136 c 3.071439,-3.16559 6.142879,-6.33118 9.214319,-9.49676 l 0,0 c 0.431547,-0.44478 0.863094,-0.88955 1.294641,-1.33433 l 0,0 c 0.0264,-0.0272 0.0528,-0.0544 0.0792,-0.0816"
       id="path19824"
       sodipodi:nodetypes="cc"
       inkscape:transform-center-x="0.024107176"
       inkscape:transform-center-y="-4.6558213"
       inkscape:path-effect="#path-effect19828"
       inkscape:original-d="M 20.625665,25.870478 26.217,14.846011"
       class="UnoptimicedTransforms"
       transform="matrix(0.713732,-0.42132354,0.70039523,0.42275092,-106.97143,126.10706)" />
    <g
       inkscape:label=""
       transform="matrix(0.70875764,0,0,0.70875764,72.104077,176.73803)"
       id="g20334"
       style="fill:#0000dd;fill-opacity:1;stroke:none;stroke-opacity:1">
      <g
         fill="#000000"
         fill-opacity="1"
         id="g19"
         transform="matrix(0.352778,0,0,0.352778,-0.275608,0.0637645)"
         style="fill:#0000dd;fill-opacity:1;stroke:none;stroke-opacity:1">
        <g
           id="use17"
           transform="translate(0,7.4130001)"
           style="fill:#0000dd;fill-opacity:1;stroke:none;stroke-opacity:1">
          <path
             d="m 3.078125,-4 c 0.46875,0 1.640625,-0.03125 2.46875,-0.34375 1.3125,-0.5 1.421875,-1.5 1.421875,-1.796875 0,-0.765625 -0.65625,-1.453125 -1.78125,-1.453125 -1.8125,0 -4.40625,1.640625 -4.40625,4.703125 0,1.8125 1.03125,3.0625 2.59375,3.0625 2.34375,0 3.828125,-1.828125 3.828125,-2.046875 0,-0.109375 -0.109375,-0.1875 -0.171875,-0.1875 -0.0625,0 -0.078125,0.015625 -0.234375,0.171875 -1.09375,1.453125 -2.734375,1.71875 -3.390625,1.71875 -0.984375,0 -1.5,-0.78125 -1.5,-2.046875 0,-0.25 0,-0.671875 0.265625,-1.78125 z M 2.25,-4.34375 C 3,-6.984375 4.625,-7.25 5.1875,-7.25 c 0.75,0 1.265625,0.453125 1.265625,1.109375 0,1.796875 -2.75,1.796875 -3.46875,1.796875 z m 0,0"
             id="path31"
             style="fill:#0000dd;fill-opacity:1;stroke:none;stroke-opacity:1" />
        </g>
      </g>
      <g
         clip-path="url(#clip-0)"
         id="g25"
         transform="matrix(0.352778,0,0,0.352778,-0.275608,0.0637645)"
         style="fill:#0000dd;fill-opacity:1;stroke:none;stroke-opacity:1">
        <g
           fill="#000000"
           fill-opacity="1"
           id="g23"
           style="fill:#0000dd;fill-opacity:1;stroke:none;stroke-opacity:1">
          <g
             id="use21"
             transform="translate(7.8130002,9.9949999)"
             style="fill:#0000dd;fill-opacity:1;stroke:none;stroke-opacity:1">
            <path
               d="m 3.203125,-6.984375 c 0,-0.25 0,-0.28125 -0.25,-0.28125 C 2.28125,-6.5625 1.3125,-6.5625 0.96875,-6.5625 v 0.328125 c 0.21875,0 0.859375,0 1.4375,-0.28125 v 5.65625 c 0,0.390625 -0.046875,0.515625 -1.015625,0.515625 H 1.03125 V 0 c 0.390625,-0.03125 1.328125,-0.03125 1.765625,-0.03125 0.4375,0 1.390625,0 1.765625,0.03125 V -0.34375 H 4.21875 c -0.984375,0 -1.015625,-0.109375 -1.015625,-0.515625 z m 0,0"
               id="path35"
               style="fill:#0000dd;fill-opacity:1;stroke:none;stroke-opacity:1" />
          </g>
        </g>
      </g>
    </g>
    <g
       inkscape:label=""
       transform="translate(47.624999,124.35417)"
       id="g21536">
      <g
         clip-path="url(#clip-0)"
         id="g32"
         transform="matrix(0.352778,0,0,0.352778,-0.276999,0.003616)" />
      <g
         id="g42805"
         transform="translate(-4.6823414,-4.0941247)">
        <g
           id="g42770"
           transform="translate(-47.624998,-124.35417)">
          <g
             inkscape:label=""
             transform="matrix(0.70875764,0,0,0.70875764,77.480085,169.43488)"
             id="g20491"
             style="fill:#0000dd;fill-opacity:1;stroke:none;stroke-opacity:1">
            <g
               fill="#000000"
               fill-opacity="1"
               id="g20481"
               transform="matrix(0.352778,0,0,0.352778,-0.275608,0.0637645)"
               style="fill:#0000dd;fill-opacity:1;stroke:none;stroke-opacity:1">
              <g
                 id="g20479"
                 transform="translate(0,7.4130001)"
                 style="fill:#0000dd;fill-opacity:1;stroke:none;stroke-opacity:1">
                <path
                   d="m 3.078125,-4 c 0.46875,0 1.640625,-0.03125 2.46875,-0.34375 1.3125,-0.5 1.421875,-1.5 1.421875,-1.796875 0,-0.765625 -0.65625,-1.453125 -1.78125,-1.453125 -1.8125,0 -4.40625,1.640625 -4.40625,4.703125 0,1.8125 1.03125,3.0625 2.59375,3.0625 2.34375,0 3.828125,-1.828125 3.828125,-2.046875 0,-0.109375 -0.109375,-0.1875 -0.171875,-0.1875 -0.0625,0 -0.078125,0.015625 -0.234375,0.171875 -1.09375,1.453125 -2.734375,1.71875 -3.390625,1.71875 -0.984375,0 -1.5,-0.78125 -1.5,-2.046875 0,-0.25 0,-0.671875 0.265625,-1.78125 z M 2.25,-4.34375 C 3,-6.984375 4.625,-7.25 5.1875,-7.25 c 0.75,0 1.265625,0.453125 1.265625,1.109375 0,1.796875 -2.75,1.796875 -3.46875,1.796875 z m 0,0"
                   id="path20477"
                   style="fill:#0000dd;fill-opacity:1;stroke:none;stroke-opacity:1" />
              </g>
            </g>
            <g
               clip-path="url(#clip-0)"
               id="g20489"
               transform="matrix(0.352778,0,0,0.352778,-0.275608,0.0637645)"
               style="fill:#0000dd;fill-opacity:1;stroke:none;stroke-opacity:1">
              <g
                 fill="#000000"
                 fill-opacity="1"
                 id="g20487"
                 style="fill:#0000dd;fill-opacity:1;stroke:none;stroke-opacity:1">
                <g
                   id="g20485"
                   transform="translate(7.8130002,9.9949999)"
                   style="fill:#0000dd;fill-opacity:1;stroke:none;stroke-opacity:1">
                  <path
                     d="m 1.390625,-0.84375 1.15625,-1.125 c 1.703125,-1.5 2.34375,-2.09375 2.34375,-3.171875 0,-1.25 -0.96875,-2.125 -2.3125,-2.125 -1.21875,0 -2.03125,1 -2.03125,1.96875 0,0.625 0.546875,0.625 0.578125,0.625 0.1875,0 0.5625,-0.140625 0.5625,-0.578125 0,-0.296875 -0.1875,-0.578125 -0.578125,-0.578125 -0.078125,0 -0.109375,0 -0.140625,0.015625 0.25,-0.703125 0.84375,-1.109375 1.46875,-1.109375 1,0 1.46875,0.875 1.46875,1.78125 0,0.859375 -0.546875,1.734375 -1.140625,2.40625 l -2.09375,2.328125 c -0.125,0.125 -0.125,0.140625 -0.125,0.40625 H 4.59375 L 4.890625,-1.890625 H 4.625 C 4.5625,-1.578125 4.5,-1.09375 4.390625,-0.921875 4.3125,-0.84375 3.59375,-0.84375 3.34375,-0.84375 Z m 0,0"
                     id="path20483"
                     style="fill:#0000dd;fill-opacity:1;stroke:none;stroke-opacity:1" />
                </g>
              </g>
            </g>
          </g>
        </g>
        <g
           fill="#000000"
           fill-opacity="1"
           id="g25112"
           transform="matrix(0.352778,0,0,0.352778,29.426208,43.880836)"
           style="fill:#0000dd;fill-opacity:1;stroke:none;stroke-opacity:1">
          <g
             id="g25110"
             transform="translate(-0.69499999,12.271)"
             style="fill:#0000dd;fill-opacity:1;stroke:none;stroke-opacity:1">
            <path
               d="M 9.21875,-10.28125 C 9,-10.09375 8.375,-9.484375 8.375,-9.25 c 0,0.171875 0.140625,0.328125 0.328125,0.328125 0.140625,0 0.21875,-0.09375 0.34375,-0.265625 0.40625,-0.53125 0.875,-0.84375 1.265625,-1.078125 0.171875,-0.09375 0.296875,-0.15625 0.296875,-0.34375 0,-0.15625 -0.140625,-0.234375 -0.25,-0.328125 -0.46875,-0.328125 -0.59375,-0.78125 -0.640625,-1 -0.0625,-0.140625 -0.109375,-0.34375 -0.359375,-0.34375 -0.09375,0 -0.296875,0.07813 -0.296875,0.328125 0,0.15625 0.09375,0.578125 0.421875,1.03125 h -5.78125 c -0.296875,0 -0.59375,0 -0.59375,0.328125 0,0.3125 0.3125,0.3125 0.59375,0.3125 z m 0,0"
               id="path25108"
               style="fill:#0000dd;fill-opacity:1;stroke:none;stroke-opacity:1" />
          </g>
        </g>
      </g>
      <g
         fill="#000000"
         fill-opacity="1"
         id="g25118"
         transform="matrix(0.352778,0,0,0.352778,23.790225,50.996264)"
         style="fill:#0000dd;fill-opacity:1;stroke:none;stroke-opacity:1">
        <g
           id="g25116"
           transform="translate(-0.69499999,12.271)"
           style="fill:#0000dd;fill-opacity:1;stroke:none;stroke-opacity:1">
          <path
             d="M 9.21875,-10.28125 C 9,-10.09375 8.375,-9.484375 8.375,-9.25 c 0,0.171875 0.140625,0.328125 0.328125,0.328125 0.140625,0 0.21875,-0.09375 0.34375,-0.265625 0.40625,-0.53125 0.875,-0.84375 1.265625,-1.078125 0.171875,-0.09375 0.296875,-0.15625 0.296875,-0.34375 0,-0.15625 -0.140625,-0.234375 -0.25,-0.328125 -0.46875,-0.328125 -0.59375,-0.78125 -0.640625,-1 -0.0625,-0.140625 -0.109375,-0.34375 -0.359375,-0.34375 -0.09375,0 -0.296875,0.07813 -0.296875,0.328125 0,0.15625 0.09375,0.578125 0.421875,1.03125 h -5.78125 c -0.296875,0 -0.59375,0 -0.59375,0.328125 0,0.3125 0.3125,0.3125 0.59375,0.3125 z m 0,0"
             id="path25114"
             style="fill:#0000dd;fill-opacity:1;stroke:none;stroke-opacity:1" />
        </g>
      </g>
      <path
         style="fill:#0000ff;fill-opacity:0.376271;stroke-width:0.678418"
         d="m 107.9232,363.57868 c 8.81941,-5.38308 13.34802,-7.90824 13.56767,-7.56536 0.18132,0.28307 0.33277,0.96902 0.33655,1.52434 0.0121,1.7711 0.84958,1.09381 2.36532,-1.9128 l 1.47333,-2.92249 20.5569,-12.33485 20.5569,-12.33485 h 36.76157 36.76156 v 21.76414 21.76414 h -54.51462 -54.51463 l -2.93265,-1.79498 c -1.61296,-0.98724 -3.03921,-1.79498 -3.16945,-1.79498 -0.13025,0 -0.10421,0.70677 0.0578,1.5706 l 0.29465,1.57061 -10.93201,0.002 c -6.01261,0.001 -12.95136,0.12423 -15.419462,0.27324 l -4.487451,0.27093 z"
         id="path42864"
         transform="matrix(0.26458333,0,0,0.26458333,-5.61067,-48.278423)" />
      <path
         style="fill:#0000ff;fill-opacity:0.376271;stroke-width:0.678418"
         d="m 242.09798,349.55152 v -21.51885 h 35.75003 c 19.66251,0 35.66589,0.0817 35.56305,0.18161 -0.10284,0.0999 -16.19035,9.78337 -35.75003,21.51886 l -35.56305,21.33724 z"
         id="path43016"
         transform="matrix(0.26458333,0,0,0.26458333,-5.61067,-48.278423)" />
    </g>
    <g
       inkscape:label=""
       transform="translate(70.2711,139.897)"
       id="g22575">
      <g
         clip-path="url(#clip-0)"
         id="g17"
         transform="matrix(0.352778,0,0,0.352778,-0.28112,0.00348362)">
        <g
           fill="#000000"
           fill-opacity="1"
           id="g15">
          <g
             id="use13"
             transform="translate(0,7.4120002)">
            <path
               d="m 5.015625,-3.90625 c 0.25,0 0.546875,0 0.546875,-0.28125 0,-0.21875 -0.171875,-0.21875 -0.484375,-0.21875 h -2.78125 c 0.421875,-1.5625 1.4375,-2.515625 2.96875,-2.515625 h 0.5 c 0.296875,0 0.546875,0 0.546875,-0.28125 0,-0.21875 -0.1875,-0.21875 -0.5,-0.21875 H 5.234375 c -2.125,0 -4.4375,1.6875 -4.4375,4.390625 0,1.90625 1.28125,3.203125 2.984375,3.203125 1.109375,0 2.1875,-0.6875 2.1875,-0.859375 0,-0.109375 -0.046875,-0.203125 -0.15625,-0.203125 -0.046875,0 -0.078125,0.015625 -0.171875,0.078125 C 5,-0.375 4.359375,-0.171875 3.84375,-0.171875 c -0.921875,0 -1.875,-0.609375 -1.875,-2.265625 0,-0.328125 0.03125,-0.78125 0.1875,-1.46875 z m 0,0"
               id="path23" />
          </g>
        </g>
      </g>
    </g>
    <g
       inkscape:label=""
       transform="translate(70.2711,139.897)"
       id="g23623">
      <g
         clip-path="url(#clip-0)"
         id="g23621"
         transform="matrix(0.352778,0,0,0.352778,-0.28112,0.00348362)">
        <g
           fill="#000000"
           fill-opacity="1"
           id="g23619">
          <g
             id="g23617"
             transform="translate(0,7.4120002)">
            <path
               d="m 5.015625,-3.90625 c 0.25,0 0.546875,0 0.546875,-0.28125 0,-0.21875 -0.171875,-0.21875 -0.484375,-0.21875 h -2.78125 c 0.421875,-1.5625 1.4375,-2.515625 2.96875,-2.515625 h 0.5 c 0.296875,0 0.546875,0 0.546875,-0.28125 0,-0.21875 -0.1875,-0.21875 -0.5,-0.21875 H 5.234375 c -2.125,0 -4.4375,1.6875 -4.4375,4.390625 0,1.90625 1.28125,3.203125 2.984375,3.203125 1.109375,0 2.1875,-0.6875 2.1875,-0.859375 0,-0.109375 -0.046875,-0.203125 -0.15625,-0.203125 -0.046875,0 -0.078125,0.015625 -0.171875,0.078125 C 5,-0.375 4.359375,-0.171875 3.84375,-0.171875 c -0.921875,0 -1.875,-0.609375 -1.875,-2.265625 0,-0.328125 0.03125,-0.78125 0.1875,-1.46875 z m 0,0"
               id="path23615" />
          </g>
        </g>
      </g>
    </g>
    <g
       inkscape:label=""
       transform="translate(70.2711,139.897)"
       id="g24685">
      <g
         clip-path="url(#clip-0)"
         id="g24683"
         transform="matrix(0.352778,0,0,0.352778,-0.28112,0.00348362)">
        <g
           fill="#000000"
           fill-opacity="1"
           id="g24681">
          <g
             id="g24679"
             transform="translate(0,7.4120002)">
            <path
               d="m 5.015625,-3.90625 c 0.25,0 0.546875,0 0.546875,-0.28125 0,-0.21875 -0.171875,-0.21875 -0.484375,-0.21875 h -2.78125 c 0.421875,-1.5625 1.4375,-2.515625 2.96875,-2.515625 h 0.5 c 0.296875,0 0.546875,0 0.546875,-0.28125 0,-0.21875 -0.1875,-0.21875 -0.5,-0.21875 H 5.234375 c -2.125,0 -4.4375,1.6875 -4.4375,4.390625 0,1.90625 1.28125,3.203125 2.984375,3.203125 1.109375,0 2.1875,-0.6875 2.1875,-0.859375 0,-0.109375 -0.046875,-0.203125 -0.15625,-0.203125 -0.046875,0 -0.078125,0.015625 -0.171875,0.078125 C 5,-0.375 4.359375,-0.171875 3.84375,-0.171875 c -0.921875,0 -1.875,-0.609375 -1.875,-2.265625 0,-0.328125 0.03125,-0.78125 0.1875,-1.46875 z m 0,0"
               id="path24677" />
          </g>
        </g>
      </g>
    </g>
    <g
       inkscape:label=""
       transform="translate(83.9474,142.966)"
       id="g30224">
      <g
         clip-path="url(#clip-0)"
         id="g30222"
         transform="matrix(0.352778,0,0,0.352778,-0.28112,0.00348362)">
        <g
           fill="#000000"
           fill-opacity="1"
           id="g30220">
          <g
             id="g30218"
             transform="translate(0,7.4120002)">
            <path
               d="m 5.015625,-3.90625 c 0.25,0 0.546875,0 0.546875,-0.28125 0,-0.21875 -0.171875,-0.21875 -0.484375,-0.21875 h -2.78125 c 0.421875,-1.5625 1.4375,-2.515625 2.96875,-2.515625 h 0.5 c 0.296875,0 0.546875,0 0.546875,-0.28125 0,-0.21875 -0.1875,-0.21875 -0.5,-0.21875 H 5.234375 c -2.125,0 -4.4375,1.6875 -4.4375,4.390625 0,1.90625 1.28125,3.203125 2.984375,3.203125 1.109375,0 2.1875,-0.6875 2.1875,-0.859375 0,-0.109375 -0.046875,-0.203125 -0.15625,-0.203125 -0.046875,0 -0.078125,0.015625 -0.171875,0.078125 C 5,-0.375 4.359375,-0.171875 3.84375,-0.171875 c -0.921875,0 -1.875,-0.609375 -1.875,-2.265625 0,-0.328125 0.03125,-0.78125 0.1875,-1.46875 z m 0,0"
               id="path30216" />
          </g>
        </g>
      </g>
    </g>
    <g
       inkscape:label=""
       transform="translate(86.9164,147.155)"
       id="g34684">
      <g
         clip-path="url(#clip-0)"
         id="g34682"
         transform="matrix(0.352778,0,0,0.352778,-0.28112,0.00348362)">
        <g
           fill="#000000"
           fill-opacity="1"
           id="g34680">
          <g
             id="g34678"
             transform="translate(0,7.4120002)">
            <path
               d="m 5.015625,-3.90625 c 0.25,0 0.546875,0 0.546875,-0.28125 0,-0.21875 -0.171875,-0.21875 -0.484375,-0.21875 h -2.78125 c 0.421875,-1.5625 1.4375,-2.515625 2.96875,-2.515625 h 0.5 c 0.296875,0 0.546875,0 0.546875,-0.28125 0,-0.21875 -0.1875,-0.21875 -0.5,-0.21875 H 5.234375 c -2.125,0 -4.4375,1.6875 -4.4375,4.390625 0,1.90625 1.28125,3.203125 2.984375,3.203125 1.109375,0 2.1875,-0.6875 2.1875,-0.859375 0,-0.109375 -0.046875,-0.203125 -0.15625,-0.203125 -0.046875,0 -0.078125,0.015625 -0.171875,0.078125 C 5,-0.375 4.359375,-0.171875 3.84375,-0.171875 c -0.921875,0 -1.875,-0.609375 -1.875,-2.265625 0,-0.328125 0.03125,-0.78125 0.1875,-1.46875 z m 0,0"
               id="path34676" />
          </g>
        </g>
      </g>
    </g>
    <g
       id="g41040"
       transform="translate(0,-20.10834)">
      <rect
         style="fill:none;stroke:#000000;stroke-width:0.264999;stroke-opacity:1"
         id="rect41028"
         width="39.6875"
         height="39.687496"
         x="66.145836"
         y="134.9375" />
      <use
         x="0"
         y="0"
         xlink:href="#rect14527"
         id="use41030"
         transform="translate(19.843747,-11.90625)" />
      <path
         style="fill:none;stroke:#000000;stroke-width:0.264583px;stroke-linecap:butt;stroke-linejoin:miter;stroke-opacity:1"
         d="m 66.145832,134.9375 c 19.84375,-11.90625 19.84375,-11.90625 19.84375,-11.90625"
         id="path41032" />
      <path
         style="fill:none;stroke:#000000;stroke-width:0.264583px;stroke-linecap:butt;stroke-linejoin:miter;stroke-opacity:1"
         d="m 105.83333,134.9375 c 19.84375,-11.90625 19.84375,-11.90625 19.84375,-11.90625"
         id="path41034" />
      <path
         style="fill:none;stroke:#000000;stroke-width:0.264583px;stroke-linecap:butt;stroke-linejoin:miter;stroke-opacity:1"
         d="m 105.83333,174.625 c 19.84375,-11.90625 19.84375,-11.90625 19.84375,-11.90625"
         id="path41036" />
      <path
         style="fill:none;stroke:#000000;stroke-width:0.264583px;stroke-linecap:butt;stroke-linejoin:miter;stroke-opacity:1"
         d="m 66.145832,174.625 c 19.84375,-11.90625 19.84375,-11.90625 19.84375,-11.90625"
         id="path41038" />
      <path
         style="fill:#0000ff;fill-opacity:0.0305085;stroke-width:0.939858"
         d="m 95.7693,144.93865 c 0.725122,-0.65527 69.27588,-41.74031 69.64408,-41.74031 0.14491,0 0.26347,9.51165 0.26347,21.13701 v 21.137 h -35.24907 c -19.66989,0 -34.988046,-0.23588 -34.65848,-0.5337 z"
         id="path43696"
         transform="matrix(0.26458333,0,0,0.26458333,42.014329,96.184087)" />
      <path
         style="fill:#0000ff;fill-opacity:0.0305085;stroke-width:0.939858"
         d="m 166.9202,124.02451 v -21.44785 l 72.8916,9.1e-4 72.8916,9.1e-4 -35.74642,21.44603 -35.74641,21.44603 -37.14518,9.1e-4 -37.14519,9e-4 z"
         id="path43710"
         transform="matrix(0.26458333,0,0,0.26458333,42.014329,96.184087)" />
      <path
         style="fill:#0000ff;fill-opacity:0.0644068;stroke-width:0.939858"
         d="m 127.13289,201.98054 c 18.29284,-10.9767 34.44866,-20.65473 35.90183,-21.50672 l 2.64213,-1.54907 v 21.50692 21.50692 l -35.90183,-2e-4 -35.901834,-2.1e-4 z"
         id="path43724"
         transform="matrix(0.26458333,0,0,0.26458333,42.014329,96.184087)" />
      <path
         style="fill:#0000ff;fill-opacity:0.0644068;stroke-width:0.939858"
         d="m 166.9202,200.17991 v -21.75869 h 36.67893 36.67893 v 21.75869 21.75868 H 203.59913 166.9202 Z"
         id="path43807"
         transform="matrix(0.26458333,0,0,0.26458333,42.014329,96.184087)" />
      <path
         style="fill:#0000ff;fill-opacity:0.0644068;stroke-width:0.939858"
         d="m 242.14309,199.5801 v -21.15888 h 35.22834 c 19.3756,0 35.11179,0.11296 34.96932,0.25101 -0.3019,0.29256 -67.33981,40.53728 -69.04859,41.45179 -1.10719,0.59255 -1.14907,-0.15636 -1.14907,-20.54392 z"
         id="path43821"
         transform="matrix(0.26458333,0,0,0.26458333,42.014329,96.184087)" />
      <path
         style="fill:#0000ff;fill-opacity:0.152542;stroke-width:0.939858"
         d="m 127.13289,275.96007 c 18.29284,-10.9767 34.44866,-20.65473 35.90183,-21.50671 l 2.64213,-1.54908 v 21.50692 21.50692 l -35.90183,-2e-4 -35.901834,-2.1e-4 z"
         id="path43835"
         transform="matrix(0.26458333,0,0,0.26458333,42.014329,96.184087)" />
      <path
         style="fill:#0000ff;fill-opacity:0.152542;stroke-width:0.939858"
         d="m 166.9202,274.15944 v -21.75869 h 36.67893 36.67893 v 21.75869 21.75868 H 203.59913 166.9202 Z"
         id="path43918"
         transform="matrix(0.26458333,0,0,0.26458333,42.014329,96.184087)" />
      <path
         style="fill:#0000ff;fill-opacity:0.152542;stroke-width:0.939858"
         d="m 242.14309,273.55963 v -21.15888 h 35.22834 c 19.3756,0 35.11179,0.11296 34.96932,0.25102 -0.3019,0.29255 -67.33981,40.53727 -69.04859,41.45178 -1.10719,0.59255 -1.14907,-0.15636 -1.14907,-20.54392 z"
         id="path43932"
         transform="matrix(0.26458333,0,0,0.26458333,42.014329,96.184087)" />
    </g>
    <g
       inkscape:label=""
       transform="translate(93.385663,166.91572)"
       id="g44596"
       style="fill:#0000ff">
      <g
         fill="#000000"
         fill-opacity="1"
         id="g12"
         transform="matrix(0.352778,0,0,0.352778,-0.170877,0.0637645)"
         style="fill:#0000ff">
        <g
           id="use10"
           transform="translate(0,7.4130001)"
           style="fill:#0000ff">
          <path
             d="m 0.53125,2.984375 c -0.015625,0.078125 -0.046875,0.1875 -0.046875,0.28125 0,0.265625 0.203125,0.4375 0.46875,0.4375 0.25,0 0.5,-0.171875 0.59375,-0.421875 C 1.625,3.140625 2.09375,1.0625 2.65625,-1.046875 3,-0.1875 3.640625,0.171875 4.3125,0.171875 c 1.9375,0 4.140625,-2.40625 4.140625,-5.015625 0,-1.84375 -1.125,-2.75 -2.3125,-2.75 -1.515625,0 -3.34375,1.5625 -3.921875,3.859375 z m 3.75,-3.15625 c -1.171875,0 -1.453125,-1.359375 -1.453125,-1.5625 0,-0.109375 0.421875,-1.75 0.484375,-2 C 4.1875,-7.15625 5.875,-7.25 6.125,-7.25 c 0.78125,0 1.203125,0.703125 1.203125,1.71875 0,0.875 -0.453125,2.59375 -0.75,3.3125 -0.515625,1.1875 -1.40625,2.046875 -2.296875,2.046875 z m 0,0"
             id="path18"
             style="fill:#0000ff" />
        </g>
      </g>
    </g>
    <g
       inkscape:label=""
       transform="translate(94.9786,141.705)"
       id="g45379">
      <g
         clip-path="url(#clip-0)"
         id="g45377"
         transform="matrix(0.352778,0,0,0.352778,-0.132292,0.0623095)">
        <g
           fill="#000000"
           fill-opacity="1"
           id="g45375">
          <g
             id="g45373"
             transform="translate(0,10.589)">
            <path
               d="m 3.46875,-6.921875 h 1.578125 c 0.328125,0 0.5,0 0.5,-0.3125 0,-0.1875 -0.109375,-0.1875 -0.453125,-0.1875 H 3.578125 L 4.21875,-9.9375 c 0.0625,-0.234375 0.0625,-0.265625 0.0625,-0.390625 0,-0.28125 -0.21875,-0.4375 -0.4375,-0.4375 -0.140625,0 -0.53125,0.0625 -0.671875,0.609375 L 2.5,-7.421875 H 0.875 c -0.34375,0 -0.5,0 -0.5,0.328125 0,0.171875 0.125,0.171875 0.453125,0.171875 h 1.53125 L 1.21875,-2.375 c -0.140625,0.59375 -0.1875,0.78125 -0.1875,1 0,0.8125 0.5625,1.546875 1.53125,1.546875 1.75,0 2.671875,-2.515625 2.671875,-2.640625 0,-0.09375 -0.0625,-0.15625 -0.171875,-0.15625 -0.03125,0 -0.109375,0 -0.140625,0.078125 -0.015625,0.015625 -0.03125,0.03125 -0.15625,0.3125 -0.359375,0.859375 -1.15625,2.0625 -2.140625,2.0625 -0.53125,0 -0.5625,-0.4375 -0.5625,-0.8125 0,-0.015625 0,-0.34375 0.0625,-0.546875 z m 0,0"
               id="path45371" />
          </g>
        </g>
      </g>
    </g>
    <g
       inkscape:label=""
       transform="translate(94.9786,141.705)"
       id="g45747">
      <g
         clip-path="url(#clip-0)"
         id="g45745"
         transform="matrix(0.352778,0,0,0.352778,-0.0881944,0.0416719)">
        <g
           fill="#000000"
           fill-opacity="1"
           id="g45743">
          <g
             id="g45741"
             transform="translate(0,6.71)">
            <path
               d="m 2.25,-4.359375 h 1.015625 c 0.21875,0 0.328125,0 0.328125,-0.21875 0,-0.125 -0.109375,-0.125 -0.296875,-0.125 H 2.328125 C 2.71875,-6.25 2.78125,-6.46875 2.78125,-6.53125 c 0,-0.1875 -0.125,-0.296875 -0.3125,-0.296875 -0.03125,0 -0.34375,0.015625 -0.4375,0.390625 l -0.421875,1.734375 h -1.03125 c -0.21875,0 -0.328125,0 -0.328125,0.203125 0,0.140625 0.09375,0.140625 0.3125,0.140625 h 0.953125 c -0.78125,3.09375 -0.828125,3.28125 -0.828125,3.46875 0,0.59375 0.40625,1.015625 1,1.015625 1.109375,0 1.734375,-1.59375 1.734375,-1.6875 0,-0.109375 -0.078125,-0.109375 -0.125,-0.109375 -0.09375,0 -0.109375,0.03125 -0.171875,0.15625 C 2.65625,-0.375 2.078125,-0.125 1.71875,-0.125 c -0.234375,0 -0.34375,-0.140625 -0.34375,-0.5 0,-0.265625 0.015625,-0.328125 0.0625,-0.515625 z m 0,0"
               id="path45739" />
          </g>
        </g>
      </g>
    </g>
    <g
       id="g47751"
       style="fill:#e90000;fill-opacity:1">
      <g
         id="g42838"
         transform="translate(40.282275,122.79662)"
         style="fill:#e90000;fill-opacity:1">
        <g
           inkscape:label=""
           transform="matrix(0.70875763,0,0,0.70875763,20.592371,41.434771)"
           id="g20668"
           style="fill:#e90000;fill-opacity:1;stroke:none;stroke-opacity:1">
          <g
             fill="#000000"
             fill-opacity="1"
             id="g20658"
             transform="matrix(0.352778,0,0,0.352778,-0.275608,0.0637645)"
             style="fill:#e90000;fill-opacity:1;stroke:none;stroke-opacity:1">
            <g
               id="g20656"
               transform="translate(0,7.4130001)"
               style="fill:#e90000;fill-opacity:1;stroke:none;stroke-opacity:1">
              <path
                 d="m 3.078125,-4 c 0.46875,0 1.640625,-0.03125 2.46875,-0.34375 1.3125,-0.5 1.421875,-1.5 1.421875,-1.796875 0,-0.765625 -0.65625,-1.453125 -1.78125,-1.453125 -1.8125,0 -4.40625,1.640625 -4.40625,4.703125 0,1.8125 1.03125,3.0625 2.59375,3.0625 2.34375,0 3.828125,-1.828125 3.828125,-2.046875 0,-0.109375 -0.109375,-0.1875 -0.171875,-0.1875 -0.0625,0 -0.078125,0.015625 -0.234375,0.171875 -1.09375,1.453125 -2.734375,1.71875 -3.390625,1.71875 -0.984375,0 -1.5,-0.78125 -1.5,-2.046875 0,-0.25 0,-0.671875 0.265625,-1.78125 z M 2.25,-4.34375 C 3,-6.984375 4.625,-7.25 5.1875,-7.25 c 0.75,0 1.265625,0.453125 1.265625,1.109375 0,1.796875 -2.75,1.796875 -3.46875,1.796875 z m 0,0"
                 id="path20654"
                 style="fill:#e90000;fill-opacity:1;stroke:none;stroke-opacity:1" />
            </g>
          </g>
        </g>
        <g
           fill="#000000"
           fill-opacity="1"
           id="g22"
           transform="matrix(0.352778,0,0,0.352778,20.091611,40.076548)"
           style="fill:#e90000;fill-opacity:1;stroke:none;stroke-opacity:1">
          <g
             id="use20"
             transform="translate(-0.69499999,12.271)"
             style="fill:#e90000;fill-opacity:1;stroke:none;stroke-opacity:1">
            <path
               d="M 9.21875,-10.28125 C 9,-10.09375 8.375,-9.484375 8.375,-9.25 c 0,0.171875 0.140625,0.328125 0.328125,0.328125 0.140625,0 0.21875,-0.09375 0.34375,-0.265625 0.40625,-0.53125 0.875,-0.84375 1.265625,-1.078125 0.171875,-0.09375 0.296875,-0.15625 0.296875,-0.34375 0,-0.15625 -0.140625,-0.234375 -0.25,-0.328125 -0.46875,-0.328125 -0.59375,-0.78125 -0.640625,-1 -0.0625,-0.140625 -0.109375,-0.34375 -0.359375,-0.34375 -0.09375,0 -0.296875,0.07813 -0.296875,0.328125 0,0.15625 0.09375,0.578125 0.421875,1.03125 h -5.78125 c -0.296875,0 -0.59375,0 -0.59375,0.328125 0,0.3125 0.3125,0.3125 0.59375,0.3125 z m 0,0"
               id="path38"
               style="fill:#e90000;fill-opacity:1;stroke:none;stroke-opacity:1" />
          </g>
        </g>
      </g>
      <g
         inkscape:label=""
         transform="matrix(0.73262502,0,0,0.73262502,62.804545,165.26181)"
         id="g46123"
         style="fill:#e90000;fill-opacity:1">
        <g
           fill="#000000"
           fill-opacity="1"
           id="g46121"
           transform="matrix(0.352778,0,0,0.352778,-0.0881944,0.0416719)"
           style="fill:#e90000;fill-opacity:1">
          <g
             id="g46119"
             transform="translate(0,6.71)"
             style="fill:#e90000;fill-opacity:1">
            <path
               d="m 2.25,-4.359375 h 1.015625 c 0.21875,0 0.328125,0 0.328125,-0.21875 0,-0.125 -0.109375,-0.125 -0.296875,-0.125 H 2.328125 C 2.71875,-6.25 2.78125,-6.46875 2.78125,-6.53125 c 0,-0.1875 -0.125,-0.296875 -0.3125,-0.296875 -0.03125,0 -0.34375,0.015625 -0.4375,0.390625 l -0.421875,1.734375 h -1.03125 c -0.21875,0 -0.328125,0 -0.328125,0.203125 0,0.140625 0.09375,0.140625 0.3125,0.140625 h 0.953125 c -0.78125,3.09375 -0.828125,3.28125 -0.828125,3.46875 0,0.59375 0.40625,1.015625 1,1.015625 1.109375,0 1.734375,-1.59375 1.734375,-1.6875 0,-0.109375 -0.078125,-0.109375 -0.125,-0.109375 -0.09375,0 -0.109375,0.03125 -0.171875,0.15625 C 2.65625,-0.375 2.078125,-0.125 1.71875,-0.125 c -0.234375,0 -0.34375,-0.140625 -0.34375,-0.5 0,-0.265625 0.015625,-0.328125 0.0625,-0.515625 z m 0,0"
               id="path46117"
               style="fill:#e90000;fill-opacity:1" />
          </g>
        </g>
      </g>
    </g>
    <g
       inkscape:label=""
       transform="translate(94.9786,141.705)"
       id="g46510">
      <g
         clip-path="url(#clip-0)"
         id="g46508"
         transform="matrix(0.352778,0,0,0.352778,-0.23151,0.0980722)">
        <g
           fill="#000000"
           fill-opacity="1"
           id="g46506">
          <g
             id="g46504"
             transform="translate(0,11.097)">
            <path
               d="m 7.234375,-5.53125 c 0,-1.046875 -0.015625,-2.84375 -0.75,-4.21875 -0.625,-1.203125 -1.640625,-1.625 -2.546875,-1.625 -0.828125,0 -1.875,0.375 -2.53125,1.609375 -0.6875,1.296875 -0.75,2.890625 -0.75,4.234375 0,0.984375 0.015625,2.484375 0.546875,3.796875 0.75,1.765625 2.0625,2.015625 2.734375,2.015625 0.796875,0 2,-0.328125 2.703125,-1.96875 0.515625,-1.1875 0.59375,-2.578125 0.59375,-3.84375 z M 3.9375,0 C 2.84375,0 2.1875,-0.953125 1.953125,-2.25 1.75,-3.265625 1.75,-4.75 1.75,-5.71875 c 0,-1.328125 0,-2.421875 0.234375,-3.46875 0.328125,-1.46875 1.28125,-1.921875 1.953125,-1.921875 0.71875,0 1.625,0.46875 1.953125,1.875 C 6.109375,-8.25 6.125,-7.09375 6.125,-5.71875 c 0,1.125 0,2.5 -0.203125,3.515625 C 5.5625,-0.328125 4.546875,0 3.9375,0 Z m 0,0"
               id="path46502" />
          </g>
        </g>
      </g>
    </g>
    <g
       inkscape:label=""
       transform="translate(94.9786,141.705)"
       id="g46914">
      <g
         clip-path="url(#clip-0)"
         id="g46912"
         transform="matrix(0.352778,0,0,0.352778,-0.148828,0.0827704)">
        <g
           fill="#000000"
           fill-opacity="1"
           id="g46910">
          <g
             id="g46908"
             transform="translate(0,7.0310001)">
            <path
               d="m 5.015625,-3.484375 c 0,-0.875 -0.046875,-1.75 -0.4375,-2.5625 -0.5,-1.046875 -1.390625,-1.21875 -1.859375,-1.21875 -0.640625,0 -1.4375,0.28125 -1.890625,1.296875 -0.34375,0.75 -0.40625,1.609375 -0.40625,2.484375 0,0.8125 0.046875,1.796875 0.5,2.625 0.46875,0.875 1.265625,1.09375 1.796875,1.09375 0.578125,0 1.421875,-0.21875 1.890625,-1.265625 0.359375,-0.75 0.40625,-1.59375 0.40625,-2.453125 z M 2.71875,0 C 2.296875,0 1.640625,-0.265625 1.453125,-1.3125 c -0.125,-0.65625 -0.125,-1.671875 -0.125,-2.3125 0,-0.6875 0,-1.40625 0.09375,-2 C 1.625,-6.921875 2.4375,-7.03125 2.71875,-7.03125 c 0.359375,0 1.078125,0.203125 1.28125,1.28125 0.109375,0.609375 0.109375,1.4375 0.109375,2.125 0,0.828125 0,1.5625 -0.125,2.265625 C 3.828125,-0.328125 3.203125,0 2.71875,0 Z m 0,0"
               id="path46906" />
          </g>
        </g>
      </g>
    </g>
    <g
       inkscape:label=""
       transform="translate(94.9786,141.705)"
       id="g47332">
      <g
         clip-path="url(#clip-0)"
         id="g47330"
         transform="matrix(0.352778,0,0,0.352778,-0.148828,0.0827704)">
        <g
           fill="#000000"
           fill-opacity="1"
           id="g47328">
          <g
             id="g47326"
             transform="translate(0,7.0310001)">
            <path
               d="m 5.015625,-3.484375 c 0,-0.875 -0.046875,-1.75 -0.4375,-2.5625 -0.5,-1.046875 -1.390625,-1.21875 -1.859375,-1.21875 -0.640625,0 -1.4375,0.28125 -1.890625,1.296875 -0.34375,0.75 -0.40625,1.609375 -0.40625,2.484375 0,0.8125 0.046875,1.796875 0.5,2.625 0.46875,0.875 1.265625,1.09375 1.796875,1.09375 0.578125,0 1.421875,-0.21875 1.890625,-1.265625 0.359375,-0.75 0.40625,-1.59375 0.40625,-2.453125 z M 2.71875,0 C 2.296875,0 1.640625,-0.265625 1.453125,-1.3125 c -0.125,-0.65625 -0.125,-1.671875 -0.125,-2.3125 0,-0.6875 0,-1.40625 0.09375,-2 C 1.625,-6.921875 2.4375,-7.03125 2.71875,-7.03125 c 0.359375,0 1.078125,0.203125 1.28125,1.28125 0.109375,0.609375 0.109375,1.4375 0.109375,2.125 0,0.828125 0,1.5625 -0.125,2.265625 C 3.828125,-0.328125 3.203125,0 2.71875,0 Z m 0,0"
               id="path47324" />
          </g>
        </g>
      </g>
    </g>
    <g
       inkscape:label=""
       transform="translate(93.385663,166.91572)"
       id="g47803"
       style="fill:#0000ff">
      <g
         fill="#000000"
         fill-opacity="1"
         id="g47801"
         transform="matrix(0.352778,0,0,0.352778,-0.170877,0.0637645)"
         style="fill:#0000ff">
        <g
           id="g47799"
           transform="translate(0,7.4130001)"
           style="fill:#0000ff">
          <path
             d="m 0.53125,2.984375 c -0.015625,0.078125 -0.046875,0.1875 -0.046875,0.28125 0,0.265625 0.203125,0.4375 0.46875,0.4375 0.25,0 0.5,-0.171875 0.59375,-0.421875 C 1.625,3.140625 2.09375,1.0625 2.65625,-1.046875 3,-0.1875 3.640625,0.171875 4.3125,0.171875 c 1.9375,0 4.140625,-2.40625 4.140625,-5.015625 0,-1.84375 -1.125,-2.75 -2.3125,-2.75 -1.515625,0 -3.34375,1.5625 -3.921875,3.859375 z m 3.75,-3.15625 c -1.171875,0 -1.453125,-1.359375 -1.453125,-1.5625 0,-0.109375 0.421875,-1.75 0.484375,-2 C 4.1875,-7.15625 5.875,-7.25 6.125,-7.25 c 0.78125,0 1.203125,0.703125 1.203125,1.71875 0,0.875 -0.453125,2.59375 -0.75,3.3125 -0.515625,1.1875 -1.40625,2.046875 -2.296875,2.046875 z m 0,0"
             id="path47797"
             style="fill:#0000ff" />
        </g>
      </g>
    </g>
    <path
       style="fill:none;stroke:#000000;stroke-width:0.565;stroke-linecap:square;stroke-linejoin:miter;stroke-dasharray:none;stroke-opacity:1"
       d="m 66.145775,169.33288 c 5.291668,0 5.291668,0 5.291668,0"
       id="path565" />
    <path
       style="fill:none;stroke:#000000;stroke-width:0.565;stroke-linecap:square;stroke-linejoin:miter;stroke-dasharray:none;stroke-opacity:1"
       d="m 71.437443,169.33288 c 0,5.29167 0,5.29167 0,5.29167"
       id="path567" />
    <g
       inkscape:label=""
       transform="translate(91.2406,144.161)"
       id="g3298">
      <g
         clip-path="url(#clip-0)"
         id="g3296"
         transform="matrix(0.352778,0,0,0.352778,-0.341753,0.0831232)">
        <g
           fill="#000000"
           fill-opacity="1"
           id="g3294">
          <g
             id="g3292"
             transform="translate(0,7.0300002)">
            <path
               d="m 3.203125,-6.984375 c 0,-0.25 0,-0.28125 -0.25,-0.28125 C 2.28125,-6.5625 1.3125,-6.5625 0.96875,-6.5625 v 0.328125 c 0.21875,0 0.859375,0 1.4375,-0.28125 v 5.65625 c 0,0.390625 -0.046875,0.515625 -1.015625,0.515625 H 1.03125 V 0 c 0.390625,-0.03125 1.328125,-0.03125 1.765625,-0.03125 0.4375,0 1.390625,0 1.765625,0.03125 V -0.34375 H 4.21875 c -0.984375,0 -1.015625,-0.109375 -1.015625,-0.515625 z m 0,0"
               id="path3290" />
          </g>
        </g>
      </g>
    </g>
    <g
       id="g8304"
       style="fill:#ff0000"
       transform="translate(10.423481,23.988887)">
      <g
         inkscape:label=""
         transform="translate(50.204629,148.68436)"
         id="g2354"
         style="fill:#ff0000">
        <g
           fill="#000000"
           fill-opacity="1"
           id="g2344"
           transform="matrix(0.352778,0,0,0.352778,-0.132292,0.0623095)"
           style="fill:#ff0000">
          <g
             id="g2342"
             transform="translate(0,10.589)"
             style="fill:#ff0000">
            <path
               d="m 3.46875,-6.921875 h 1.578125 c 0.328125,0 0.5,0 0.5,-0.3125 0,-0.1875 -0.109375,-0.1875 -0.453125,-0.1875 H 3.578125 L 4.21875,-9.9375 c 0.0625,-0.234375 0.0625,-0.265625 0.0625,-0.390625 0,-0.28125 -0.21875,-0.4375 -0.4375,-0.4375 -0.140625,0 -0.53125,0.0625 -0.671875,0.609375 L 2.5,-7.421875 H 0.875 c -0.34375,0 -0.5,0 -0.5,0.328125 0,0.171875 0.125,0.171875 0.453125,0.171875 h 1.53125 L 1.21875,-2.375 c -0.140625,0.59375 -0.1875,0.78125 -0.1875,1 0,0.8125 0.5625,1.546875 1.53125,1.546875 1.75,0 2.671875,-2.515625 2.671875,-2.640625 0,-0.09375 -0.0625,-0.15625 -0.171875,-0.15625 -0.03125,0 -0.109375,0 -0.140625,0.078125 -0.015625,0.015625 -0.03125,0.03125 -0.15625,0.3125 -0.359375,0.859375 -1.15625,2.0625 -2.140625,2.0625 -0.53125,0 -0.5625,-0.4375 -0.5625,-0.8125 0,-0.015625 0,-0.34375 0.0625,-0.546875 z m 0,0"
               id="path2340"
               style="fill:#ff0000" />
          </g>
        </g>
      </g>
      <g
         inkscape:label=""
         transform="matrix(0.76097105,0,0,0.76097105,50.098797,151.11149)"
         id="g3782"
         style="fill:#ff0000">
        <g
           fill="#000000"
           fill-opacity="1"
           id="g3780"
           transform="matrix(0.352778,0,0,0.352778,2.8540439,0.16544661)"
           style="fill:#ff0000">
          <g
             id="g3778"
             transform="translate(0,7.0310001)"
             style="fill:#ff0000">
            <path
               d="m 3.203125,-6.984375 c 0,-0.25 0,-0.28125 -0.25,-0.28125 C 2.28125,-6.5625 1.3125,-6.5625 0.96875,-6.5625 v 0.328125 c 0.21875,0 0.859375,0 1.4375,-0.28125 v 5.65625 c 0,0.390625 -0.046875,0.515625 -1.015625,0.515625 H 1.03125 V 0 c 0.390625,-0.03125 1.328125,-0.03125 1.765625,-0.03125 0.4375,0 1.390625,0 1.765625,0.03125 V -0.34375 H 4.21875 c -0.984375,0 -1.015625,-0.109375 -1.015625,-0.515625 z m 0,0"
               id="path3776"
               style="fill:#ff0000" />
          </g>
        </g>
      </g>
      <g
         inkscape:label=""
         transform="matrix(0.76097105,0,0,0.76097105,83.646813,145.70639)"
         id="g11896"
         style="fill:#0000ff">
        <g
           fill="#000000"
           fill-opacity="1"
           id="g11894"
           transform="matrix(0.352778,0,0,0.352778,2.8540439,0.16544661)"
           style="fill:#0000ff">
          <g
             id="g11892"
             transform="translate(0,7.0310001)"
             style="fill:#0000ff">
            <path
               d="m 3.203125,-6.984375 c 0,-0.25 0,-0.28125 -0.25,-0.28125 C 2.28125,-6.5625 1.3125,-6.5625 0.96875,-6.5625 v 0.328125 c 0.21875,0 0.859375,0 1.4375,-0.28125 v 5.65625 c 0,0.390625 -0.046875,0.515625 -1.015625,0.515625 H 1.03125 V 0 c 0.390625,-0.03125 1.328125,-0.03125 1.765625,-0.03125 0.4375,0 1.390625,0 1.765625,0.03125 V -0.34375 H 4.21875 c -0.984375,0 -1.015625,-0.109375 -1.015625,-0.515625 z m 0,0"
               id="path11890"
               style="fill:#0000ff" />
          </g>
        </g>
      </g>
    </g>
    <g
       inkscape:label=""
       transform="translate(91.2406,144.161)"
       id="g4277">
      <g
         clip-path="url(#clip-0)"
         id="g4275"
         transform="matrix(0.352778,0,0,0.352778,-0.148828,0.0827704)">
        <g
           fill="#000000"
           fill-opacity="1"
           id="g4273">
          <g
             id="g4271"
             transform="translate(0,7.0310001)">
            <path
               d="m 5.015625,-3.484375 c 0,-0.875 -0.046875,-1.75 -0.4375,-2.5625 -0.5,-1.046875 -1.390625,-1.21875 -1.859375,-1.21875 -0.640625,0 -1.4375,0.28125 -1.890625,1.296875 -0.34375,0.75 -0.40625,1.609375 -0.40625,2.484375 0,0.8125 0.046875,1.796875 0.5,2.625 0.46875,0.875 1.265625,1.09375 1.796875,1.09375 0.578125,0 1.421875,-0.21875 1.890625,-1.265625 0.359375,-0.75 0.40625,-1.59375 0.40625,-2.453125 z M 2.71875,0 C 2.296875,0 1.640625,-0.265625 1.453125,-1.3125 c -0.125,-0.65625 -0.125,-1.671875 -0.125,-2.3125 0,-0.6875 0,-1.40625 0.09375,-2 C 1.625,-6.921875 2.4375,-7.03125 2.71875,-7.03125 c 0.359375,0 1.078125,0.203125 1.28125,1.28125 0.109375,0.609375 0.109375,1.4375 0.109375,2.125 0,0.828125 0,1.5625 -0.125,2.265625 C 3.828125,-0.328125 3.203125,0 2.71875,0 Z m 0,0"
               id="path4269" />
          </g>
        </g>
      </g>
    </g>
    <g
       inkscape:label=""
       transform="translate(55.7342,147.627)"
       id="g6569">
      <g
         clip-path="url(#clip-0)"
         id="g6567"
         transform="matrix(0.352778,0,0,0.352778,-0.148828,0.0827704)">
        <g
           fill="#000000"
           fill-opacity="1"
           id="g6565">
          <g
             id="g6563"
             transform="translate(0,7.0310001)">
            <path
               d="m 5.015625,-3.484375 c 0,-0.875 -0.046875,-1.75 -0.4375,-2.5625 -0.5,-1.046875 -1.390625,-1.21875 -1.859375,-1.21875 -0.640625,0 -1.4375,0.28125 -1.890625,1.296875 -0.34375,0.75 -0.40625,1.609375 -0.40625,2.484375 0,0.8125 0.046875,1.796875 0.5,2.625 0.46875,0.875 1.265625,1.09375 1.796875,1.09375 0.578125,0 1.421875,-0.21875 1.890625,-1.265625 0.359375,-0.75 0.40625,-1.59375 0.40625,-2.453125 z M 2.71875,0 C 2.296875,0 1.640625,-0.265625 1.453125,-1.3125 c -0.125,-0.65625 -0.125,-1.671875 -0.125,-2.3125 0,-0.6875 0,-1.40625 0.09375,-2 C 1.625,-6.921875 2.4375,-7.03125 2.71875,-7.03125 c 0.359375,0 1.078125,0.203125 1.28125,1.28125 0.109375,0.609375 0.109375,1.4375 0.109375,2.125 0,0.828125 0,1.5625 -0.125,2.265625 C 3.828125,-0.328125 3.203125,0 2.71875,0 Z m 0,0"
               id="path6561" />
          </g>
        </g>
      </g>
    </g>
    <g
       inkscape:label=""
       transform="translate(59.0811,151.199)"
       id="g7861">
      <g
         clip-path="url(#clip-0)"
         id="g7859"
         transform="matrix(0.352778,0,0,0.352778,-0.148828,0.0827704)">
        <g
           fill="#000000"
           fill-opacity="1"
           id="g7857">
          <g
             id="g7855"
             transform="translate(0,7.0310001)">
            <path
               d="m 5.015625,-3.484375 c 0,-0.875 -0.046875,-1.75 -0.4375,-2.5625 -0.5,-1.046875 -1.390625,-1.21875 -1.859375,-1.21875 -0.640625,0 -1.4375,0.28125 -1.890625,1.296875 -0.34375,0.75 -0.40625,1.609375 -0.40625,2.484375 0,0.8125 0.046875,1.796875 0.5,2.625 0.46875,0.875 1.265625,1.09375 1.796875,1.09375 0.578125,0 1.421875,-0.21875 1.890625,-1.265625 0.359375,-0.75 0.40625,-1.59375 0.40625,-2.453125 z M 2.71875,0 C 2.296875,0 1.640625,-0.265625 1.453125,-1.3125 c -0.125,-0.65625 -0.125,-1.671875 -0.125,-2.3125 0,-0.6875 0,-1.40625 0.09375,-2 C 1.625,-6.921875 2.4375,-7.03125 2.71875,-7.03125 c 0.359375,0 1.078125,0.203125 1.28125,1.28125 0.109375,0.609375 0.109375,1.4375 0.109375,2.125 0,0.828125 0,1.5625 -0.125,2.265625 C 3.828125,-0.328125 3.203125,0 2.71875,0 Z m 0,0"
               id="path7853" />
          </g>
        </g>
      </g>
    </g>
    <g
       id="g8294"
       style="fill:#ff0000"
       transform="translate(3.7041668,3.7041668)">
      <g
         inkscape:label=""
         transform="matrix(0.76097105,0,0,0.76097105,58.973959,151.5074)"
         id="g4783"
         style="fill:#ff0000">
        <g
           fill="#000000"
           fill-opacity="1"
           id="g4781"
           transform="matrix(0.352778,0,0,0.352778,-0.192925,0.0827704)"
           style="fill:#ff0000">
          <g
             id="g4779"
             transform="translate(0,7.0310001)"
             style="fill:#ff0000">
            <path
               d="m 1.390625,-0.84375 1.15625,-1.125 c 1.703125,-1.5 2.34375,-2.09375 2.34375,-3.171875 0,-1.25 -0.96875,-2.125 -2.3125,-2.125 -1.21875,0 -2.03125,1 -2.03125,1.96875 0,0.625 0.546875,0.625 0.578125,0.625 0.1875,0 0.5625,-0.140625 0.5625,-0.578125 0,-0.296875 -0.1875,-0.578125 -0.578125,-0.578125 -0.078125,0 -0.109375,0 -0.140625,0.015625 0.25,-0.703125 0.84375,-1.109375 1.46875,-1.109375 1,0 1.46875,0.875 1.46875,1.78125 0,0.859375 -0.546875,1.734375 -1.140625,2.40625 l -2.09375,2.328125 c -0.125,0.125 -0.125,0.140625 -0.125,0.40625 H 4.59375 L 4.890625,-1.890625 H 4.625 C 4.5625,-1.578125 4.5,-1.09375 4.390625,-0.921875 4.3125,-0.84375 3.59375,-0.84375 3.34375,-0.84375 Z m 0,0"
               id="path4777"
               style="fill:#ff0000" />
          </g>
        </g>
      </g>
      <g
         inkscape:label=""
         transform="translate(56.554633,148.68436)"
         id="g8266"
         style="fill:#ff0000">
        <g
           fill="#000000"
           fill-opacity="1"
           id="g8264"
           transform="matrix(0.352778,0,0,0.352778,-0.132292,0.0623095)"
           style="fill:#ff0000">
          <g
             id="g8262"
             transform="translate(0,10.589)"
             style="fill:#ff0000">
            <path
               d="m 3.46875,-6.921875 h 1.578125 c 0.328125,0 0.5,0 0.5,-0.3125 0,-0.1875 -0.109375,-0.1875 -0.453125,-0.1875 H 3.578125 L 4.21875,-9.9375 c 0.0625,-0.234375 0.0625,-0.265625 0.0625,-0.390625 0,-0.28125 -0.21875,-0.4375 -0.4375,-0.4375 -0.140625,0 -0.53125,0.0625 -0.671875,0.609375 L 2.5,-7.421875 H 0.875 c -0.34375,0 -0.5,0 -0.5,0.328125 0,0.171875 0.125,0.171875 0.453125,0.171875 h 1.53125 L 1.21875,-2.375 c -0.140625,0.59375 -0.1875,0.78125 -0.1875,1 0,0.8125 0.5625,1.546875 1.53125,1.546875 1.75,0 2.671875,-2.515625 2.671875,-2.640625 0,-0.09375 -0.0625,-0.15625 -0.171875,-0.15625 -0.03125,0 -0.109375,0 -0.140625,0.078125 -0.015625,0.015625 -0.03125,0.03125 -0.15625,0.3125 -0.359375,0.859375 -1.15625,2.0625 -2.140625,2.0625 -0.53125,0 -0.5625,-0.4375 -0.5625,-0.8125 0,-0.015625 0,-0.34375 0.0625,-0.546875 z m 0,0"
               id="path8260"
               style="fill:#ff0000" />
          </g>
        </g>
      </g>
      <g
         inkscape:label=""
         transform="matrix(0.76097105,0,0,0.76097105,92.311479,145.68653)"
         id="g11912"
         style="fill:#0000ff">
        <g
           fill="#000000"
           fill-opacity="1"
           id="g11910"
           transform="matrix(0.352778,0,0,0.352778,-0.192925,0.0827704)"
           style="fill:#0000ff">
          <g
             id="g11908"
             transform="translate(0,7.0310001)"
             style="fill:#0000ff">
            <path
               d="m 1.390625,-0.84375 1.15625,-1.125 c 1.703125,-1.5 2.34375,-2.09375 2.34375,-3.171875 0,-1.25 -0.96875,-2.125 -2.3125,-2.125 -1.21875,0 -2.03125,1 -2.03125,1.96875 0,0.625 0.546875,0.625 0.578125,0.625 0.1875,0 0.5625,-0.140625 0.5625,-0.578125 0,-0.296875 -0.1875,-0.578125 -0.578125,-0.578125 -0.078125,0 -0.109375,0 -0.140625,0.015625 0.25,-0.703125 0.84375,-1.109375 1.46875,-1.109375 1,0 1.46875,0.875 1.46875,1.78125 0,0.859375 -0.546875,1.734375 -1.140625,2.40625 l -2.09375,2.328125 c -0.125,0.125 -0.125,0.140625 -0.125,0.40625 H 4.59375 L 4.890625,-1.890625 H 4.625 C 4.5625,-1.578125 4.5,-1.09375 4.390625,-0.921875 4.3125,-0.84375 3.59375,-0.84375 3.34375,-0.84375 Z m 0,0"
               id="path11906"
               style="fill:#0000ff" />
          </g>
        </g>
      </g>
    </g>
    <g
       id="g8284"
       style="fill:#ff0000"
       transform="translate(-1.4827766,-15.963198)">
      <g
         inkscape:label=""
         transform="matrix(0.76097105,0,0,0.76097105,63.950707,151.73229)"
         id="g5294"
         style="fill:#ff0000">
        <g
           fill="#000000"
           fill-opacity="1"
           id="g5292"
           transform="matrix(0.352778,0,0,0.352778,-0.159852,0.0827704)"
           style="fill:#ff0000">
          <g
             id="g5290"
             transform="translate(0,7.0310001)"
             style="fill:#ff0000">
            <path
               d="M 3.15625,-3.84375 C 4.0625,-4.140625 4.6875,-4.890625 4.6875,-5.765625 c 0,-0.890625 -0.953125,-1.5 -2,-1.5 -1.109375,0 -1.9375,0.65625 -1.9375,1.484375 0,0.359375 0.25,0.5625 0.5625,0.5625 0.328125,0 0.546875,-0.234375 0.546875,-0.546875 0,-0.546875 -0.5,-0.546875 -0.671875,-0.546875 C 1.53125,-6.84375 2.25,-6.984375 2.640625,-6.984375 3.09375,-6.984375 3.6875,-6.75 3.6875,-5.765625 3.6875,-5.640625 3.671875,-5 3.375,-4.53125 3.046875,-4 2.6875,-3.96875 2.40625,-3.953125 c -0.078125,0 -0.34375,0.03125 -0.421875,0.03125 -0.09375,0 -0.15625,0.015625 -0.15625,0.125 0,0.125 0.0625,0.125 0.25,0.125 H 2.5625 c 0.890625,0 1.296875,0.734375 1.296875,1.8125 0,1.484375 -0.75,1.796875 -1.234375,1.796875 -0.46875,0 -1.28125,-0.1875 -1.671875,-0.828125 0.390625,0.046875 0.71875,-0.1875 0.71875,-0.609375 0,-0.390625 -0.28125,-0.609375 -0.609375,-0.609375 -0.25,0 -0.609375,0.15625 -0.609375,0.640625 0,0.984375 1.015625,1.703125 2.203125,1.703125 1.328125,0 2.328125,-0.984375 2.328125,-2.09375 0,-0.90625 -0.6875,-1.75 -1.828125,-1.984375 z m 0,0"
               id="path5288"
               style="fill:#ff0000" />
          </g>
        </g>
      </g>
      <g
         inkscape:label=""
         transform="translate(61.846303,148.68436)"
         id="g8274"
         style="fill:#ff0000">
        <g
           fill="#000000"
           fill-opacity="1"
           id="g8272"
           transform="matrix(0.352778,0,0,0.352778,-0.132292,0.0623095)"
           style="fill:#ff0000">
          <g
             id="g8270"
             transform="translate(0,10.589)"
             style="fill:#ff0000">
            <path
               d="m 3.46875,-6.921875 h 1.578125 c 0.328125,0 0.5,0 0.5,-0.3125 0,-0.1875 -0.109375,-0.1875 -0.453125,-0.1875 H 3.578125 L 4.21875,-9.9375 c 0.0625,-0.234375 0.0625,-0.265625 0.0625,-0.390625 0,-0.28125 -0.21875,-0.4375 -0.4375,-0.4375 -0.140625,0 -0.53125,0.0625 -0.671875,0.609375 L 2.5,-7.421875 H 0.875 c -0.34375,0 -0.5,0 -0.5,0.328125 0,0.171875 0.125,0.171875 0.453125,0.171875 h 1.53125 L 1.21875,-2.375 c -0.140625,0.59375 -0.1875,0.78125 -0.1875,1 0,0.8125 0.5625,1.546875 1.53125,1.546875 1.75,0 2.671875,-2.515625 2.671875,-2.640625 0,-0.09375 -0.0625,-0.15625 -0.171875,-0.15625 -0.03125,0 -0.109375,0 -0.140625,0.078125 -0.015625,0.015625 -0.03125,0.03125 -0.15625,0.3125 -0.359375,0.859375 -1.15625,2.0625 -2.140625,2.0625 -0.53125,0 -0.5625,-0.4375 -0.5625,-0.8125 0,-0.015625 0,-0.34375 0.0625,-0.546875 z m 0,0"
               id="path8268"
               style="fill:#ff0000" />
          </g>
        </g>
      </g>
      <g
         inkscape:label=""
         transform="matrix(0.76097105,0,0,0.76097105,97.288227,146.44059)"
         id="g11928"
         style="fill:#0000ff">
        <g
           fill="#000000"
           fill-opacity="1"
           id="g11926"
           transform="matrix(0.352778,0,0,0.352778,-0.159852,0.0827704)"
           style="fill:#0000ff">
          <g
             id="g11924"
             transform="translate(0,7.0310001)"
             style="fill:#0000ff">
            <path
               d="M 3.15625,-3.84375 C 4.0625,-4.140625 4.6875,-4.890625 4.6875,-5.765625 c 0,-0.890625 -0.953125,-1.5 -2,-1.5 -1.109375,0 -1.9375,0.65625 -1.9375,1.484375 0,0.359375 0.25,0.5625 0.5625,0.5625 0.328125,0 0.546875,-0.234375 0.546875,-0.546875 0,-0.546875 -0.5,-0.546875 -0.671875,-0.546875 C 1.53125,-6.84375 2.25,-6.984375 2.640625,-6.984375 3.09375,-6.984375 3.6875,-6.75 3.6875,-5.765625 3.6875,-5.640625 3.671875,-5 3.375,-4.53125 3.046875,-4 2.6875,-3.96875 2.40625,-3.953125 c -0.078125,0 -0.34375,0.03125 -0.421875,0.03125 -0.09375,0 -0.15625,0.015625 -0.15625,0.125 0,0.125 0.0625,0.125 0.25,0.125 H 2.5625 c 0.890625,0 1.296875,0.734375 1.296875,1.8125 0,1.484375 -0.75,1.796875 -1.234375,1.796875 -0.46875,0 -1.28125,-0.1875 -1.671875,-0.828125 0.390625,0.046875 0.71875,-0.1875 0.71875,-0.609375 0,-0.390625 -0.28125,-0.609375 -0.609375,-0.609375 -0.25,0 -0.609375,0.15625 -0.609375,0.640625 0,0.984375 1.015625,1.703125 2.203125,1.703125 1.328125,0 2.328125,-0.984375 2.328125,-2.09375 0,-0.90625 -0.6875,-1.75 -1.828125,-1.984375 z m 0,0"
               id="path11922"
               style="fill:#0000ff" />
          </g>
        </g>
      </g>
    </g>
    <g
       inkscape:label=""
       transform="translate(93.385663,146.2781)"
       id="g11904"
       style="fill:#0000ff">
      <g
         fill="#000000"
         fill-opacity="1"
         id="g11902"
         transform="matrix(0.352778,0,0,0.352778,-0.170877,0.0637645)"
         style="fill:#0000ff">
        <g
           id="g11900"
           transform="translate(0,7.4130001)"
           style="fill:#0000ff">
          <path
             d="m 0.53125,2.984375 c -0.015625,0.078125 -0.046875,0.1875 -0.046875,0.28125 0,0.265625 0.203125,0.4375 0.46875,0.4375 0.25,0 0.5,-0.171875 0.59375,-0.421875 C 1.625,3.140625 2.09375,1.0625 2.65625,-1.046875 3,-0.1875 3.640625,0.171875 4.3125,0.171875 c 1.9375,0 4.140625,-2.40625 4.140625,-5.015625 0,-1.84375 -1.125,-2.75 -2.3125,-2.75 -1.515625,0 -3.34375,1.5625 -3.921875,3.859375 z m 3.75,-3.15625 c -1.171875,0 -1.453125,-1.359375 -1.453125,-1.5625 0,-0.109375 0.421875,-1.75 0.484375,-2 C 4.1875,-7.15625 5.875,-7.25 6.125,-7.25 c 0.78125,0 1.203125,0.703125 1.203125,1.71875 0,0.875 -0.453125,2.59375 -0.75,3.3125 -0.515625,1.1875 -1.40625,2.046875 -2.296875,2.046875 z m 0,0"
             id="path11898"
             style="fill:#0000ff" />
        </g>
      </g>
    </g>
    <g
       inkscape:label=""
       transform="translate(93.385663,127.22799)"
       id="g11920"
       style="fill:#0000ff">
      <g
         fill="#000000"
         fill-opacity="1"
         id="g11918"
         transform="matrix(0.352778,0,0,0.352778,-0.170877,0.0637645)"
         style="fill:#0000ff">
        <g
           id="g11916"
           transform="translate(0,7.4130001)"
           style="fill:#0000ff">
          <path
             d="m 0.53125,2.984375 c -0.015625,0.078125 -0.046875,0.1875 -0.046875,0.28125 0,0.265625 0.203125,0.4375 0.46875,0.4375 0.25,0 0.5,-0.171875 0.59375,-0.421875 C 1.625,3.140625 2.09375,1.0625 2.65625,-1.046875 3,-0.1875 3.640625,0.171875 4.3125,0.171875 c 1.9375,0 4.140625,-2.40625 4.140625,-5.015625 0,-1.84375 -1.125,-2.75 -2.3125,-2.75 -1.515625,0 -3.34375,1.5625 -3.921875,3.859375 z m 3.75,-3.15625 c -1.171875,0 -1.453125,-1.359375 -1.453125,-1.5625 0,-0.109375 0.421875,-1.75 0.484375,-2 C 4.1875,-7.15625 5.875,-7.25 6.125,-7.25 c 0.78125,0 1.203125,0.703125 1.203125,1.71875 0,0.875 -0.453125,2.59375 -0.75,3.3125 -0.515625,1.1875 -1.40625,2.046875 -2.296875,2.046875 z m 0,0"
             id="path11914"
             style="fill:#0000ff" />
        </g>
      </g>
    </g>
  </g>
</svg>
