<?xml version="1.0" encoding="UTF-8" standalone="no"?>
<!-- Created with Inkscape (http://www.inkscape.org/) -->

<svg
   sodipodi:docname="sphere_euclid.svg"
   id="svg12940"
   version="1.1"
   viewBox="0 0 79.718956 79.99501"
   height="79.99501mm"
   width="79.718956mm"
   inkscape:version="1.2 (dc2aeda, 2022-05-15)"
   xmlns:inkscape="http://www.inkscape.org/namespaces/inkscape"
   xmlns:sodipodi="http://sodipodi.sourceforge.net/DTD/sodipodi-0.dtd"
   xmlns="http://www.w3.org/2000/svg"
   xmlns:svg="http://www.w3.org/2000/svg">
  <sodipodi:namedview
     id="namedview12942"
     pagecolor="#ffffff"
     bordercolor="#666666"
     borderopacity="1.0"
     inkscape:showpageshadow="2"
     inkscape:pageopacity="0.0"
     inkscape:pagecheckerboard="0"
     inkscape:deskcolor="#d1d1d1"
     inkscape:document-units="mm"
     showgrid="true"
     inkscape:zoom="1.4668385"
     inkscape:cx="166.68501"
     inkscape:cy="163.95806"
     inkscape:window-width="1463"
     inkscape:window-height="869"
     inkscape:window-x="0"
     inkscape:window-y="38"
     inkscape:window-maximized="0"
     inkscape:current-layer="g17179">
    <inkscape:grid
       type="xygrid"
       id="grid13430"
       originx="-107.15625"
       originy="-29.807065" />
  </sodipodi:namedview>
  <defs
     id="defs12937">
    <inkscape:path-effect
       effect="bend_path"
       id="path-effect19066"
       is_visible="true"
       lpeversion="1"
       bendpath="M -1.1906233,-1.4552087 C 16.007293,7.805208 16.007293,7.805208 16.007293,7.805208"
       prop_scale="1"
       scale_y_rel="false"
       vertical="false"
       hide_knot="false" />
    <inkscape:path-effect
       effect="bend_path"
       id="path-effect19060"
       is_visible="true"
       lpeversion="1"
       bendpath="M -1.1906233,-1.4552087 C 16.007293,7.805208 16.007293,7.805208 16.007293,7.805208"
       prop_scale="1"
       scale_y_rel="false"
       vertical="false"
       hide_knot="false" />
    <marker
       style="overflow:visible"
       id="marker17770"
       refX="0"
       refY="0"
       orient="auto-start-reverse"
       inkscape:stockid="Arrow2"
       markerWidth="7.6999998"
       markerHeight="5.5999999"
       viewBox="0 0 7.7 5.6"
       inkscape:isstock="true"
       inkscape:collect="always"
       preserveAspectRatio="xMidYMid">
      <path
         transform="scale(0.7)"
         d="M -2,-4 9,0 -2,4 c 2,-2.33 2,-5.66 0,-8 z"
         style="fill:context-stroke;fill-rule:evenodd;stroke:none"
         id="path17768" />
    </marker>
    <marker
       style="overflow:visible"
       id="Arrow2"
       refX="0"
       refY="0"
       orient="auto-start-reverse"
       inkscape:stockid="Arrow2"
       markerWidth="7.6999998"
       markerHeight="5.5999999"
       viewBox="0 0 7.7 5.6"
       inkscape:isstock="true"
       inkscape:collect="always"
       preserveAspectRatio="xMidYMid">
      <path
         transform="scale(0.7)"
         d="M -2,-4 9,0 -2,4 c 2,-2.33 2,-5.66 0,-8 z"
         style="fill:context-stroke;fill-rule:evenodd;stroke:none"
         id="arrow2L" />
    </marker>
    <marker
       style="overflow:visible"
       id="TriangleStart"
       refX="0"
       refY="0"
       orient="auto-start-reverse"
       inkscape:stockid="TriangleStart"
       markerWidth="3"
       markerHeight="3"
       viewBox="0 0 5.3244081 6.1553851"
       inkscape:isstock="true"
       inkscape:collect="always"
       preserveAspectRatio="xMidYMid">
      <path
         transform="scale(0.5)"
         style="fill:context-stroke;fill-rule:evenodd;stroke:context-stroke;stroke-width:1pt"
         d="M 5.77,0 -2.88,5 V -5 Z"
         id="path135" />
    </marker>
    <clipPath
       id="clip-0">
      <path
         clip-rule="nonzero"
         d="M 0,0 H 9 V 7.410156 H 0 Z m 0,0"
         id="path8" />
    </clipPath>
    <clipPath
       id="clipPath21461">
      <path
         clip-rule="nonzero"
         d="M 0,0 H 8.835938 V 10.761719 H 0 Z m 0,0"
         id="path21459" />
    </clipPath>
    <clipPath
       id="clipPath21586">
      <path
         clip-rule="nonzero"
         d="M 0,0 H 12 V 7.410156 H 0 Z m 0,0"
         id="path21584" />
    </clipPath>
    <clipPath
       id="clipPath22008">
      <path
         clip-rule="nonzero"
         d="M 0,0 H 8 V 15.304688 H 0 Z m 0,0"
         id="path22006" />
    </clipPath>
    <clipPath
       id="clipPath22996">
      <path
         clip-rule="nonzero"
         d="M 0,0 H 8 V 15.304688 H 0 Z m 0,0"
         id="path22994" />
    </clipPath>
    <clipPath
       id="clipPath23837">
      <path
         clip-rule="nonzero"
         d="M 2,0 H 5.773438 V 3 H 2 Z m 0,0"
         id="path11" />
    </clipPath>
    <clipPath
       id="clipPath25292">
      <path
         clip-rule="nonzero"
         d="M 0,4 H 9 V 16.8125 H 0 Z m 0,0"
         id="path15" />
    </clipPath>
    <clipPath
       id="clip-1">
      <path
         clip-rule="nonzero"
         d="m 10,0 h 4.195312 V 4 H 10 Z m 0,0"
         id="path18" />
    </clipPath>
    <clipPath
       id="clip-2">
      <path
         clip-rule="nonzero"
         d="m 9,4 h 5 V 16.8125 H 9 Z m 0,0"
         id="path21" />
    </clipPath>
    <clipPath
       id="clipPath27113">
      <path
         clip-rule="nonzero"
         d="m 7,0 h 3.027344 V 3 H 7 Z m 0,0"
         id="path27111" />
    </clipPath>
    <clipPath
       id="clipPath32209">
      <path
         clip-rule="nonzero"
         d="M 0,0 H 5.953125 V 8 H 0 Z m 0,0"
         id="path32207" />
    </clipPath>
  </defs>
  <g
     inkscape:label="Calque 1"
     inkscape:groupmode="layer"
     id="layer1"
     transform="translate(-107.156, -29.8071)">
    <g
       inkscape:label="WireframeSphere"
       transform="translate(145.38854,71.569792)"
       id="g17164"
       style="stroke:#adadad;stroke-opacity:1">
      <g
         inkscape:label="Lines of Longitude"
         id="g17160"
         style="stroke:#adadad;stroke-width:0.192552;stroke-dasharray:none;stroke-opacity:1"
         transform="matrix(-1.8950497,0,0,0.99948221,0.2559833,0)">
        <path
           style="fill:none;stroke:#adadad;stroke-width:0.192552;stroke-dasharray:none;stroke-opacity:1"
           id="path17158"
           sodipodi:type="arc"
           sodipodi:cx="0"
           sodipodi:cy="0"
           sodipodi:rx="6.4018502"
           sodipodi:ry="26.458334"
           sodipodi:start="1.579523"
           sodipodi:end="4.6949357"
           sodipodi:arc-type="arc"
           d="M -0.05586615,26.457327 A 6.4018502,26.458334 0 0 1 -6.4017893,0.11544538 6.4018502,26.458334 0 0 1 -0.11172761,-26.454304"
           sodipodi:open="true" />
      </g>
      <circle
         style="fill:none;stroke:#adadad;stroke-width:0.264583;stroke-opacity:1"
         id="path17162"
         cx="0"
         cy="0"
         r="26.458334" />
      <path
         style="fill:none;stroke:#000000;stroke-width:0.264583px;stroke-linecap:butt;stroke-linejoin:miter;stroke-opacity:1"
         d="M 0.13229333,-0.132292 16.007293,7.5406247"
         id="path18988"
         sodipodi:nodetypes="cc" />
      <g
         inkscape:label="Lines of Longitude"
         id="g19754"
         style="stroke:#00a7bc;stroke-width:0.217983;stroke-dasharray:none;stroke-opacity:1"
         transform="matrix(-1.8950497,0,0,0.99948221,0.2559833,0)">
        <path
           style="fill:none;stroke:#00a7bc;stroke-width:0.217983;stroke-dasharray:none;stroke-opacity:1"
           id="ellipse19752"
           sodipodi:type="arc"
           sodipodi:cx="0"
           sodipodi:cy="0"
           sodipodi:rx="6.4018502"
           sodipodi:ry="26.458334"
           sodipodi:start="3.7734018"
           sodipodi:end="4.701917"
           sodipodi:arc-type="arc"
           d="m -5.1660392,-15.626441 a 6.4018502,26.458334 0 0 1 5.09900038,-10.830442"
           sodipodi:open="true" />
      </g>
    </g>
    <path
       style="fill:none;stroke:#000000;stroke-width:0.264583px;stroke-linecap:butt;stroke-linejoin:miter;stroke-dasharray:1.05833, 0.264583;stroke-dashoffset:0;stroke-opacity:1"
       d="m 155.45635,54.421509 0.19371,22.477924"
       id="path39312"
       sodipodi:nodetypes="cc" />
    <g
       inkscape:label="WireframeSphere"
       transform="matrix(6.12323e-17 -1 1 6.12323e-17 145.389 71.5698)"
       id="g17179"
       style="stroke:#000000;stroke-opacity:1">
      <g
         inkscape:label="Lines of Longitude"
         id="g17175"
         style="stroke:#adadad;stroke-opacity:1">
        <path
           style="fill:none;stroke:#adadad;stroke-width:0.264583;stroke-opacity:1"
           id="ellipse17173"
           sodipodi:type="arc"
           sodipodi:cx="0"
           sodipodi:cy="0"
           sodipodi:rx="6.4018502"
           sodipodi:ry="26.458334"
           sodipodi:start="1.4940018"
           sodipodi:end="4.7455502"
           sodipodi:arc-type="arc"
           d="M 0.49114398,26.380355 A 6.4018502,26.458334 0 0 1 -5.4112395,14.138074 6.4018502,26.458334 0 0 1 -5.5553046,-13.149102 6.4018502,26.458334 0 0 1 0.21225425,-26.443788"
           sodipodi:open="true" />
      </g>
      <circle
         style="fill:none;stroke:#000000;stroke-width:0.264583;stroke-opacity:1"
         id="circle17177"
         cx="0"
         cy="0"
         r="26.458334" />
      <path
         style="fill:none;stroke:#00a7bc;stroke-width:1;stroke-linecap:round;stroke-linejoin:miter;stroke-dasharray:none;stroke-opacity:1;marker-end:url(#TriangleStart)"
         d="M 0.132296,0.39687267 14.460162,9.3205653"
         id="path19478"
         sodipodi:nodetypes="cc"
         inkscape:transform-center-x="-5.4701176"
         inkscape:transform-center-y="-2.8904622" />
      <g
         inkscape:label="Lines of Longitude"
         id="g19550"
         style="stroke:#adadad;stroke-width:0.5;stroke-dasharray:none;stroke-opacity:1">
        <path
           style="fill:none;stroke:#00a7bc;stroke-width:0.5;stroke-dasharray:none;stroke-opacity:1"
           id="ellipse19548"
           sodipodi:type="arc"
           sodipodi:cx="0"
           sodipodi:cy="0"
           sodipodi:rx="6.4018502"
           sodipodi:ry="26.458334"
           sodipodi:start="2.6686084"
           sodipodi:end="3.5988689"
           sodipodi:arc-type="arc"
           d="m -5.699009,12.05296 a 6.4018502,26.458334 0 0 1 -0.045105,-23.734469"
           sodipodi:open="true" />
      </g>
      <path
         style="fill:#800000;stroke:#c90000;stroke-width:0.729464;stroke-linecap:round;stroke-linejoin:miter;stroke-dasharray:none;stroke-opacity:1;marker-end:url(#TriangleStart)"
         d="m 15.268668,10.310114 -5.9890656,2.05916"
         id="path24728"
         sodipodi:nodetypes="cc"
         inkscape:transform-center-x="-0.9836645"
         inkscape:transform-center-y="3.1182791" />
      <g
         inkscape:label=""
         transform="matrix(0,1.6046961,-1.6046961,0,3.7364563,27.590768)"
         id="g31910"
         style="stroke:none;stroke-width:0.3;stroke-dasharray:none">
        <g
           fill="#000000"
           fill-opacity="1"
           id="g12"
           transform="matrix(0.352778,0,0,0.352778,-0.15434,0.046258)"
           style="stroke:none;stroke-width:0.850393;stroke-dasharray:none">
          <g
             id="use10"
             transform="translate(0,4.697)"
             style="stroke:none;stroke-width:0.850393;stroke-dasharray:none">
            <path
               d="m 4.0625,-4.125 c -0.1875,-0.40625 -0.5,-0.703125 -1,-0.703125 -1.28125,0 -2.625,1.609375 -2.625,3.203125 0,1.03125 0.59375,1.75 1.453125,1.75 0.21875,0 0.765625,-0.046875 1.40625,-0.828125 0.09375,0.46875 0.484375,0.828125 1,0.828125 0.375,0 0.625,-0.25 0.8125,-0.609375 C 5.296875,-0.875 5.4375,-1.53125 5.4375,-1.5625 5.4375,-1.671875 5.328125,-1.671875 5.296875,-1.671875 5.1875,-1.671875 5.1875,-1.625 5.140625,-1.46875 4.96875,-0.765625 4.765625,-0.125 4.3125,-0.125 c -0.28125,0 -0.328125,-0.28125 -0.328125,-0.5 0,-0.234375 0.03125,-0.328125 0.15625,-0.796875 C 4.25,-1.890625 4.28125,-2 4.375,-2.40625 L 4.765625,-3.9375 C 4.84375,-4.25 4.84375,-4.265625 4.84375,-4.3125 c 0,-0.1875 -0.125,-0.296875 -0.3125,-0.296875 -0.265625,0 -0.4375,0.25 -0.46875,0.484375 z m -0.703125,2.828125 c -0.0625,0.203125 -0.0625,0.21875 -0.21875,0.40625 C 2.65625,-0.296875 2.21875,-0.125 1.90625,-0.125 c -0.546875,0 -0.703125,-0.59375 -0.703125,-1.015625 0,-0.546875 0.359375,-1.890625 0.609375,-2.390625 0.34375,-0.640625 0.828125,-1.046875 1.265625,-1.046875 0.703125,0 0.859375,0.890625 0.859375,0.953125 0,0.0625 -0.015625,0.140625 -0.03125,0.1875 z m 0,0"
               id="path31906"
               style="stroke:none;stroke-width:0.850393;stroke-dasharray:none" />
          </g>
        </g>
      </g>
      <g
         inkscape:label=""
         transform="matrix(0,1.2492988,-1.2492988,0,4.5405478,-2.9085311)"
         id="g32234"
         style="stroke:none;stroke-width:0.3;stroke-dasharray:none">
        <g
           clip-path="url(#clip-0)"
           id="g17"
           transform="matrix(0.352778,0,0,0.352778,-0.148828,0.0827704)"
           style="stroke:none;stroke-width:0.850393;stroke-dasharray:none">
          <g
             fill="#000000"
             fill-opacity="1"
             id="g15"
             style="stroke:none;stroke-width:0.850393;stroke-dasharray:none">
            <g
               id="use13"
               transform="translate(0,7.0310001)"
               style="stroke:none;stroke-width:0.850393;stroke-dasharray:none">
              <path
                 d="m 5.015625,-3.484375 c 0,-0.875 -0.046875,-1.75 -0.4375,-2.5625 -0.5,-1.046875 -1.390625,-1.21875 -1.859375,-1.21875 -0.640625,0 -1.4375,0.28125 -1.890625,1.296875 -0.34375,0.75 -0.40625,1.609375 -0.40625,2.484375 0,0.8125 0.046875,1.796875 0.5,2.625 0.46875,0.875 1.265625,1.09375 1.796875,1.09375 0.578125,0 1.421875,-0.21875 1.890625,-1.265625 0.359375,-0.75 0.40625,-1.59375 0.40625,-2.453125 z M 2.71875,0 C 2.296875,0 1.640625,-0.265625 1.453125,-1.3125 c -0.125,-0.65625 -0.125,-1.671875 -0.125,-2.3125 0,-0.6875 0,-1.40625 0.09375,-2 C 1.625,-6.921875 2.4375,-7.03125 2.71875,-7.03125 c 0.359375,0 1.078125,0.203125 1.28125,1.28125 0.109375,0.609375 0.109375,1.4375 0.109375,2.125 0,0.828125 0,1.5625 -0.125,2.265625 C 3.828125,-0.328125 3.203125,0 2.71875,0 Z m 0,0"
                 id="path23"
                 style="stroke:none;stroke-width:0.850393;stroke-dasharray:none" />
            </g>
          </g>
        </g>
      </g>
      <g
         inkscape:label=""
         transform="matrix(0,0.75446006,-0.75446006,0,-2.5584428,3.6684913)"
         id="g34172"
         style="stroke:none">
        <g
           fill="#000000"
           fill-opacity="1"
           id="g34170"
           transform="matrix(0.352778,0,0,0.352778,-0.110243,0.046258)"
           style="stroke:none">
          <g
             id="g34168"
             transform="translate(0,4.697)"
             style="stroke:none">
            <path
               d="m 0.953125,-0.640625 c -0.03125,0.15625 -0.09375,0.40625 -0.09375,0.46875 0,0.1875 0.15625,0.296875 0.3125,0.296875 0.140625,0 0.328125,-0.09375 0.40625,-0.3125 0.03125,-0.046875 0.390625,-1.53125 0.4375,-1.71875 0.09375,-0.359375 0.28125,-1.125 0.34375,-1.421875 C 2.40625,-3.46875 2.71875,-3.984375 2.984375,-4.21875 3.0625,-4.296875 3.375,-4.578125 3.84375,-4.578125 c 0.296875,0 0.453125,0.125 0.46875,0.125 -0.328125,0.0625 -0.578125,0.3125 -0.578125,0.609375 0,0.171875 0.125,0.375 0.421875,0.375 0.296875,0 0.59375,-0.25 0.59375,-0.640625 0,-0.390625 -0.34375,-0.71875 -0.90625,-0.71875 -0.703125,0 -1.1875,0.546875 -1.390625,0.84375 -0.09375,-0.484375 -0.484375,-0.84375 -0.984375,-0.84375 -0.515625,0 -0.71875,0.4375 -0.8125,0.625 -0.203125,0.375 -0.34375,1.03125 -0.34375,1.0625 0,0.109375 0.109375,0.109375 0.140625,0.109375 0.109375,0 0.109375,-0.015625 0.171875,-0.25 0.1875,-0.78125 0.40625,-1.296875 0.796875,-1.296875 0.1875,0 0.34375,0.078125 0.34375,0.5 0,0.234375 -0.03125,0.34375 -0.171875,0.921875 z m 0,0"
               id="path34166"
               style="stroke:none" />
          </g>
        </g>
      </g>
    </g>
    <path
       style="fill:#0000ff;stroke:#0000ff;stroke-width:0.264583px;stroke-linecap:butt;stroke-linejoin:miter;stroke-opacity:1;marker-end:url(#Arrow2)"
       d="m 107.15625,71.437499 c 78.05208,0 78.05208,0 78.05208,0"
       id="path17181" />
    <path
       style="fill:#0000ff;stroke:#0000ff;stroke-width:0.264583px;stroke-linecap:butt;stroke-linejoin:miter;stroke-opacity:1;marker-end:url(#marker17770)"
       d="M 145.52083,71.4375 112.44792,88.635417"
       id="path17183"
       sodipodi:nodetypes="cc" />
    <path
       style="fill:#0000ff;stroke:#0000ff;stroke-width:0.264583px;stroke-linecap:butt;stroke-linejoin:miter;stroke-opacity:1;marker-end:url(#Arrow2)"
       d="m 145.65312,109.80208 c 0,-78.05208 0,-78.05208 0,-78.05208"
       id="path17185" />
    <g
       inkscape:label=""
       transform="translate(113.22513,89.864625)"
       id="g21378"
       style="fill:#0000ff">
      <g
         clip-path="url(#clip-0)"
         id="g32246"
         transform="matrix(0.352778,0,0,0.352778,-0.170877,0.0641173)"
         style="fill:#0000ff">
        <g
           fill="#000000"
           fill-opacity="1"
           id="g32244"
           style="fill:#0000ff">
          <g
             id="g32242"
             transform="translate(0,7.4120002)"
             style="fill:#0000ff">
            <path
               d="m 8.15625,-7.03125 c -0.546875,0.109375 -0.75,0.515625 -0.75,0.84375 0,0.421875 0.328125,0.5625 0.5625,0.5625 0.515625,0 0.875,-0.453125 0.875,-0.921875 0,-0.71875 -0.8125,-1.046875 -1.546875,-1.046875 -1.046875,0 -1.625,1.03125 -1.78125,1.359375 -0.40625,-1.296875 -1.46875,-1.359375 -1.78125,-1.359375 -1.75,0 -2.6875,2.25 -2.6875,2.640625 0,0.0625 0.078125,0.15625 0.1875,0.15625 0.140625,0 0.171875,-0.109375 0.21875,-0.171875 C 2.03125,-6.890625 3.1875,-7.25 3.6875,-7.25 c 0.765625,0 0.921875,0.71875 0.921875,1.140625 0,0.375 -0.09375,0.765625 -0.296875,1.59375 L 3.71875,-2.15625 c -0.25,1.03125 -0.75,1.984375 -1.671875,1.984375 -0.078125,0 -0.515625,0 -0.875,-0.21875 0.625,-0.125 0.75,-0.640625 0.75,-0.84375 0,-0.34375 -0.25,-0.5625 -0.578125,-0.5625 -0.40625,0 -0.859375,0.375 -0.859375,0.921875 0,0.71875 0.8125,1.046875 1.546875,1.046875 0.828125,0 1.40625,-0.65625 1.78125,-1.359375 0.265625,1.015625 1.125,1.359375 1.765625,1.359375 1.75,0 2.6875,-2.25 2.6875,-2.640625 0,-0.078125 -0.0625,-0.15625 -0.171875,-0.15625 -0.15625,0 -0.171875,0.09375 -0.21875,0.234375 -0.46875,1.515625 -1.46875,2.21875 -2.25,2.21875 -0.59375,0 -0.921875,-0.453125 -0.921875,-1.15625 0,-0.375 0.0625,-0.65625 0.34375,-1.78125 l 0.59375,-2.34375 C 5.90625,-6.484375 6.484375,-7.25 7.28125,-7.25 c 0.03125,0 0.515625,0 0.875,0.21875 z m 0,0"
               id="path32240"
               style="fill:#0000ff" />
          </g>
        </g>
      </g>
    </g>
    <g
       inkscape:label=""
       transform="matrix(1.4686733,0,0,1.4686733,147.51686,31.184878)"
       id="g21759"
       style="fill:#0000ff">
      <g
         fill="#000000"
         fill-opacity="1"
         id="g31924"
         transform="matrix(0.352778,0,0,0.352778,-0.110243,0.046258)"
         style="fill:#0000ff">
        <g
           id="g31922"
           transform="translate(0,4.697)"
           style="fill:#0000ff">
          <path
             d="M 5.03125,-3.703125 C 5.09375,-3.9375 5.203125,-4.34375 5.203125,-4.40625 c 0,-0.203125 -0.15625,-0.296875 -0.3125,-0.296875 -0.140625,0 -0.328125,0.09375 -0.40625,0.3125 -0.03125,0.078125 -0.546875,2.15625 -0.625,2.4375 -0.078125,0.328125 -0.09375,0.53125 -0.09375,0.71875 0,0.125 0,0.140625 0.015625,0.203125 -0.265625,0.578125 -0.578125,0.90625 -1.015625,0.90625 -0.875,0 -0.875,-0.796875 -0.875,-0.984375 0,-0.359375 0.0625,-0.78125 0.578125,-2.125 0.109375,-0.328125 0.1875,-0.46875 0.1875,-0.6875 0,-0.5 -0.359375,-0.90625 -0.90625,-0.90625 -1.03125,0 -1.4375,1.59375 -1.4375,1.6875 0,0.109375 0.109375,0.109375 0.140625,0.109375 C 0.5625,-3.03125 0.5625,-3.046875 0.625,-3.234375 0.921875,-4.25 1.34375,-4.578125 1.71875,-4.578125 1.828125,-4.578125 2,-4.5625 2,-4.21875 2,-3.953125 1.875,-3.640625 1.796875,-3.453125 1.3125,-2.171875 1.1875,-1.671875 1.1875,-1.25 c 0,0.984375 0.734375,1.375 1.546875,1.375 0.1875,0 0.703125,0 1.140625,-0.765625 0.28125,0.6875 1.03125,0.765625 1.359375,0.765625 0.8125,0 1.296875,-0.6875 1.578125,-1.34375 0.375,-0.859375 0.71875,-2.3125 0.71875,-2.84375 0,-0.59375 -0.296875,-0.765625 -0.46875,-0.765625 -0.28125,0 -0.546875,0.296875 -0.546875,0.53125 0,0.140625 0.0625,0.203125 0.15625,0.296875 0.125,0.125 0.390625,0.40625 0.390625,0.921875 0,0.375 -0.3125,1.4375 -0.59375,2 C 6.1875,-0.5 5.796875,-0.125 5.265625,-0.125 c -0.515625,0 -0.8125,-0.328125 -0.8125,-0.9375 0,-0.3125 0.078125,-0.65625 0.125,-0.796875 z m 0,0"
             id="path25336"
             style="fill:#0000ff" />
        </g>
      </g>
    </g>
    <g
       inkscape:label=""
       transform="matrix(1.4686733,0,0,1.4686733,182.42635,73.583631)"
       id="g21902"
       style="fill:#0000ff">
      <g
         fill="#000000"
         fill-opacity="1"
         id="g21900"
         transform="matrix(0.352778,0,0,0.352778,-0.110243,0.046258)"
         style="fill:#0000ff">
        <g
           id="g21898"
           transform="translate(0,4.697)"
           style="fill:#0000ff">
          <path
             d="m 5.296875,-4.15625 c 0.046875,-0.15625 0.046875,-0.171875 0.046875,-0.25 0,-0.203125 -0.15625,-0.296875 -0.3125,-0.296875 -0.109375,0 -0.28125,0.0625 -0.390625,0.234375 C 4.625,-4.421875 4.53125,-4.078125 4.5,-3.875 4.421875,-3.59375 4.34375,-3.296875 4.28125,-3.015625 l -0.5,1.96875 C 3.734375,-0.890625 3.265625,-0.125 2.546875,-0.125 2,-0.125 1.875,-0.59375 1.875,-1 c 0,-0.5 0.1875,-1.1875 0.5625,-2.140625 0.171875,-0.453125 0.21875,-0.5625 0.21875,-0.78125 0,-0.5 -0.359375,-0.90625 -0.90625,-0.90625 -1.03125,0 -1.4375,1.59375 -1.4375,1.6875 0,0.109375 0.109375,0.109375 0.140625,0.109375 0.109375,0 0.109375,-0.015625 0.171875,-0.203125 0.296875,-1.015625 0.734375,-1.34375 1.09375,-1.34375 0.09375,0 0.28125,0 0.28125,0.34375 0,0.28125 -0.109375,0.5625 -0.1875,0.765625 -0.4375,1.15625 -0.640625,1.78125 -0.640625,2.296875 0,0.96875 0.6875,1.296875 1.34375,1.296875 0.421875,0 0.78125,-0.1875 1.09375,-0.5 C 3.46875,0.203125 3.34375,0.734375 2.90625,1.3125 2.625,1.671875 2.203125,2 1.703125,2 1.546875,2 1.0625,1.96875 0.875,1.53125 c 0.171875,0 0.3125,0 0.46875,-0.125 C 1.453125,1.3125 1.5625,1.171875 1.5625,0.953125 c 0,-0.328125 -0.296875,-0.375 -0.40625,-0.375 -0.25,0 -0.609375,0.171875 -0.609375,0.703125 0,0.546875 0.484375,0.953125 1.15625,0.953125 1.125,0 2.25,-0.984375 2.546875,-2.21875 z m 0,0"
             id="path21896"
             style="fill:#0000ff" />
        </g>
      </g>
    </g>
    <g
       id="g24488"
       style="fill:#00a7bc;fill-opacity:1"
       transform="translate(46.815999,-16.255318)">
      <g
         inkscape:label=""
         transform="translate(107.68057,65.435439)"
         id="g23235"
         style="fill:#00a7bc;fill-opacity:1">
        <g
           fill="#000000"
           fill-opacity="1"
           id="g23233"
           transform="matrix(0.352778,0,0,0.352778,-0.0881944,0.0117739)"
           style="fill:#00a7bc;fill-opacity:1">
          <g
             id="g23231"
             transform="translate(0,7.5760002)"
             style="fill:#00a7bc;fill-opacity:1">
            <path
               d="M 1.671875,-3.34375 C 0.484375,-2.546875 0.25,-1.53125 0.25,-1.140625 c 0,0.53125 0.296875,0.828125 0.3125,0.875 C 0.921875,0.09375 1.015625,0.125 1.828125,0.4375 L 3.15625,0.953125 C 3.3125,1.03125 3.53125,1.09375 3.53125,1.421875 3.53125,1.671875 3.34375,2 3,2 2.515625,2 2.15625,1.734375 2.046875,1.640625 1.96875,1.609375 1.96875,1.59375 1.921875,1.59375 c -0.09375,0 -0.109375,0.078125 -0.109375,0.125 0,0.125 0.578125,0.515625 1.1875,0.515625 0.671875,0 1.140625,-0.625 1.140625,-1.171875 0,-0.515625 -0.40625,-0.71875 -0.53125,-0.765625 C 3.453125,0.234375 3.09375,0.09375 2.9375,0.046875 2.71875,-0.046875 2.515625,-0.125 2.28125,-0.203125 L 1.625,-0.46875 C 1.140625,-0.671875 0.8125,-0.984375 0.8125,-1.4375 c 0,-0.453125 0.421875,-1.390625 1.34375,-1.859375 0.390625,0.140625 0.71875,0.140625 0.953125,0.140625 0.328125,0 1.015625,0 1.015625,-0.328125 0,-0.28125 -0.46875,-0.296875 -0.890625,-0.296875 -0.203125,0 -0.515625,0 -0.921875,0.125 C 2.03125,-3.9375 1.984375,-4.296875 1.984375,-4.5 c 0,-0.609375 0.390625,-1.453125 1.21875,-1.859375 0.1875,0.234375 0.4375,0.234375 0.6875,0.234375 0.28125,0 0.96875,0 0.96875,-0.328125 0,-0.28125 -0.46875,-0.296875 -0.90625,-0.296875 -0.140625,0 -0.390625,0 -0.6875,0.046875 C 3.234375,-6.796875 3.21875,-6.875 3.21875,-7.0625 c 0,-0.140625 0.046875,-0.375 0.046875,-0.390625 0,-0.09375 -0.046875,-0.15625 -0.125,-0.15625 -0.203125,0 -0.203125,0.515625 -0.203125,0.546875 0,0.21875 0.078125,0.375 0.078125,0.421875 -1.15625,0.328125 -1.90625,1.203125 -1.90625,2.03125 0,0.40625 0.203125,0.875 0.71875,1.15625 z m 1.78125,-3.109375 c 0.171875,-0.0625 0.390625,-0.0625 0.515625,-0.0625 0.375,0 0.421875,0.015625 0.609375,0.0625 -0.078125,0.046875 -0.1875,0.09375 -0.671875,0.09375 -0.203125,0 -0.34375,0 -0.453125,-0.09375 z m -0.859375,2.96875 c 0.25,-0.0625 0.5,-0.0625 0.625,-0.0625 0.375,0 0.421875,0.015625 0.625,0.0625 -0.09375,0.046875 -0.203125,0.09375 -0.703125,0.09375 -0.25,0 -0.34375,0 -0.546875,-0.09375 z m 0,0"
               id="path23229"
               style="fill:#00a7bc;fill-opacity:1" />
          </g>
        </g>
      </g>
      <g
         inkscape:label=""
         transform="matrix(0.61799876,0,0,0.61799876,109.38424,68.063799)"
         id="g23617"
         style="fill:#00a7bc;fill-opacity:1">
        <g
           fill="#000000"
           fill-opacity="1"
           id="g23615"
           transform="matrix(0.352778,0,0,0.352778,-0.192925,0.0827704)"
           style="fill:#00a7bc;fill-opacity:1">
          <g
             id="g23613"
             transform="translate(0,7.0310001)"
             style="fill:#00a7bc;fill-opacity:1">
            <path
               d="m 1.390625,-0.84375 1.15625,-1.125 c 1.703125,-1.5 2.34375,-2.09375 2.34375,-3.171875 0,-1.25 -0.96875,-2.125 -2.3125,-2.125 -1.21875,0 -2.03125,1 -2.03125,1.96875 0,0.625 0.546875,0.625 0.578125,0.625 0.1875,0 0.5625,-0.140625 0.5625,-0.578125 0,-0.296875 -0.1875,-0.578125 -0.578125,-0.578125 -0.078125,0 -0.109375,0 -0.140625,0.015625 0.25,-0.703125 0.84375,-1.109375 1.46875,-1.109375 1,0 1.46875,0.875 1.46875,1.78125 0,0.859375 -0.546875,1.734375 -1.140625,2.40625 l -2.09375,2.328125 c -0.125,0.125 -0.125,0.140625 -0.125,0.40625 H 4.59375 L 4.890625,-1.890625 H 4.625 C 4.5625,-1.578125 4.5,-1.09375 4.390625,-0.921875 4.3125,-0.84375 3.59375,-0.84375 3.34375,-0.84375 Z m 0,0"
               id="path23611"
               style="fill:#00a7bc;fill-opacity:1" />
          </g>
        </g>
      </g>
    </g>
    <g
       id="g1196"
       transform="matrix(1.4000112,0,0,1.4000112,-59.017206,-25.299345)">
      <g
         clip-path="url(#clip-0)"
         id="g20"
         transform="matrix(0.39932875,0,0,0.39932875,146.89699,58.331882)"
         style="fill:#00a7bc;fill-opacity:1">
        <g
           fill="#000000"
           fill-opacity="1"
           id="g18"
           style="fill:#00a7bc;fill-opacity:1">
          <g
             id="use16"
             transform="translate(0.28299999,7.7940001)"
             style="fill:#00a7bc;fill-opacity:1">
            <path
               d="m 5.859375,-6.484375 c -0.15625,0.140625 -0.515625,0.4375 -0.515625,0.640625 0,0.109375 0.109375,0.21875 0.21875,0.21875 0.09375,0 0.15625,-0.078125 0.203125,-0.140625 C 5.90625,-5.9375 6.15625,-6.234375 6.625,-6.484375 6.703125,-6.515625 6.8125,-6.578125 6.8125,-6.703125 6.8125,-6.8125 6.734375,-6.875 6.65625,-6.921875 6.421875,-7.09375 6.296875,-7.28125 6.21875,-7.546875 6.1875,-7.640625 6.15625,-7.78125 6,-7.78125 c -0.15625,0 -0.21875,0.140625 -0.21875,0.21875 0,0.0625 0.09375,0.40625 0.265625,0.640625 h -3.6875 c -0.171875,0 -0.375,0 -0.375,0.21875 0,0.21875 0.203125,0.21875 0.375,0.21875 z m 0,0"
               id="path30"
               style="fill:#00a7bc;fill-opacity:1" />
          </g>
        </g>
      </g>
      <g
         fill="#000000"
         fill-opacity="1"
         id="g24"
         transform="matrix(0.39932875,0,0,0.39932875,147.43905,58.092305)"
         style="fill:#00a7bc;fill-opacity:1">
        <g
           id="use22"
           transform="translate(0,10.673)"
           style="fill:#00a7bc;fill-opacity:1">
          <path
             d="M 1.671875,-3.34375 C 0.484375,-2.546875 0.25,-1.53125 0.25,-1.140625 c 0,0.53125 0.296875,0.828125 0.3125,0.875 C 0.921875,0.09375 1.015625,0.125 1.828125,0.4375 L 3.15625,0.953125 C 3.3125,1.03125 3.53125,1.09375 3.53125,1.421875 3.53125,1.671875 3.34375,2 3,2 2.515625,2 2.15625,1.734375 2.046875,1.640625 1.96875,1.609375 1.96875,1.59375 1.921875,1.59375 c -0.09375,0 -0.109375,0.078125 -0.109375,0.125 0,0.125 0.578125,0.515625 1.1875,0.515625 0.671875,0 1.140625,-0.625 1.140625,-1.171875 0,-0.515625 -0.40625,-0.71875 -0.53125,-0.765625 C 3.453125,0.234375 3.09375,0.09375 2.9375,0.046875 2.71875,-0.046875 2.515625,-0.125 2.28125,-0.203125 L 1.625,-0.46875 C 1.140625,-0.671875 0.8125,-0.984375 0.8125,-1.4375 c 0,-0.453125 0.421875,-1.390625 1.34375,-1.859375 0.390625,0.140625 0.71875,0.140625 0.953125,0.140625 0.328125,0 1.015625,0 1.015625,-0.328125 0,-0.28125 -0.46875,-0.296875 -0.890625,-0.296875 -0.203125,0 -0.515625,0 -0.921875,0.125 C 2.03125,-3.9375 1.984375,-4.296875 1.984375,-4.5 c 0,-0.609375 0.390625,-1.453125 1.21875,-1.859375 0.1875,0.234375 0.4375,0.234375 0.6875,0.234375 0.28125,0 0.96875,0 0.96875,-0.328125 0,-0.28125 -0.46875,-0.296875 -0.90625,-0.296875 -0.140625,0 -0.390625,0 -0.6875,0.046875 C 3.234375,-6.796875 3.21875,-6.875 3.21875,-7.0625 c 0,-0.140625 0.046875,-0.375 0.046875,-0.390625 0,-0.09375 -0.046875,-0.15625 -0.125,-0.15625 -0.203125,0 -0.203125,0.515625 -0.203125,0.546875 0,0.21875 0.078125,0.375 0.078125,0.421875 -1.15625,0.328125 -1.90625,1.203125 -1.90625,2.03125 0,0.40625 0.203125,0.875 0.71875,1.15625 z m 1.78125,-3.109375 c 0.171875,-0.0625 0.390625,-0.0625 0.515625,-0.0625 0.375,0 0.421875,0.015625 0.609375,0.0625 -0.078125,0.046875 -0.1875,0.09375 -0.671875,0.09375 -0.203125,0 -0.34375,0 -0.453125,-0.09375 z m -0.859375,2.96875 c 0.25,-0.0625 0.5,-0.0625 0.625,-0.0625 0.375,0 0.421875,0.015625 0.625,0.0625 -0.09375,0.046875 -0.203125,0.09375 -0.703125,0.09375 -0.25,0 -0.34375,0 -0.546875,-0.09375 z m 0,0"
             id="path34"
             style="fill:#00a7bc;fill-opacity:1" />
        </g>
      </g>
    </g>
    <g
       id="g28497"
       style="fill:#c90000;fill-opacity:1;stroke:#c90000;stroke-opacity:1"
       transform="translate(0.12657968,1.0256532)">
      <g
         inkscape:label=""
         transform="translate(158.55272,55.115584)"
         id="g27154"
         style="fill:#c90000;fill-opacity:1;stroke:#c90000;stroke-width:0.2;stroke-dasharray:none;stroke-opacity:1">
        <g
           fill="#000000"
           fill-opacity="1"
           id="g22"
           transform="matrix(0.352778,0,0,0.352778,-0.132292,-0.00449797)"
           style="fill:#c90000;fill-opacity:1;stroke:#c90000;stroke-width:0.566929;stroke-dasharray:none;stroke-opacity:1">
          <g
             id="use20"
             transform="translate(0,10.673)"
             style="fill:#c90000;fill-opacity:1;stroke:#c90000;stroke-width:0.566929;stroke-dasharray:none;stroke-opacity:1">
            <path
               d="M 4.140625,-0.59375 V 0.125 L 5.75,0 v -0.34375 c -0.765625,0 -0.859375,-0.078125 -0.859375,-0.609375 V -7.5625 l -1.5625,0.109375 v 0.34375 c 0.765625,0 0.84375,0.078125 0.84375,0.609375 v 2.359375 c -0.3125,-0.390625 -0.78125,-0.6875 -1.375,-0.6875 -1.28125,0 -2.421875,1.078125 -2.421875,2.484375 0,1.390625 1.0625,2.46875 2.3125,2.46875 0.6875,0 1.1875,-0.375 1.453125,-0.71875 z m 0,-2.921875 v 2.234375 c 0,0.1875 0,0.21875 -0.109375,0.390625 C 3.703125,-0.359375 3.203125,-0.125 2.734375,-0.125 2.25,-0.125 1.859375,-0.40625 1.59375,-0.8125 1.3125,-1.265625 1.28125,-1.890625 1.28125,-2.328125 c 0,-0.40625 0.015625,-1.0625 0.328125,-1.546875 C 1.84375,-4.21875 2.25,-4.578125 2.84375,-4.578125 c 0.390625,0 0.84375,0.15625 1.1875,0.65625 0.109375,0.1875 0.109375,0.203125 0.109375,0.40625 z m 0,0"
               id="path38"
               style="fill:#c90000;fill-opacity:1;stroke:#c90000;stroke-width:0.566929;stroke-dasharray:none;stroke-opacity:1" />
          </g>
        </g>
        <g
           fill="#000000"
           fill-opacity="1"
           id="g32"
           transform="matrix(0.352778,0,0,0.352778,-0.132292,-0.00449797)"
           style="fill:#c90000;fill-opacity:1;stroke:#c90000;stroke-width:0.566929;stroke-dasharray:none;stroke-opacity:1">
          <g
             id="use30"
             transform="translate(6.0609999,10.673)"
             style="fill:#c90000;fill-opacity:1;stroke:#c90000;stroke-width:0.566929;stroke-dasharray:none;stroke-opacity:1">
            <path
               d="m 2.8125,-7.453125 c 0,0 0,-0.109375 -0.140625,-0.109375 -0.25,0 -1.046875,0.078125 -1.328125,0.109375 -0.09375,0 -0.203125,0.015625 -0.203125,0.21875 0,0.125 0.109375,0.125 0.265625,0.125 0.53125,0 0.53125,0.09375 0.53125,0.1875 L 1.90625,-6.703125 0.53125,-1.25 C 0.5,-1.140625 0.484375,-1.0625 0.484375,-0.890625 c 0,0.625 0.46875,1.015625 0.984375,1.015625 0.359375,0 0.640625,-0.21875 0.828125,-0.609375 C 2.484375,-0.90625 2.625,-1.53125 2.625,-1.5625 c 0,-0.109375 -0.109375,-0.109375 -0.140625,-0.109375 -0.109375,0 -0.125,0.046875 -0.15625,0.203125 C 2.15625,-0.765625 1.9375,-0.125 1.5,-0.125 c -0.328125,0 -0.328125,-0.34375 -0.328125,-0.5 0,-0.265625 0.015625,-0.3125 0.078125,-0.515625 z m 0,0"
               id="path46"
               style="fill:#c90000;fill-opacity:1;stroke:#c90000;stroke-width:0.566929;stroke-dasharray:none;stroke-opacity:1" />
          </g>
        </g>
      </g>
      <g
         clip-path="url(#clip-0)"
         id="g28408"
         transform="matrix(0.65780011,0,0,0.65780011,157.17975,54.434866)"
         style="fill:#c90000;fill-opacity:1;stroke:#c90000;stroke-width:0.304044;stroke-dasharray:none;stroke-opacity:1">
        <g
           fill="#000000"
           fill-opacity="1"
           id="g28406"
           style="fill:#c90000;fill-opacity:1;stroke:#c90000;stroke-width:0.304044;stroke-dasharray:none;stroke-opacity:1">
          <g
             id="g28404"
             transform="translate(0.28299999,7.7940001)"
             style="fill:#c90000;fill-opacity:1;stroke:#c90000;stroke-width:0.304044;stroke-dasharray:none;stroke-opacity:1">
            <path
               d="m 5.859375,-6.484375 c -0.15625,0.140625 -0.515625,0.4375 -0.515625,0.640625 0,0.109375 0.109375,0.21875 0.21875,0.21875 0.09375,0 0.15625,-0.078125 0.203125,-0.140625 C 5.90625,-5.9375 6.15625,-6.234375 6.625,-6.484375 6.703125,-6.515625 6.8125,-6.578125 6.8125,-6.703125 6.8125,-6.8125 6.734375,-6.875 6.65625,-6.921875 6.421875,-7.09375 6.296875,-7.28125 6.21875,-7.546875 6.1875,-7.640625 6.15625,-7.78125 6,-7.78125 c -0.15625,0 -0.21875,0.140625 -0.21875,0.21875 0,0.0625 0.09375,0.40625 0.265625,0.640625 h -3.6875 c -0.171875,0 -0.375,0 -0.375,0.21875 0,0.21875 0.203125,0.21875 0.375,0.21875 z m 0,0"
               id="path28402"
               style="fill:#c90000;fill-opacity:1;stroke:#c90000;stroke-width:0.304044;stroke-dasharray:none;stroke-opacity:1" />
          </g>
        </g>
      </g>
    </g>
    <g
       id="g24478"
       style="fill:#00a7bc;fill-opacity:1"
       transform="translate(39.811569,13.56643)">
      <g
         inkscape:label=""
         transform="matrix(0.61799876,0,0,0.61799876,102.08035,68.011577)"
         id="g23422"
         style="fill:#00a7bc;fill-opacity:1">
        <g
           fill="#000000"
           fill-opacity="1"
           id="g23420"
           transform="matrix(0.352778,0,0,0.352778,-0.341753,0.0827704)"
           style="fill:#00a7bc;fill-opacity:1">
          <g
             id="g23418"
             transform="translate(0,7.0310001)"
             style="fill:#00a7bc;fill-opacity:1">
            <path
               d="m 3.203125,-6.984375 c 0,-0.25 0,-0.28125 -0.25,-0.28125 C 2.28125,-6.5625 1.3125,-6.5625 0.96875,-6.5625 v 0.328125 c 0.21875,0 0.859375,0 1.4375,-0.28125 v 5.65625 c 0,0.390625 -0.046875,0.515625 -1.015625,0.515625 H 1.03125 V 0 c 0.390625,-0.03125 1.328125,-0.03125 1.765625,-0.03125 0.4375,0 1.390625,0 1.765625,0.03125 V -0.34375 H 4.21875 c -0.984375,0 -1.015625,-0.109375 -1.015625,-0.515625 z m 0,0"
               id="path23416"
               style="fill:#00a7bc;fill-opacity:1" />
          </g>
        </g>
      </g>
      <g
         inkscape:label=""
         transform="translate(100.27219,65.435439)"
         id="g24468"
         style="fill:#00a7bc;fill-opacity:1">
        <g
           fill="#000000"
           fill-opacity="1"
           id="g24466"
           transform="matrix(0.352778,0,0,0.352778,-0.0881944,0.0117739)"
           style="fill:#00a7bc;fill-opacity:1">
          <g
             id="g24464"
             transform="translate(0,7.5760002)"
             style="fill:#00a7bc;fill-opacity:1">
            <path
               d="M 1.671875,-3.34375 C 0.484375,-2.546875 0.25,-1.53125 0.25,-1.140625 c 0,0.53125 0.296875,0.828125 0.3125,0.875 C 0.921875,0.09375 1.015625,0.125 1.828125,0.4375 L 3.15625,0.953125 C 3.3125,1.03125 3.53125,1.09375 3.53125,1.421875 3.53125,1.671875 3.34375,2 3,2 2.515625,2 2.15625,1.734375 2.046875,1.640625 1.96875,1.609375 1.96875,1.59375 1.921875,1.59375 c -0.09375,0 -0.109375,0.078125 -0.109375,0.125 0,0.125 0.578125,0.515625 1.1875,0.515625 0.671875,0 1.140625,-0.625 1.140625,-1.171875 0,-0.515625 -0.40625,-0.71875 -0.53125,-0.765625 C 3.453125,0.234375 3.09375,0.09375 2.9375,0.046875 2.71875,-0.046875 2.515625,-0.125 2.28125,-0.203125 L 1.625,-0.46875 C 1.140625,-0.671875 0.8125,-0.984375 0.8125,-1.4375 c 0,-0.453125 0.421875,-1.390625 1.34375,-1.859375 0.390625,0.140625 0.71875,0.140625 0.953125,0.140625 0.328125,0 1.015625,0 1.015625,-0.328125 0,-0.28125 -0.46875,-0.296875 -0.890625,-0.296875 -0.203125,0 -0.515625,0 -0.921875,0.125 C 2.03125,-3.9375 1.984375,-4.296875 1.984375,-4.5 c 0,-0.609375 0.390625,-1.453125 1.21875,-1.859375 0.1875,0.234375 0.4375,0.234375 0.6875,0.234375 0.28125,0 0.96875,0 0.96875,-0.328125 0,-0.28125 -0.46875,-0.296875 -0.90625,-0.296875 -0.140625,0 -0.390625,0 -0.6875,0.046875 C 3.234375,-6.796875 3.21875,-6.875 3.21875,-7.0625 c 0,-0.140625 0.046875,-0.375 0.046875,-0.390625 0,-0.09375 -0.046875,-0.15625 -0.125,-0.15625 -0.203125,0 -0.203125,0.515625 -0.203125,0.546875 0,0.21875 0.078125,0.375 0.078125,0.421875 -1.15625,0.328125 -1.90625,1.203125 -1.90625,2.03125 0,0.40625 0.203125,0.875 0.71875,1.15625 z m 1.78125,-3.109375 c 0.171875,-0.0625 0.390625,-0.0625 0.515625,-0.0625 0.375,0 0.421875,0.015625 0.609375,0.0625 -0.078125,0.046875 -0.1875,0.09375 -0.671875,0.09375 -0.203125,0 -0.34375,0 -0.453125,-0.09375 z m -0.859375,2.96875 c 0.25,-0.0625 0.5,-0.0625 0.625,-0.0625 0.375,0 0.421875,0.015625 0.625,0.0625 -0.09375,0.046875 -0.203125,0.09375 -0.703125,0.09375 -0.25,0 -0.34375,0 -0.546875,-0.09375 z m 0,0"
               id="path24462"
               style="fill:#00a7bc;fill-opacity:1" />
          </g>
        </g>
      </g>
    </g>
    <path
       style="fill:none;stroke:#000000;stroke-width:0.264583px;stroke-linecap:butt;stroke-linejoin:miter;stroke-dasharray:1.05833, 0.264583;stroke-dashoffset:0;stroke-opacity:1"
       d="m 156.26856,76.281885 -22.87794,0.19371"
       id="path1131"
       sodipodi:nodetypes="cc" />
    <path
       style="fill:none;stroke:#000000;stroke-width:0.264583px;stroke-linecap:butt;stroke-linejoin:miter;stroke-dasharray:1.05833, 0.264583;stroke-dashoffset:0;stroke-opacity:1"
       d="M 156.67528,56.657668 144.77877,51.055625"
       id="path1133"
       sodipodi:nodetypes="cc" />
    <path
       style="fill:none;stroke:#000000;stroke-width:0.264583px;stroke-linecap:butt;stroke-linejoin:miter;stroke-dasharray:1.05833, 0.264583;stroke-dashoffset:0;stroke-opacity:1"
       d="m 166.84334,70.987408 -11.89651,5.602043"
       id="path1187"
       sodipodi:nodetypes="cc" />
  </g>
</svg>
