<?xml version="1.0" encoding="UTF-8" standalone="no"?>
<!-- Created with Inkscape (http://www.inkscape.org/) -->

<svg
   width="95.855156mm"
   height="63.813908mm"
   viewBox="0 0 95.855159 63.813906"
   version="1.1"
   id="svg13967"
   sodipodi:docname="tmunu_def.svg"
   inkscape:version="1.2 (dc2aeda, 2022-05-15)"
   xmlns:inkscape="http://www.inkscape.org/namespaces/inkscape"
   xmlns:sodipodi="http://sodipodi.sourceforge.net/DTD/sodipodi-0.dtd"
   xmlns:xlink="http://www.w3.org/1999/xlink"
   xmlns="http://www.w3.org/2000/svg"
   xmlns:svg="http://www.w3.org/2000/svg">
  <sodipodi:namedview
     id="namedview13969"
     pagecolor="#ffffff"
     bordercolor="#666666"
     borderopacity="1.0"
     inkscape:showpageshadow="2"
     inkscape:pageopacity="0.0"
     inkscape:pagecheckerboard="0"
     inkscape:deskcolor="#d1d1d1"
     inkscape:document-units="mm"
     showgrid="true"
     inkscape:zoom="1.8101873"
     inkscape:cx="250.80278"
     inkscape:cy="102.7518"
     inkscape:window-width="1512"
     inkscape:window-height="868"
     inkscape:window-x="0"
     inkscape:window-y="38"
     inkscape:window-maximized="0"
     inkscape:current-layer="layer1">
    <inkscape:grid
       type="xygrid"
       id="grid14471"
       originx="-42.014331"
       originy="-115.46841" />
  </sodipodi:namedview>
  <defs
     id="defs13964">
    <linearGradient
       inkscape:collect="always"
       id="linearGradient29429">
      <stop
         style="stop-color:#ff2500;stop-opacity:1;"
         offset="0"
         id="stop29425" />
      <stop
         style="stop-color:#ff2500;stop-opacity:0;"
         offset="1"
         id="stop29427" />
    </linearGradient>
    <inkscape:path-effect
       effect="bend_path"
       id="path-effect19828"
       is_visible="true"
       lpeversion="1"
       bendpath="m 66.145833,174.625 c 10.583334,0 10.583334,0 10.583334,0"
       prop_scale="0.98986304"
       scale_y_rel="false"
       vertical="false"
       hide_knot="false" />
    <inkscape:path-effect
       effect="bend_path"
       id="path-effect19794"
       is_visible="true"
       lpeversion="1"
       bendpath="m 66.145833,174.625 c 10.583334,0 10.583334,0 10.583334,0"
       prop_scale="0.98986304"
       scale_y_rel="false"
       vertical="false"
       hide_knot="false" />
    <marker
       style="overflow:visible"
       id="Arrow2"
       refX="0"
       refY="0"
       orient="auto-start-reverse"
       inkscape:stockid="Arrow2"
       markerWidth="7.6999998"
       markerHeight="5.5999999"
       viewBox="0 0 7.7 5.6"
       inkscape:isstock="true"
       inkscape:collect="always"
       preserveAspectRatio="xMidYMid">
      <path
         transform="scale(0.7)"
         d="M -2,-4 9,0 -2,4 c 2,-2.33 2,-5.66 0,-8 z"
         style="fill:context-stroke;fill-rule:evenodd;stroke:none"
         id="arrow2L" />
    </marker>
    <inkscape:path-effect
       effect="bend_path"
       id="path-effect19610"
       is_visible="true"
       lpeversion="1"
       bendpath="m 17.501085,46.202865 c 2.800174,0 2.800174,0 2.800174,0"
       prop_scale="1"
       scale_y_rel="false"
       vertical="false"
       hide_knot="false" />
    <inkscape:path-effect
       effect="bend_path"
       id="path-effect19604"
       is_visible="true"
       lpeversion="1"
       bendpath="m 66.145833,174.625 c 10.583334,0 10.583334,0 10.583334,0"
       prop_scale="0.98986304"
       scale_y_rel="false"
       vertical="false"
       hide_knot="false" />
    <inkscape:path-effect
       effect="bend_path"
       id="path-effect19526"
       is_visible="true"
       lpeversion="1"
       bendpath="m 17.501085,46.202865 c 3.500217,0 3.500217,0 3.500217,0"
       prop_scale="1"
       scale_y_rel="false"
       vertical="false"
       hide_knot="false" />
    <inkscape:path-effect
       effect="bend_path"
       id="path-effect19520"
       is_visible="true"
       lpeversion="1"
       bendpath="m 66.145833,174.625 c 13.229167,0 13.229167,0 13.229167,0"
       prop_scale="1"
       scale_y_rel="false"
       vertical="false"
       hide_knot="false" />
    <inkscape:perspective
       sodipodi:type="inkscape:persp3d"
       inkscape:vp_x="0 : -84.686096 : 1"
       inkscape:vp_y="0 : 999.99997 : 0"
       inkscape:vp_z="210.00002 : -84.686096 : 1"
       inkscape:persp3d-origin="105.00001 : -134.1861 : 1"
       id="perspective14587" />
    <marker
       style="overflow:visible"
       id="TriangleStart"
       refX="0"
       refY="0"
       orient="auto-start-reverse"
       inkscape:stockid="TriangleStart"
       markerWidth="3"
       markerHeight="3"
       viewBox="0 0 5.3244081 6.1553851"
       inkscape:isstock="true"
       inkscape:collect="always"
       preserveAspectRatio="xMidYMid">
      <path
         transform="scale(0.5)"
         style="fill:context-stroke;fill-rule:evenodd;stroke:context-stroke;stroke-width:1pt"
         d="M 5.77,0 -2.88,5 V -5 Z"
         id="path135" />
    </marker>
    <clipPath
       id="clip-0">
      <path
         clip-rule="nonzero"
         d="m 8,2 h 5 V 9.996094 H 8 Z m 0,0"
         id="path12" />
    </clipPath>
    <clipPath
       id="clipPath20446">
      <path
         clip-rule="nonzero"
         d="m 8,2 h 5 V 9.996094 H 8 Z m 0,0"
         id="path20444" />
    </clipPath>
    <clipPath
       id="clipPath20615">
      <path
         clip-rule="nonzero"
         d="m 8,2 h 5 V 9.996094 H 8 Z m 0,0"
         id="path20613" />
    </clipPath>
    <clipPath
       id="clipPath20804">
      <path
         clip-rule="nonzero"
         d="M 0,3 H 9 V 14.292969 H 0 Z m 0,0"
         id="path20802" />
    </clipPath>
    <clipPath
       id="clipPath21011">
      <path
         clip-rule="nonzero"
         d="M 0,3 H 9 V 14.292969 H 0 Z m 0,0"
         id="path21009" />
    </clipPath>
    <clipPath
       id="clipPath21459">
      <path
         clip-rule="nonzero"
         d="m 8,7 h 5 v 7.851562 H 8 Z m 0,0"
         id="path15" />
    </clipPath>
    <clipPath
       id="clipPath22493">
      <path
         clip-rule="nonzero"
         d="M 0,0 H 6.804688 V 7.410156 H 0 Z m 0,0"
         id="path8" />
    </clipPath>
    <clipPath
       id="clipPath23532">
      <path
         clip-rule="nonzero"
         d="M 0,0 H 6.804688 V 7.410156 H 0 Z m 0,0"
         id="path23530" />
    </clipPath>
    <clipPath
       id="clipPath24589">
      <path
         clip-rule="nonzero"
         d="M 0,0 H 6.804688 V 7.410156 H 0 Z m 0,0"
         id="path24587" />
    </clipPath>
    <radialGradient
       inkscape:collect="always"
       xlink:href="#linearGradient29429"
       id="radialGradient29431"
       cx="91.080627"
       cy="154.15378"
       fx="91.080627"
       fy="154.15378"
       r="13.590761"
       gradientUnits="userSpaceOnUse"
       gradientTransform="matrix(1.5180746,0,0,1.5180746,-41.656027,-84.644448)" />
    <clipPath
       id="clipPath30118">
      <path
         clip-rule="nonzero"
         d="M 0,0 H 6.804688 V 7.410156 H 0 Z m 0,0"
         id="path30116" />
    </clipPath>
    <clipPath
       id="clipPath34577">
      <path
         clip-rule="nonzero"
         d="M 0,0 H 6.804688 V 7.410156 H 0 Z m 0,0"
         id="path34575" />
    </clipPath>
    <clipPath
       id="clipPath34989">
      <path
         clip-rule="nonzero"
         d="m 0,3 h 7 v 7.945312 H 0 Z m 0,0"
         id="path34987" />
    </clipPath>
    <clipPath
       id="clip-1">
      <path
         clip-rule="nonzero"
         d="m 7,0 h 6.878906 V 8 H 7 Z m 0,0"
         id="path34991" />
    </clipPath>
    <clipPath
       id="clipPath35349">
      <path
         clip-rule="nonzero"
         d="m 0,3 h 7 v 7.945312 H 0 Z m 0,0"
         id="path35347" />
    </clipPath>
    <clipPath
       id="clipPath35353">
      <path
         clip-rule="nonzero"
         d="m 14,3 h 6.683594 v 7.945312 H 14 Z m 0,0"
         id="path35351" />
    </clipPath>
    <clipPath
       id="clipPath35750">
      <path
         clip-rule="nonzero"
         d="M 0,0 H 13.613281 V 7.410156 H 0 Z m 0,0"
         id="path35748" />
    </clipPath>
    <clipPath
       id="clipPath36154">
      <path
         clip-rule="nonzero"
         d="M 0,0 H 13.613281 V 7.410156 H 0 Z m 0,0"
         id="path36152" />
    </clipPath>
    <clipPath
       id="clipPath36579">
      <path
         clip-rule="nonzero"
         d="m 0,3 h 7 v 7.945312 H 0 Z m 0,0"
         id="path36577" />
    </clipPath>
  </defs>
  <g
     inkscape:label="Calque 1"
     inkscape:groupmode="layer"
     id="layer1"
     transform="translate(-42.0143, -115.468)">
    <rect
       style="fill:none;stroke:#000000;stroke-width:0.264999;stroke-opacity:1"
       id="rect14527"
       width="39.6875"
       height="39.687496"
       x="66.145836"
       y="134.9375" />
    <use
       x="0"
       y="0"
       xlink:href="#rect14527"
       id="use14966"
       transform="translate(19.843747,-11.90625)" />
    <path
       style="fill:none;stroke:#000000;stroke-width:0.264583px;stroke-linecap:butt;stroke-linejoin:miter;stroke-opacity:1"
       d="m 66.145832,134.9375 c 19.84375,-11.90625 19.84375,-11.90625 19.84375,-11.90625"
       id="path15694" />
    <path
       style="fill:none;stroke:#000000;stroke-width:0.264583px;stroke-linecap:butt;stroke-linejoin:miter;stroke-opacity:1"
       d="m 105.83333,134.9375 c 19.84375,-11.90625 19.84375,-11.90625 19.84375,-11.90625"
       id="path15696" />
    <path
       style="fill:none;stroke:#000000;stroke-width:0.264583px;stroke-linecap:butt;stroke-linejoin:miter;stroke-opacity:1"
       d="m 105.83333,174.625 c 19.84375,-11.90625 19.84375,-11.90625 19.84375,-11.90625"
       id="path15698" />
    <path
       style="fill:none;stroke:#000000;stroke-width:0.264583px;stroke-linecap:butt;stroke-linejoin:miter;stroke-opacity:1"
       d="m 66.145832,174.625 c 19.84375,-11.90625 19.84375,-11.90625 19.84375,-11.90625"
       id="path15700" />
    <path
       style="fill:none;stroke:#00a7bc;stroke-width:1;stroke-linecap:round;stroke-linejoin:miter;stroke-dasharray:none;stroke-opacity:1;marker-end:url(#TriangleStart)"
       d="m 48.307886,145.93441 11.863395,-3.47298"
       id="path5143"
       sodipodi:nodetypes="cc"
       inkscape:transform-center-x="-5.9849613"
       inkscape:transform-center-y="-1.5675455" />
    <path
       style="fill:none;stroke:#00a7bc;stroke-width:1;stroke-linecap:round;stroke-linejoin:miter;stroke-dasharray:none;stroke-opacity:1;marker-end:url(#TriangleStart)"
       d="m 48.307886,155.19482 11.863395,-3.47298"
       id="path19468"
       sodipodi:nodetypes="cc"
       inkscape:transform-center-x="-5.9849613"
       inkscape:transform-center-y="-1.5675455" />
    <path
       style="fill:none;stroke:#00a7bc;stroke-width:1;stroke-linecap:round;stroke-linejoin:miter;stroke-dasharray:none;stroke-opacity:1;marker-end:url(#TriangleStart)"
       d="m 48.307886,163.66154 11.863395,-3.47298"
       id="path19470"
       sodipodi:nodetypes="cc"
       inkscape:transform-center-x="-5.9849613"
       inkscape:transform-center-y="-1.5675455" />
    <path
       style="fill:none;stroke:#00a7bc;stroke-width:1;stroke-linecap:round;stroke-linejoin:miter;stroke-dasharray:none;stroke-opacity:1;marker-end:url(#TriangleStart)"
       d="m 48.307886,172.12826 11.863395,-3.47298"
       id="path19472"
       sodipodi:nodetypes="cc"
       inkscape:transform-center-x="-5.9849613"
       inkscape:transform-center-y="-1.5675455" />
    <path
       style="fill:none;stroke:#00a7bc;stroke-width:1;stroke-linecap:round;stroke-linejoin:miter;stroke-dasharray:none;stroke-opacity:1;marker-end:url(#TriangleStart)"
       d="M 99.261605,126.50423 111.125,123.03125"
       id="path19474"
       sodipodi:nodetypes="cc"
       inkscape:transform-center-x="-5.9849613"
       inkscape:transform-center-y="-1.5675455" />
    <path
       style="fill:none;stroke:#00a7bc;stroke-width:1;stroke-linecap:round;stroke-linejoin:miter;stroke-dasharray:none;stroke-opacity:1;marker-end:url(#TriangleStart)"
       d="m 119.10535,142.37923 11.8634,-3.47298"
       id="path19476"
       sodipodi:nodetypes="cc"
       inkscape:transform-center-x="-5.9849613"
       inkscape:transform-center-y="-1.5675455" />
    <path
       style="fill:none;stroke:#00a7bc;stroke-width:1;stroke-linecap:round;stroke-linejoin:miter;stroke-dasharray:none;stroke-opacity:1;marker-end:url(#TriangleStart)"
       d="m 119.21622,155.19482 11.8634,-3.47298"
       id="path19478"
       sodipodi:nodetypes="cc"
       inkscape:transform-center-x="-5.9849613"
       inkscape:transform-center-y="-1.5675455" />
    <path
       style="fill:none;stroke:#0000dd;stroke-width:0.4;stroke-linecap:round;stroke-linejoin:miter;stroke-dasharray:none;stroke-opacity:1;marker-end:url(#Arrow2)"
       d="m 65.956466,180.08136 c 3.071439,-3.16559 6.142879,-6.33118 9.214319,-9.49676 l 0,0 c 0.431547,-0.44478 0.863094,-0.88955 1.294641,-1.33433 l 0,0 c 0.0264,-0.0272 0.0528,-0.0544 0.0792,-0.0816"
       id="path19584"
       sodipodi:nodetypes="cc"
       inkscape:transform-center-x="0.023703572"
       inkscape:transform-center-y="-0.069342901"
       inkscape:path-effect="#path-effect19604"
       inkscape:original-d="M 20.625665,25.870478 26.217,14.846011"
       class="UnoptimicedTransforms"
       transform="matrix(0.41619144,0.71673676,-0.4277656,0.69734383,115.91356,1.7339814)" />
    <path
       style="fill:none;stroke:#0000dd;stroke-width:0.4;stroke-linecap:round;stroke-linejoin:miter;stroke-dasharray:none;stroke-opacity:1;marker-end:url(#Arrow2)"
       d="m 65.956466,180.08136 c 3.071439,-3.16559 6.142879,-6.33118 9.214319,-9.49676 l 0,0 c 0.431547,-0.44478 0.863094,-0.88955 1.294641,-1.33433 l 0,0 c 0.0264,-0.0272 0.0528,-0.0544 0.0792,-0.0816"
       id="path19790"
       sodipodi:nodetypes="cc"
       inkscape:transform-center-x="-3.9910053"
       inkscape:transform-center-y="-2.3977264"
       inkscape:path-effect="#path-effect19794"
       inkscape:original-d="M 20.625665,25.870478 26.217,14.846011"
       class="UnoptimicedTransforms"
       transform="matrix(0.72666755,0.39859901,-0.00592002,0.81806893,19.462318,0.91281758)" />
    <path
       style="fill:none;stroke:#0000dd;stroke-width:0.4;stroke-linecap:round;stroke-linejoin:miter;stroke-dasharray:none;stroke-opacity:1;marker-end:url(#Arrow2)"
       d="m 65.956466,180.08136 c 3.071439,-3.16559 6.142879,-6.33118 9.214319,-9.49676 l 0,0 c 0.431547,-0.44478 0.863094,-0.88955 1.294641,-1.33433 l 0,0 c 0.0264,-0.0272 0.0528,-0.0544 0.0792,-0.0816"
       id="path19824"
       sodipodi:nodetypes="cc"
       inkscape:transform-center-x="0.024107176"
       inkscape:transform-center-y="-4.6558213"
       inkscape:path-effect="#path-effect19828"
       inkscape:original-d="M 20.625665,25.870478 26.217,14.846011"
       class="UnoptimicedTransforms"
       transform="matrix(0.713732,-0.42132354,0.70039523,0.42275092,-106.97143,126.10706)" />
    <g
       inkscape:label=""
       transform="matrix(0.70875764,0,0,0.70875764,72.104077,176.73803)"
       id="g20334"
       style="fill:#0000dd;fill-opacity:1;stroke:none;stroke-opacity:1">
      <g
         fill="#000000"
         fill-opacity="1"
         id="g19"
         transform="matrix(0.352778,0,0,0.352778,-0.275608,0.0637645)"
         style="fill:#0000dd;fill-opacity:1;stroke:none;stroke-opacity:1">
        <g
           id="use17"
           transform="translate(0,7.4130001)"
           style="fill:#0000dd;fill-opacity:1;stroke:none;stroke-opacity:1">
          <path
             d="m 3.078125,-4 c 0.46875,0 1.640625,-0.03125 2.46875,-0.34375 1.3125,-0.5 1.421875,-1.5 1.421875,-1.796875 0,-0.765625 -0.65625,-1.453125 -1.78125,-1.453125 -1.8125,0 -4.40625,1.640625 -4.40625,4.703125 0,1.8125 1.03125,3.0625 2.59375,3.0625 2.34375,0 3.828125,-1.828125 3.828125,-2.046875 0,-0.109375 -0.109375,-0.1875 -0.171875,-0.1875 -0.0625,0 -0.078125,0.015625 -0.234375,0.171875 -1.09375,1.453125 -2.734375,1.71875 -3.390625,1.71875 -0.984375,0 -1.5,-0.78125 -1.5,-2.046875 0,-0.25 0,-0.671875 0.265625,-1.78125 z M 2.25,-4.34375 C 3,-6.984375 4.625,-7.25 5.1875,-7.25 c 0.75,0 1.265625,0.453125 1.265625,1.109375 0,1.796875 -2.75,1.796875 -3.46875,1.796875 z m 0,0"
             id="path31"
             style="fill:#0000dd;fill-opacity:1;stroke:none;stroke-opacity:1" />
        </g>
      </g>
      <g
         clip-path="url(#clip-0)"
         id="g25"
         transform="matrix(0.352778,0,0,0.352778,-0.275608,0.0637645)"
         style="fill:#0000dd;fill-opacity:1;stroke:none;stroke-opacity:1">
        <g
           fill="#000000"
           fill-opacity="1"
           id="g23"
           style="fill:#0000dd;fill-opacity:1;stroke:none;stroke-opacity:1">
          <g
             id="use21"
             transform="translate(7.8130002,9.9949999)"
             style="fill:#0000dd;fill-opacity:1;stroke:none;stroke-opacity:1">
            <path
               d="m 3.203125,-6.984375 c 0,-0.25 0,-0.28125 -0.25,-0.28125 C 2.28125,-6.5625 1.3125,-6.5625 0.96875,-6.5625 v 0.328125 c 0.21875,0 0.859375,0 1.4375,-0.28125 v 5.65625 c 0,0.390625 -0.046875,0.515625 -1.015625,0.515625 H 1.03125 V 0 c 0.390625,-0.03125 1.328125,-0.03125 1.765625,-0.03125 0.4375,0 1.390625,0 1.765625,0.03125 V -0.34375 H 4.21875 c -0.984375,0 -1.015625,-0.109375 -1.015625,-0.515625 z m 0,0"
               id="path35"
               style="fill:#0000dd;fill-opacity:1;stroke:none;stroke-opacity:1" />
          </g>
        </g>
      </g>
    </g>
    <g
       inkscape:label=""
       transform="matrix(0.70875764,0,0,0.70875764,77.480085,169.43488)"
       id="g20491"
       style="fill:#0000dd;fill-opacity:1;stroke:none;stroke-opacity:1">
      <g
         fill="#000000"
         fill-opacity="1"
         id="g20481"
         transform="matrix(0.352778,0,0,0.352778,-0.275608,0.0637645)"
         style="fill:#0000dd;fill-opacity:1;stroke:none;stroke-opacity:1">
        <g
           id="g20479"
           transform="translate(0,7.4130001)"
           style="fill:#0000dd;fill-opacity:1;stroke:none;stroke-opacity:1">
          <path
             d="m 3.078125,-4 c 0.46875,0 1.640625,-0.03125 2.46875,-0.34375 1.3125,-0.5 1.421875,-1.5 1.421875,-1.796875 0,-0.765625 -0.65625,-1.453125 -1.78125,-1.453125 -1.8125,0 -4.40625,1.640625 -4.40625,4.703125 0,1.8125 1.03125,3.0625 2.59375,3.0625 2.34375,0 3.828125,-1.828125 3.828125,-2.046875 0,-0.109375 -0.109375,-0.1875 -0.171875,-0.1875 -0.0625,0 -0.078125,0.015625 -0.234375,0.171875 -1.09375,1.453125 -2.734375,1.71875 -3.390625,1.71875 -0.984375,0 -1.5,-0.78125 -1.5,-2.046875 0,-0.25 0,-0.671875 0.265625,-1.78125 z M 2.25,-4.34375 C 3,-6.984375 4.625,-7.25 5.1875,-7.25 c 0.75,0 1.265625,0.453125 1.265625,1.109375 0,1.796875 -2.75,1.796875 -3.46875,1.796875 z m 0,0"
             id="path20477"
             style="fill:#0000dd;fill-opacity:1;stroke:none;stroke-opacity:1" />
        </g>
      </g>
      <g
         clip-path="url(#clip-0)"
         id="g20489"
         transform="matrix(0.352778,0,0,0.352778,-0.275608,0.0637645)"
         style="fill:#0000dd;fill-opacity:1;stroke:none;stroke-opacity:1">
        <g
           fill="#000000"
           fill-opacity="1"
           id="g20487"
           style="fill:#0000dd;fill-opacity:1;stroke:none;stroke-opacity:1">
          <g
             id="g20485"
             transform="translate(7.8130002,9.9949999)"
             style="fill:#0000dd;fill-opacity:1;stroke:none;stroke-opacity:1">
            <path
               d="m 1.390625,-0.84375 1.15625,-1.125 c 1.703125,-1.5 2.34375,-2.09375 2.34375,-3.171875 0,-1.25 -0.96875,-2.125 -2.3125,-2.125 -1.21875,0 -2.03125,1 -2.03125,1.96875 0,0.625 0.546875,0.625 0.578125,0.625 0.1875,0 0.5625,-0.140625 0.5625,-0.578125 0,-0.296875 -0.1875,-0.578125 -0.578125,-0.578125 -0.078125,0 -0.109375,0 -0.140625,0.015625 0.25,-0.703125 0.84375,-1.109375 1.46875,-1.109375 1,0 1.46875,0.875 1.46875,1.78125 0,0.859375 -0.546875,1.734375 -1.140625,2.40625 l -2.09375,2.328125 c -0.125,0.125 -0.125,0.140625 -0.125,0.40625 H 4.59375 L 4.890625,-1.890625 H 4.625 C 4.5625,-1.578125 4.5,-1.09375 4.390625,-0.921875 4.3125,-0.84375 3.59375,-0.84375 3.34375,-0.84375 Z m 0,0"
               id="path20483"
               style="fill:#0000dd;fill-opacity:1;stroke:none;stroke-opacity:1" />
          </g>
        </g>
      </g>
    </g>
    <g
       inkscape:label=""
       transform="matrix(0.70875764,0,0,0.70875764,68.21737,165.78894)"
       id="g20668"
       style="fill:#0000dd;fill-opacity:1;stroke:none;stroke-opacity:1">
      <g
         fill="#000000"
         fill-opacity="1"
         id="g20658"
         transform="matrix(0.352778,0,0,0.352778,-0.275608,0.0637645)"
         style="fill:#0000dd;fill-opacity:1;stroke:none;stroke-opacity:1">
        <g
           id="g20656"
           transform="translate(0,7.4130001)"
           style="fill:#0000dd;fill-opacity:1;stroke:none;stroke-opacity:1">
          <path
             d="m 3.078125,-4 c 0.46875,0 1.640625,-0.03125 2.46875,-0.34375 1.3125,-0.5 1.421875,-1.5 1.421875,-1.796875 0,-0.765625 -0.65625,-1.453125 -1.78125,-1.453125 -1.8125,0 -4.40625,1.640625 -4.40625,4.703125 0,1.8125 1.03125,3.0625 2.59375,3.0625 2.34375,0 3.828125,-1.828125 3.828125,-2.046875 0,-0.109375 -0.109375,-0.1875 -0.171875,-0.1875 -0.0625,0 -0.078125,0.015625 -0.234375,0.171875 -1.09375,1.453125 -2.734375,1.71875 -3.390625,1.71875 -0.984375,0 -1.5,-0.78125 -1.5,-2.046875 0,-0.25 0,-0.671875 0.265625,-1.78125 z M 2.25,-4.34375 C 3,-6.984375 4.625,-7.25 5.1875,-7.25 c 0.75,0 1.265625,0.453125 1.265625,1.109375 0,1.796875 -2.75,1.796875 -3.46875,1.796875 z m 0,0"
             id="path20654"
             style="fill:#0000dd;fill-opacity:1;stroke:none;stroke-opacity:1" />
        </g>
      </g>
      <g
         clip-path="url(#clip-0)"
         id="g20666"
         transform="matrix(0.352778,0,0,0.352778,-0.275608,0.0637645)"
         style="fill:#0000dd;fill-opacity:1;stroke:none;stroke-opacity:1">
        <g
           fill="#000000"
           fill-opacity="1"
           id="g20664"
           style="fill:#0000dd;fill-opacity:1;stroke:none;stroke-opacity:1">
          <g
             id="g20662"
             transform="translate(7.8130002,9.9949999)"
             style="fill:#0000dd;fill-opacity:1;stroke:none;stroke-opacity:1">
            <path
               d="M 3.15625,-3.84375 C 4.0625,-4.140625 4.6875,-4.890625 4.6875,-5.765625 c 0,-0.890625 -0.953125,-1.5 -2,-1.5 -1.109375,0 -1.9375,0.65625 -1.9375,1.484375 0,0.359375 0.25,0.5625 0.5625,0.5625 0.328125,0 0.546875,-0.234375 0.546875,-0.546875 0,-0.546875 -0.5,-0.546875 -0.671875,-0.546875 C 1.53125,-6.84375 2.25,-6.984375 2.640625,-6.984375 3.09375,-6.984375 3.6875,-6.75 3.6875,-5.765625 3.6875,-5.640625 3.671875,-5 3.375,-4.53125 3.046875,-4 2.6875,-3.96875 2.40625,-3.953125 c -0.078125,0 -0.34375,0.03125 -0.421875,0.03125 -0.09375,0 -0.15625,0.015625 -0.15625,0.125 0,0.125 0.0625,0.125 0.25,0.125 H 2.5625 c 0.890625,0 1.296875,0.734375 1.296875,1.8125 0,1.484375 -0.75,1.796875 -1.234375,1.796875 -0.46875,0 -1.28125,-0.1875 -1.671875,-0.828125 0.390625,0.046875 0.71875,-0.1875 0.71875,-0.609375 0,-0.390625 -0.28125,-0.609375 -0.609375,-0.609375 -0.25,0 -0.609375,0.15625 -0.609375,0.640625 0,0.984375 1.015625,1.703125 2.203125,1.703125 1.328125,0 2.328125,-0.984375 2.328125,-2.09375 0,-0.90625 -0.6875,-1.75 -1.828125,-1.984375 z m 0,0"
               id="path20660"
               style="fill:#0000dd;fill-opacity:1;stroke:none;stroke-opacity:1" />
          </g>
        </g>
      </g>
    </g>
    <g
       id="g28586"
       transform="translate(-25.436703,11.446517)"
       style="fill:#00a7bc;fill-opacity:1">
      <g
         fill="#000000"
         fill-opacity="1"
         id="g21078"
         transform="matrix(0.35277801,0,0,0.35277801,67.971662,146.63722)"
         style="fill:#00a7bc;fill-opacity:1">
        <g
           id="g21076"
           transform="translate(8.46,4.697)"
           style="fill:#00a7bc;fill-opacity:1">
          <path
             d="M 2.515625,-3.828125 C 2.578125,-4.0625 2.6875,-4.46875 2.6875,-4.53125 c 0,-0.1875 -0.140625,-0.296875 -0.328125,-0.296875 -0.03125,0 -0.328125,0.015625 -0.421875,0.40625 l -1.578125,6.3125 c -0.03125,0.125 -0.03125,0.15625 -0.03125,0.171875 0,0.15625 0.125,0.296875 0.296875,0.296875 C 0.859375,2.359375 1,2.15625 1.015625,2.125 1.0625,2.03125 1.203125,1.46875 1.609375,-0.21875 1.96875,0.078125 2.453125,0.125 2.671875,0.125 3.4375,0.125 3.859375,-0.375 4.125,-0.671875 4.21875,-0.1875 4.625,0.125 5.109375,0.125 c 0.375,0 0.625,-0.25 0.796875,-0.609375 C 6.09375,-0.875 6.234375,-1.53125 6.234375,-1.5625 c 0,-0.109375 -0.09375,-0.109375 -0.125,-0.109375 -0.109375,0 -0.125,0.046875 -0.15625,0.203125 -0.1875,0.703125 -0.375,1.34375 -0.828125,1.34375 -0.296875,0 -0.328125,-0.28125 -0.328125,-0.5 0,-0.234375 0.125,-0.75 0.21875,-1.125 l 0.3125,-1.1875 C 5.359375,-3.09375 5.46875,-3.515625 5.5,-3.671875 c 0.0625,-0.25 0.171875,-0.671875 0.171875,-0.734375 0,-0.203125 -0.15625,-0.296875 -0.3125,-0.296875 -0.0625,0 -0.34375,0.015625 -0.4375,0.390625 l -0.5,2.03125 c -0.140625,0.546875 -0.25,1 -0.28125,1.109375 C 4.125,-1.109375 3.59375,-0.125 2.71875,-0.125 c -0.546875,0 -0.8125,-0.359375 -0.8125,-0.9375 0,-0.328125 0.078125,-0.625 0.15625,-0.9375 z m 0,0"
             id="path21074"
             style="fill:#00a7bc;fill-opacity:1" />
        </g>
      </g>
      <g
         inkscape:label=""
         transform="translate(67.451032,148.00138)"
         id="g21302"
         style="fill:#00a7bc;fill-opacity:1">
        <g
           fill="#000000"
           fill-opacity="1"
           id="g12"
           transform="matrix(0.352778,0,0,0.352778,0.187413,0.0637645)"
           style="fill:#00a7bc;fill-opacity:1">
          <g
             id="use10"
             transform="translate(0,7.4130001)"
             style="fill:#00a7bc;fill-opacity:1">
            <path
               d="M 0.734375,2.1875 C 0.625,2.703125 0.546875,2.84375 -0.15625,2.84375 c -0.203125,0 -0.375,0 -0.375,0.328125 0,0.03125 0.015625,0.171875 0.203125,0.171875 0.21875,0 0.46875,-0.03125 0.6875,-0.03125 h 0.75 c 0.359375,0 1.234375,0.03125 1.59375,0.03125 0.109375,0 0.3125,0 0.3125,-0.3125 0,-0.1875 -0.125,-0.1875 -0.421875,-0.1875 C 1.8125,2.84375 1.75,2.71875 1.75,2.578125 1.75,2.375 2.53125,-0.578125 2.640625,-0.984375 2.828125,-0.5 3.28125,0.171875 4.1875,0.171875 c 1.9375,0 4.046875,-2.53125 4.046875,-5.0625 0,-1.578125 -0.90625,-2.703125 -2.1875,-2.703125 -1.109375,0 -2.03125,1.0625 -2.21875,1.3125 -0.140625,-0.859375 -0.8125,-1.3125 -1.5,-1.3125 -0.5,0 -0.90625,0.234375 -1.21875,0.890625 -0.3125,0.625 -0.5625,1.671875 -0.5625,1.75 0,0.0625 0.078125,0.15625 0.1875,0.15625 C 0.875,-4.796875 0.890625,-4.828125 1,-5.21875 1.25,-6.234375 1.578125,-7.25 2.265625,-7.25 c 0.40625,0 0.546875,0.28125 0.546875,0.796875 0,0.40625 -0.0625,0.578125 -0.125,0.890625 z M 3.71875,-5.375 c 0.125,-0.484375 0.609375,-0.984375 0.875,-1.21875 C 4.78125,-6.765625 5.359375,-7.25 6.015625,-7.25 c 0.75,0 1.09375,0.765625 1.09375,1.65625 0,0.828125 -0.484375,2.765625 -0.90625,3.671875 -0.4375,0.921875 -1.234375,1.75 -2.015625,1.75 -1.171875,0 -1.359375,-1.484375 -1.359375,-1.546875 0,-0.0625 0.03125,-0.1875 0.046875,-0.28125 z m 0,0"
               id="path18"
               style="fill:#00a7bc;fill-opacity:1" />
          </g>
        </g>
      </g>
    </g>
    <g
       inkscape:label=""
       transform="translate(47.624999,124.35417)"
       id="g21536">
      <g
         fill="#000000"
         fill-opacity="1"
         id="g22"
         transform="matrix(0.352778,0,0,0.352778,20.091611,40.076548)"
         style="fill:#0000dd;fill-opacity:1;stroke:none;stroke-opacity:1">
        <g
           id="use20"
           transform="translate(-0.69499999,12.271)"
           style="fill:#0000dd;fill-opacity:1;stroke:none;stroke-opacity:1">
          <path
             d="M 9.21875,-10.28125 C 9,-10.09375 8.375,-9.484375 8.375,-9.25 c 0,0.171875 0.140625,0.328125 0.328125,0.328125 0.140625,0 0.21875,-0.09375 0.34375,-0.265625 0.40625,-0.53125 0.875,-0.84375 1.265625,-1.078125 0.171875,-0.09375 0.296875,-0.15625 0.296875,-0.34375 0,-0.15625 -0.140625,-0.234375 -0.25,-0.328125 -0.46875,-0.328125 -0.59375,-0.78125 -0.640625,-1 -0.0625,-0.140625 -0.109375,-0.34375 -0.359375,-0.34375 -0.09375,0 -0.296875,0.07813 -0.296875,0.328125 0,0.15625 0.09375,0.578125 0.421875,1.03125 h -5.78125 c -0.296875,0 -0.59375,0 -0.59375,0.328125 0,0.3125 0.3125,0.3125 0.59375,0.3125 z m 0,0"
             id="path38"
             style="fill:#0000dd;fill-opacity:1;stroke:none;stroke-opacity:1" />
        </g>
      </g>
      <g
         clip-path="url(#clip-0)"
         id="g32"
         transform="matrix(0.352778,0,0,0.352778,-0.276999,0.003616)" />
      <g
         fill="#000000"
         fill-opacity="1"
         id="g25112"
         transform="matrix(0.352778,0,0,0.352778,29.426208,43.880836)"
         style="fill:#0000dd;fill-opacity:1;stroke:none;stroke-opacity:1">
        <g
           id="g25110"
           transform="translate(-0.69499999,12.271)"
           style="fill:#0000dd;fill-opacity:1;stroke:none;stroke-opacity:1">
          <path
             d="M 9.21875,-10.28125 C 9,-10.09375 8.375,-9.484375 8.375,-9.25 c 0,0.171875 0.140625,0.328125 0.328125,0.328125 0.140625,0 0.21875,-0.09375 0.34375,-0.265625 0.40625,-0.53125 0.875,-0.84375 1.265625,-1.078125 0.171875,-0.09375 0.296875,-0.15625 0.296875,-0.34375 0,-0.15625 -0.140625,-0.234375 -0.25,-0.328125 -0.46875,-0.328125 -0.59375,-0.78125 -0.640625,-1 -0.0625,-0.140625 -0.109375,-0.34375 -0.359375,-0.34375 -0.09375,0 -0.296875,0.07813 -0.296875,0.328125 0,0.15625 0.09375,0.578125 0.421875,1.03125 h -5.78125 c -0.296875,0 -0.59375,0 -0.59375,0.328125 0,0.3125 0.3125,0.3125 0.59375,0.3125 z m 0,0"
             id="path25108"
             style="fill:#0000dd;fill-opacity:1;stroke:none;stroke-opacity:1" />
        </g>
      </g>
      <g
         fill="#000000"
         fill-opacity="1"
         id="g25118"
         transform="matrix(0.352778,0,0,0.352778,23.790225,50.996264)"
         style="fill:#0000dd;fill-opacity:1;stroke:none;stroke-opacity:1">
        <g
           id="g25116"
           transform="translate(-0.69499999,12.271)"
           style="fill:#0000dd;fill-opacity:1;stroke:none;stroke-opacity:1">
          <path
             d="M 9.21875,-10.28125 C 9,-10.09375 8.375,-9.484375 8.375,-9.25 c 0,0.171875 0.140625,0.328125 0.328125,0.328125 0.140625,0 0.21875,-0.09375 0.34375,-0.265625 0.40625,-0.53125 0.875,-0.84375 1.265625,-1.078125 0.171875,-0.09375 0.296875,-0.15625 0.296875,-0.34375 0,-0.15625 -0.140625,-0.234375 -0.25,-0.328125 -0.46875,-0.328125 -0.59375,-0.78125 -0.640625,-1 -0.0625,-0.140625 -0.109375,-0.34375 -0.359375,-0.34375 -0.09375,0 -0.296875,0.07813 -0.296875,0.328125 0,0.15625 0.09375,0.578125 0.421875,1.03125 h -5.78125 c -0.296875,0 -0.59375,0 -0.59375,0.328125 0,0.3125 0.3125,0.3125 0.59375,0.3125 z m 0,0"
             id="path25114"
             style="fill:#0000dd;fill-opacity:1;stroke:none;stroke-opacity:1" />
        </g>
      </g>
    </g>
    <g
       inkscape:label=""
       transform="translate(70.2711,139.897)"
       id="g22575">
      <g
         clip-path="url(#clip-0)"
         id="g17"
         transform="matrix(0.352778,0,0,0.352778,-0.28112,0.00348362)">
        <g
           fill="#000000"
           fill-opacity="1"
           id="g15">
          <g
             id="use13"
             transform="translate(0,7.4120002)">
            <path
               d="m 5.015625,-3.90625 c 0.25,0 0.546875,0 0.546875,-0.28125 0,-0.21875 -0.171875,-0.21875 -0.484375,-0.21875 h -2.78125 c 0.421875,-1.5625 1.4375,-2.515625 2.96875,-2.515625 h 0.5 c 0.296875,0 0.546875,0 0.546875,-0.28125 0,-0.21875 -0.1875,-0.21875 -0.5,-0.21875 H 5.234375 c -2.125,0 -4.4375,1.6875 -4.4375,4.390625 0,1.90625 1.28125,3.203125 2.984375,3.203125 1.109375,0 2.1875,-0.6875 2.1875,-0.859375 0,-0.109375 -0.046875,-0.203125 -0.15625,-0.203125 -0.046875,0 -0.078125,0.015625 -0.171875,0.078125 C 5,-0.375 4.359375,-0.171875 3.84375,-0.171875 c -0.921875,0 -1.875,-0.609375 -1.875,-2.265625 0,-0.328125 0.03125,-0.78125 0.1875,-1.46875 z m 0,0"
               id="path23" />
          </g>
        </g>
      </g>
    </g>
    <g
       inkscape:label=""
       transform="translate(70.2711,139.897)"
       id="g23623">
      <g
         clip-path="url(#clip-0)"
         id="g23621"
         transform="matrix(0.352778,0,0,0.352778,-0.28112,0.00348362)">
        <g
           fill="#000000"
           fill-opacity="1"
           id="g23619">
          <g
             id="g23617"
             transform="translate(0,7.4120002)">
            <path
               d="m 5.015625,-3.90625 c 0.25,0 0.546875,0 0.546875,-0.28125 0,-0.21875 -0.171875,-0.21875 -0.484375,-0.21875 h -2.78125 c 0.421875,-1.5625 1.4375,-2.515625 2.96875,-2.515625 h 0.5 c 0.296875,0 0.546875,0 0.546875,-0.28125 0,-0.21875 -0.1875,-0.21875 -0.5,-0.21875 H 5.234375 c -2.125,0 -4.4375,1.6875 -4.4375,4.390625 0,1.90625 1.28125,3.203125 2.984375,3.203125 1.109375,0 2.1875,-0.6875 2.1875,-0.859375 0,-0.109375 -0.046875,-0.203125 -0.15625,-0.203125 -0.046875,0 -0.078125,0.015625 -0.171875,0.078125 C 5,-0.375 4.359375,-0.171875 3.84375,-0.171875 c -0.921875,0 -1.875,-0.609375 -1.875,-2.265625 0,-0.328125 0.03125,-0.78125 0.1875,-1.46875 z m 0,0"
               id="path23615" />
          </g>
        </g>
      </g>
    </g>
    <g
       inkscape:label=""
       transform="translate(70.2711,139.897)"
       id="g24685">
      <g
         clip-path="url(#clip-0)"
         id="g24683"
         transform="matrix(0.352778,0,0,0.352778,-0.28112,0.00348362)">
        <g
           fill="#000000"
           fill-opacity="1"
           id="g24681">
          <g
             id="g24679"
             transform="translate(0,7.4120002)">
            <path
               d="m 5.015625,-3.90625 c 0.25,0 0.546875,0 0.546875,-0.28125 0,-0.21875 -0.171875,-0.21875 -0.484375,-0.21875 h -2.78125 c 0.421875,-1.5625 1.4375,-2.515625 2.96875,-2.515625 h 0.5 c 0.296875,0 0.546875,0 0.546875,-0.28125 0,-0.21875 -0.1875,-0.21875 -0.5,-0.21875 H 5.234375 c -2.125,0 -4.4375,1.6875 -4.4375,4.390625 0,1.90625 1.28125,3.203125 2.984375,3.203125 1.109375,0 2.1875,-0.6875 2.1875,-0.859375 0,-0.109375 -0.046875,-0.203125 -0.15625,-0.203125 -0.046875,0 -0.078125,0.015625 -0.171875,0.078125 C 5,-0.375 4.359375,-0.171875 3.84375,-0.171875 c -0.921875,0 -1.875,-0.609375 -1.875,-2.265625 0,-0.328125 0.03125,-0.78125 0.1875,-1.46875 z m 0,0"
               id="path24677" />
          </g>
        </g>
      </g>
    </g>
    <g
       id="g28602"
       transform="translate(42.494259,-31.122555)"
       style="fill:#00a7bc;fill-opacity:1">
      <g
         fill="#000000"
         fill-opacity="1"
         id="g28592"
         transform="matrix(0.35277801,0,0,0.35277801,67.971662,146.63722)"
         style="fill:#00a7bc;fill-opacity:1">
        <g
           id="g28590"
           transform="translate(8.46,4.697)"
           style="fill:#00a7bc;fill-opacity:1">
          <path
             d="M 2.515625,-3.828125 C 2.578125,-4.0625 2.6875,-4.46875 2.6875,-4.53125 c 0,-0.1875 -0.140625,-0.296875 -0.328125,-0.296875 -0.03125,0 -0.328125,0.015625 -0.421875,0.40625 l -1.578125,6.3125 c -0.03125,0.125 -0.03125,0.15625 -0.03125,0.171875 0,0.15625 0.125,0.296875 0.296875,0.296875 C 0.859375,2.359375 1,2.15625 1.015625,2.125 1.0625,2.03125 1.203125,1.46875 1.609375,-0.21875 1.96875,0.078125 2.453125,0.125 2.671875,0.125 3.4375,0.125 3.859375,-0.375 4.125,-0.671875 4.21875,-0.1875 4.625,0.125 5.109375,0.125 c 0.375,0 0.625,-0.25 0.796875,-0.609375 C 6.09375,-0.875 6.234375,-1.53125 6.234375,-1.5625 c 0,-0.109375 -0.09375,-0.109375 -0.125,-0.109375 -0.109375,0 -0.125,0.046875 -0.15625,0.203125 -0.1875,0.703125 -0.375,1.34375 -0.828125,1.34375 -0.296875,0 -0.328125,-0.28125 -0.328125,-0.5 0,-0.234375 0.125,-0.75 0.21875,-1.125 l 0.3125,-1.1875 C 5.359375,-3.09375 5.46875,-3.515625 5.5,-3.671875 c 0.0625,-0.25 0.171875,-0.671875 0.171875,-0.734375 0,-0.203125 -0.15625,-0.296875 -0.3125,-0.296875 -0.0625,0 -0.34375,0.015625 -0.4375,0.390625 l -0.5,2.03125 c -0.140625,0.546875 -0.25,1 -0.28125,1.109375 C 4.125,-1.109375 3.59375,-0.125 2.71875,-0.125 c -0.546875,0 -0.8125,-0.359375 -0.8125,-0.9375 0,-0.328125 0.078125,-0.625 0.15625,-0.9375 z m 0,0"
             id="path28588"
             style="fill:#00a7bc;fill-opacity:1" />
        </g>
      </g>
      <g
         inkscape:label=""
         transform="translate(67.451032,148.00138)"
         id="g28600"
         style="fill:#00a7bc;fill-opacity:1">
        <g
           fill="#000000"
           fill-opacity="1"
           id="g28598"
           transform="matrix(0.352778,0,0,0.352778,0.187413,0.0637645)"
           style="fill:#00a7bc;fill-opacity:1">
          <g
             id="g28596"
             transform="translate(0,7.4130001)"
             style="fill:#00a7bc;fill-opacity:1">
            <path
               d="M 0.734375,2.1875 C 0.625,2.703125 0.546875,2.84375 -0.15625,2.84375 c -0.203125,0 -0.375,0 -0.375,0.328125 0,0.03125 0.015625,0.171875 0.203125,0.171875 0.21875,0 0.46875,-0.03125 0.6875,-0.03125 h 0.75 c 0.359375,0 1.234375,0.03125 1.59375,0.03125 0.109375,0 0.3125,0 0.3125,-0.3125 0,-0.1875 -0.125,-0.1875 -0.421875,-0.1875 C 1.8125,2.84375 1.75,2.71875 1.75,2.578125 1.75,2.375 2.53125,-0.578125 2.640625,-0.984375 2.828125,-0.5 3.28125,0.171875 4.1875,0.171875 c 1.9375,0 4.046875,-2.53125 4.046875,-5.0625 0,-1.578125 -0.90625,-2.703125 -2.1875,-2.703125 -1.109375,0 -2.03125,1.0625 -2.21875,1.3125 -0.140625,-0.859375 -0.8125,-1.3125 -1.5,-1.3125 -0.5,0 -0.90625,0.234375 -1.21875,0.890625 -0.3125,0.625 -0.5625,1.671875 -0.5625,1.75 0,0.0625 0.078125,0.15625 0.1875,0.15625 C 0.875,-4.796875 0.890625,-4.828125 1,-5.21875 1.25,-6.234375 1.578125,-7.25 2.265625,-7.25 c 0.40625,0 0.546875,0.28125 0.546875,0.796875 0,0.40625 -0.0625,0.578125 -0.125,0.890625 z M 3.71875,-5.375 c 0.125,-0.484375 0.609375,-0.984375 0.875,-1.21875 C 4.78125,-6.765625 5.359375,-7.25 6.015625,-7.25 c 0.75,0 1.09375,0.765625 1.09375,1.65625 0,0.828125 -0.484375,2.765625 -0.90625,3.671875 -0.4375,0.921875 -1.234375,1.75 -2.015625,1.75 -1.171875,0 -1.359375,-1.484375 -1.359375,-1.546875 0,-0.0625 0.03125,-0.1875 0.046875,-0.28125 z m 0,0"
               id="path28594"
               style="fill:#00a7bc;fill-opacity:1" />
          </g>
        </g>
      </g>
    </g>
    <g
       id="g28618"
       transform="translate(64.713968,-4.2643884)"
       style="fill:#00a7bc;fill-opacity:1">
      <g
         fill="#000000"
         fill-opacity="1"
         id="g28608"
         transform="matrix(0.35277801,0,0,0.35277801,67.971662,146.63722)"
         style="fill:#00a7bc;fill-opacity:1">
        <g
           id="g28606"
           transform="translate(8.46,4.697)"
           style="fill:#00a7bc;fill-opacity:1">
          <path
             d="M 2.515625,-3.828125 C 2.578125,-4.0625 2.6875,-4.46875 2.6875,-4.53125 c 0,-0.1875 -0.140625,-0.296875 -0.328125,-0.296875 -0.03125,0 -0.328125,0.015625 -0.421875,0.40625 l -1.578125,6.3125 c -0.03125,0.125 -0.03125,0.15625 -0.03125,0.171875 0,0.15625 0.125,0.296875 0.296875,0.296875 C 0.859375,2.359375 1,2.15625 1.015625,2.125 1.0625,2.03125 1.203125,1.46875 1.609375,-0.21875 1.96875,0.078125 2.453125,0.125 2.671875,0.125 3.4375,0.125 3.859375,-0.375 4.125,-0.671875 4.21875,-0.1875 4.625,0.125 5.109375,0.125 c 0.375,0 0.625,-0.25 0.796875,-0.609375 C 6.09375,-0.875 6.234375,-1.53125 6.234375,-1.5625 c 0,-0.109375 -0.09375,-0.109375 -0.125,-0.109375 -0.109375,0 -0.125,0.046875 -0.15625,0.203125 -0.1875,0.703125 -0.375,1.34375 -0.828125,1.34375 -0.296875,0 -0.328125,-0.28125 -0.328125,-0.5 0,-0.234375 0.125,-0.75 0.21875,-1.125 l 0.3125,-1.1875 C 5.359375,-3.09375 5.46875,-3.515625 5.5,-3.671875 c 0.0625,-0.25 0.171875,-0.671875 0.171875,-0.734375 0,-0.203125 -0.15625,-0.296875 -0.3125,-0.296875 -0.0625,0 -0.34375,0.015625 -0.4375,0.390625 l -0.5,2.03125 c -0.140625,0.546875 -0.25,1 -0.28125,1.109375 C 4.125,-1.109375 3.59375,-0.125 2.71875,-0.125 c -0.546875,0 -0.8125,-0.359375 -0.8125,-0.9375 0,-0.328125 0.078125,-0.625 0.15625,-0.9375 z m 0,0"
             id="path28604"
             style="fill:#00a7bc;fill-opacity:1" />
        </g>
      </g>
      <g
         inkscape:label=""
         transform="translate(67.451032,148.00138)"
         id="g28616"
         style="fill:#00a7bc;fill-opacity:1">
        <g
           fill="#000000"
           fill-opacity="1"
           id="g28614"
           transform="matrix(0.352778,0,0,0.352778,0.187413,0.0637645)"
           style="fill:#00a7bc;fill-opacity:1">
          <g
             id="g28612"
             transform="translate(0,7.4130001)"
             style="fill:#00a7bc;fill-opacity:1">
            <path
               d="M 0.734375,2.1875 C 0.625,2.703125 0.546875,2.84375 -0.15625,2.84375 c -0.203125,0 -0.375,0 -0.375,0.328125 0,0.03125 0.015625,0.171875 0.203125,0.171875 0.21875,0 0.46875,-0.03125 0.6875,-0.03125 h 0.75 c 0.359375,0 1.234375,0.03125 1.59375,0.03125 0.109375,0 0.3125,0 0.3125,-0.3125 0,-0.1875 -0.125,-0.1875 -0.421875,-0.1875 C 1.8125,2.84375 1.75,2.71875 1.75,2.578125 1.75,2.375 2.53125,-0.578125 2.640625,-0.984375 2.828125,-0.5 3.28125,0.171875 4.1875,0.171875 c 1.9375,0 4.046875,-2.53125 4.046875,-5.0625 0,-1.578125 -0.90625,-2.703125 -2.1875,-2.703125 -1.109375,0 -2.03125,1.0625 -2.21875,1.3125 -0.140625,-0.859375 -0.8125,-1.3125 -1.5,-1.3125 -0.5,0 -0.90625,0.234375 -1.21875,0.890625 -0.3125,0.625 -0.5625,1.671875 -0.5625,1.75 0,0.0625 0.078125,0.15625 0.1875,0.15625 C 0.875,-4.796875 0.890625,-4.828125 1,-5.21875 1.25,-6.234375 1.578125,-7.25 2.265625,-7.25 c 0.40625,0 0.546875,0.28125 0.546875,0.796875 0,0.40625 -0.0625,0.578125 -0.125,0.890625 z M 3.71875,-5.375 c 0.125,-0.484375 0.609375,-0.984375 0.875,-1.21875 C 4.78125,-6.765625 5.359375,-7.25 6.015625,-7.25 c 0.75,0 1.09375,0.765625 1.09375,1.65625 0,0.828125 -0.484375,2.765625 -0.90625,3.671875 -0.4375,0.921875 -1.234375,1.75 -2.015625,1.75 -1.171875,0 -1.359375,-1.484375 -1.359375,-1.546875 0,-0.0625 0.03125,-0.1875 0.046875,-0.28125 z m 0,0"
               id="path28610"
               style="fill:#00a7bc;fill-opacity:1" />
          </g>
        </g>
      </g>
    </g>
    <circle
       style="fill:url(#radialGradient29431);fill-opacity:1;stroke:none;stroke-width:0.607229;stroke-dasharray:none;stroke-opacity:1"
       id="path28672"
       cx="96.61116"
       cy="149.37245"
       r="20.63179" />
    <g
       inkscape:label=""
       transform="translate(83.9474,142.966)"
       id="g30224">
      <g
         clip-path="url(#clip-0)"
         id="g30222"
         transform="matrix(0.352778,0,0,0.352778,-0.28112,0.00348362)">
        <g
           fill="#000000"
           fill-opacity="1"
           id="g30220">
          <g
             id="g30218"
             transform="translate(0,7.4120002)">
            <path
               d="m 5.015625,-3.90625 c 0.25,0 0.546875,0 0.546875,-0.28125 0,-0.21875 -0.171875,-0.21875 -0.484375,-0.21875 h -2.78125 c 0.421875,-1.5625 1.4375,-2.515625 2.96875,-2.515625 h 0.5 c 0.296875,0 0.546875,0 0.546875,-0.28125 0,-0.21875 -0.1875,-0.21875 -0.5,-0.21875 H 5.234375 c -2.125,0 -4.4375,1.6875 -4.4375,4.390625 0,1.90625 1.28125,3.203125 2.984375,3.203125 1.109375,0 2.1875,-0.6875 2.1875,-0.859375 0,-0.109375 -0.046875,-0.203125 -0.15625,-0.203125 -0.046875,0 -0.078125,0.015625 -0.171875,0.078125 C 5,-0.375 4.359375,-0.171875 3.84375,-0.171875 c -0.921875,0 -1.875,-0.609375 -1.875,-2.265625 0,-0.328125 0.03125,-0.78125 0.1875,-1.46875 z m 0,0"
               id="path30216" />
          </g>
        </g>
      </g>
    </g>
    <g
       inkscape:label=""
       transform="translate(86.9164, 147.155)"
       id="g34684">
      <g
         clip-path="url(#clip-0)"
         id="g34682"
         transform="matrix(0.352778 0 0 0.352778 -0.28112 0.00348362)">
        <g
           fill="#000000"
           fill-opacity="1"
           id="g34680">
          <g
             id="g34678"
             transform="translate(0,7.4120002)">
            <path
               d="m 5.015625,-3.90625 c 0.25,0 0.546875,0 0.546875,-0.28125 0,-0.21875 -0.171875,-0.21875 -0.484375,-0.21875 h -2.78125 c 0.421875,-1.5625 1.4375,-2.515625 2.96875,-2.515625 h 0.5 c 0.296875,0 0.546875,0 0.546875,-0.28125 0,-0.21875 -0.1875,-0.21875 -0.5,-0.21875 H 5.234375 c -2.125,0 -4.4375,1.6875 -4.4375,4.390625 0,1.90625 1.28125,3.203125 2.984375,3.203125 1.109375,0 2.1875,-0.6875 2.1875,-0.859375 0,-0.109375 -0.046875,-0.203125 -0.15625,-0.203125 -0.046875,0 -0.078125,0.015625 -0.171875,0.078125 C 5,-0.375 4.359375,-0.171875 3.84375,-0.171875 c -0.921875,0 -1.875,-0.609375 -1.875,-2.265625 0,-0.328125 0.03125,-0.78125 0.1875,-1.46875 z m 0,0"
               id="path34676" />
          </g>
        </g>
      </g>
    </g>
    <text
       xml:space="preserve"
       style="font-size:8.54929px;line-height:1.25;font-family:Symbol;-inkscape-font-specification:Symbol;word-spacing:0px;fill:#ff0000;stroke-width:0.534331"
       x="74.963707"
       y="144.06758"
       id="text36771"><tspan
         sodipodi:role="line"
         id="tspan36769"
         x="74.963707"
         y="144.06758"
         style="fill:#ff0000;stroke-width:0.534331">ε</tspan></text>
  </g>
</svg>
